<svg width="100" height="100" viewBox="0 0 100 100" fill="none" xmlns="http://www.w3.org/2000/svg">
<path d="M23.2695 88.4247C42.4834 88.4247 55.6779 98.3775 64.9362 98.3775C74.1945 98.3775 93.639 93.0553 93.639 50.4636C93.639 7.87192 67.4807 1.61914 57.2973 1.61914C9.61122 1.61914 -10.7582 88.4247 23.2695 88.4247Z" fill="#EFEFEF"/>
<path d="M88.8008 21.3398L90.765 19.3757L94.6933 23.304L92.7292 25.2682L88.8008 21.3398Z" fill="#A4AFC1"/>
<path d="M77.5078 10.0449L79.472 8.08074L83.4004 12.0091L81.4362 13.9733L77.5078 10.0449Z" fill="#A4AFC1"/>
<path d="M88.8027 12.502L92.7311 8.57358L94.6953 10.5378L90.7669 14.4661L88.8027 12.502Z" fill="#A4AFC1"/>
<path d="M54.8615 72.916C54.8615 72.916 55.5421 77.8188 58.9726 81.2494H59.0282H40.9727C44.4449 77.7771 45.0838 72.916 45.0838 72.916H54.8615Z" fill="#EE4248"/>
<path d="M78.4722 29.8613C80 29.8613 81.25 31.1113 81.25 32.6391V63.1947H18.75V32.6391C18.75 31.1113 20 29.8613 21.5278 29.8613H78.4722Z" fill="#F3F3F1"/>
<path d="M21.5278 72.9175H78.4722C80.0056 72.9175 81.25 71.6731 81.25 70.1398V63.1953H18.75V70.1398C18.75 71.6731 19.9944 72.9175 21.5278 72.9175Z" fill="#EE4248"/>
<path d="M69.4436 39.5825C73.6624 39.5825 77.0825 36.1624 77.0825 31.9436C77.0825 27.7247 73.6624 24.3047 69.4436 24.3047C65.2247 24.3047 61.8047 27.7247 61.8047 31.9436C61.8047 36.1624 65.2247 39.5825 69.4436 39.5825Z" fill="#EE4248"/>
<path d="M32.7895 56.2509C29.6312 56.2509 27.084 53.8314 27.084 50.8342C27.084 47.837 29.634 45.4175 32.7895 45.4175H32.8923C33.5007 41.3259 37.1923 38.1953 41.6673 38.1953C45.2173 38.1953 48.2868 40.1703 49.6951 43.0342C53.359 43.2259 56.2507 46.1036 56.2507 49.6314C56.2507 53.2897 53.1312 56.2509 49.2757 56.2509H32.7895Z" fill="#EE4248"/>
<path d="M45.0838 72.916C45.0838 72.916 44.4449 77.7771 40.9727 81.2494H47.2227C50.6949 77.7771 51.3338 72.916 51.3338 72.916H45.0838Z" fill="#EE4248"/>
<path d="M25 70.1378V63.1934H18.75V70.1378C18.75 71.6711 19.9944 72.9156 21.5278 72.9156H27.7778C26.2444 72.9156 25 71.6711 25 70.1378Z" fill="#EE4248"/>
<path d="M68.0547 31.9436C68.0547 28.8408 69.913 26.1825 72.5686 24.988C71.613 24.5575 70.5602 24.3047 69.4436 24.3047C65.2241 24.3047 61.8047 27.7241 61.8047 31.9436C61.8047 36.163 65.2241 39.5825 69.4436 39.5825C70.5602 39.5825 71.613 39.3297 72.5686 38.8991C69.913 37.7047 68.0547 35.0463 68.0547 31.9436Z" fill="#EE4248"/>
<path d="M33.334 50.8322C33.334 47.835 35.884 45.4156 39.0395 45.4156H39.1423C39.6007 42.3406 41.7979 39.81 44.7618 38.7406C43.7951 38.3989 42.759 38.1934 41.6673 38.1934C37.1895 38.1934 33.5007 41.3239 32.8923 45.4156H32.7895C29.6312 45.4156 27.084 47.835 27.084 50.8322C27.084 53.8295 29.634 56.2489 32.7895 56.2489H39.0395C35.884 56.2489 33.334 53.8295 33.334 50.8322Z" fill="#EE4248"/>
<path d="M27.7778 29.8613H21.5278C20 29.8613 18.75 31.1113 18.75 32.6391V63.1947H25V32.6391C25 31.1113 26.25 29.8613 27.7778 29.8613Z" fill="#D5DBE1"/>
<path d="M78.4716 74.9996H21.5271C18.8466 74.9996 16.666 72.819 16.666 70.1385V32.6385C16.666 29.9579 18.8466 27.7773 21.5271 27.7773H49.9994V31.944H21.5271C21.1493 31.944 20.8327 32.2607 20.8327 32.6385V70.1385C20.8327 70.5162 21.1493 70.8329 21.5271 70.8329H78.4716C78.8494 70.8329 79.166 70.5162 79.166 70.1385V47.2218H83.3327V70.1385C83.3327 72.819 81.1521 74.9996 78.4716 74.9996Z" fill="black"/>
<path d="M18.75 61.1113H81.25V65.278H18.75V61.1113Z" fill="black"/>
<path d="M59.0285 83.3333H40.9729C40.1285 83.3333 39.3702 82.825 39.0479 82.0472C38.7285 81.2694 38.9035 80.3722 39.5007 79.7778C42.4063 76.8722 43.0174 72.6806 43.0229 72.6389L47.1507 73.1889C47.1313 73.3528 46.7424 76.15 45.0868 79.1667H54.8702C53.2285 76.1667 52.8229 73.3667 52.7979 73.2056L56.9229 72.625C56.9313 72.6667 57.5424 76.6778 60.2174 79.5389C60.759 79.9167 61.1118 80.5417 61.1118 81.25C61.1118 82.4 60.1785 83.3333 59.0285 83.3333Z" fill="black"/>
<path d="M69.4449 41.6671C64.0838 41.6671 59.7227 37.306 59.7227 31.9449C59.7227 26.5838 64.0838 22.2227 69.4449 22.2227C74.806 22.2227 79.1671 26.5838 79.1671 31.9449C79.1671 37.306 74.806 41.6671 69.4449 41.6671ZM69.4449 26.3893C66.381 26.3893 63.8893 28.881 63.8893 31.9449C63.8893 35.0088 66.381 37.5004 69.4449 37.5004C72.5088 37.5004 75.0004 35.0088 75.0004 31.9449C75.0004 28.881 72.5088 26.3893 69.4449 26.3893Z" fill="black"/>
<path d="M67.3613 37.5H71.528V47.2222H67.3613V37.5Z" fill="black"/>
<path d="M67.3613 16.666H71.528V26.3882H67.3613V16.666Z" fill="black"/>
<path d="M73.2598 27.252L82.1288 22.5057L84.0941 26.1783L75.2251 30.9245L73.2598 27.252Z" fill="black"/>
<path d="M54.8457 37.6523L63.7147 32.9061L65.6801 36.5787L56.8111 41.3249L54.8457 37.6523Z" fill="black"/>
<path d="M54.8516 26.2168L56.8169 22.5442L65.6859 27.2905L63.7206 30.963L54.8516 26.2168Z" fill="black"/>
<path d="M73.2773 36.6074L75.2427 32.9349L84.1117 37.6811L82.1463 41.3536L73.2773 36.6074Z" fill="black"/>
<path d="M49.2778 58.3336H32.7778C28.4889 58.3336 25 54.9697 25 50.8336C25 47.2141 27.6722 44.1863 31.2111 43.4836C32.6139 39.1836 36.8417 36.1113 41.6667 36.1113C44.7389 36.1113 47.6805 37.3502 49.7333 39.5113L46.7111 42.3808C45.4417 41.0447 43.6028 40.278 41.6667 40.278C38.3 40.278 35.4139 42.6197 34.95 45.7252C34.7944 46.7447 33.9194 47.5002 32.8889 47.5002C30.7861 47.5002 29.1667 48.9947 29.1667 50.8336C29.1667 52.6724 30.7861 54.1669 32.7778 54.1669H49.2778C51.975 54.1669 54.1667 52.1363 54.1667 49.6391C54.1667 49.2641 54.1278 48.9613 54.05 48.678L58.0583 47.5447C58.2444 48.1974 58.3333 48.8836 58.3333 49.6391C58.3333 54.4336 54.2722 58.3336 49.2778 58.3336Z" fill="black"/>
</svg>
