<svg width="563" height="382" viewBox="0 0 563 382" fill="none" xmlns="http://www.w3.org/2000/svg">
<path d="M48.9192 341.888C61.2662 333.805 64.4025 318.322 64.2738 304.293C64.2738 301.958 64.5706 299.505 63.4923 297.427C62.4139 295.35 59.8317 293.895 57.6848 294.825C55.9139 295.597 55.1026 297.595 54.0737 299.238C52.7019 301.436 50.7367 303.202 48.4048 304.333C46.8812 305.065 45.0113 305.49 43.5471 304.649C41.5684 303.492 41.3606 300.692 41.4299 298.387C41.5684 294.06 41.7003 289.737 41.8256 285.417C42.0284 283.094 41.8479 280.755 41.2914 278.491C40.9963 277.37 40.4373 276.336 39.6611 275.476C38.8849 274.615 37.9139 273.953 36.8294 273.544C34.6034 272.872 31.8134 274.079 31.2792 276.334C31.1684 277.293 31.1222 278.258 31.1407 279.223C31.1426 279.707 31.0008 280.181 30.733 280.584C30.4653 280.988 30.0838 281.303 29.6369 281.489C29.1506 281.534 28.661 281.453 28.2143 281.256C27.7676 281.059 27.3787 280.751 27.0844 280.361C24.8319 277.842 23.0071 274.971 21.6826 271.862C20.36 268.758 18.6729 265.822 16.6567 263.117C14.5197 260.505 11.522 258.407 8.15822 258.17C4.79445 257.933 1.16355 259.872 0.243464 263.117C-0.676627 266.362 1.16355 269.735 3.2115 272.426C6.24237 276.439 9.83798 279.991 13.8865 282.973C14.6748 283.427 15.2983 284.12 15.6673 284.952C16.1323 286.515 14.6087 288.009 13.0555 288.483C11.2845 289.018 9.38501 288.79 7.55472 288.958C5.72443 289.127 3.70616 289.878 2.97405 291.57C1.9847 293.925 3.90403 296.458 5.83325 298.13C9.72462 301.494 14.1611 304.171 18.952 306.044C20.7186 306.573 22.3746 307.417 23.8393 308.537C25.2046 309.764 25.9961 311.872 25.1156 313.484C24.2351 315.097 22.0585 315.572 20.248 315.196C18.5022 314.676 16.8043 314.007 15.1727 313.197C11.9672 311.921 7.79216 312.04 5.65517 314.751C4.99529 315.676 4.56199 316.744 4.39016 317.868C4.21832 318.992 4.31274 320.14 4.66583 321.221C5.40478 323.37 6.56896 325.349 8.08896 327.038C13.0779 333.248 19.6213 338.027 27.0547 340.889C34.4847 343.639 41.42 344.5 48.9291 341.987" fill="#EE4248"/>
<path d="M3.70703 260.06L3.93458 260.287L4.61723 260.91C5.22073 261.464 6.10124 262.276 7.2192 263.354C10.3741 266.393 13.2975 269.664 15.965 273.139C17.6568 275.325 19.4178 277.808 21.258 280.499C23.0982 283.19 25.0274 286.099 26.9566 289.216C28.9913 292.461 30.8442 295.817 32.5069 299.267C33.3775 301.058 34.1393 302.938 34.911 304.847C35.6826 306.757 36.4741 308.696 37.2656 310.664C40.2987 318.016 42.9115 325.534 45.0913 333.182C46.8454 339.436 48.0015 345.843 48.5441 352.316C48.8988 356.68 48.8657 361.067 48.4452 365.425C48.2869 366.958 48.1385 368.155 48.0099 368.967C47.9505 369.352 47.9109 369.659 47.8714 369.887C47.8647 369.992 47.8647 370.098 47.8714 370.203C47.9047 370.103 47.9311 370 47.9505 369.897C47.9505 369.669 48.0495 369.362 48.1187 368.976C48.277 368.175 48.4551 366.998 48.6431 365.445C49.128 361.078 49.2075 356.677 48.8805 352.296C48.3835 345.797 47.2536 339.362 45.5068 333.083C43.3423 325.41 40.736 317.868 37.7009 310.496C36.8962 308.518 36.1114 306.582 35.3463 304.689C34.5647 302.779 33.793 300.89 32.9224 299.079C31.2434 295.618 29.374 292.252 27.3227 288.998C25.344 285.881 23.4247 282.993 21.5845 280.302C19.7443 277.61 17.9536 275.137 16.2321 272.951C13.5249 269.482 10.5476 266.234 7.32803 263.235C6.19028 262.177 5.28009 261.375 4.6568 260.851L3.95437 260.248C3.79607 260.119 3.71692 260.05 3.70703 260.06Z" fill="#263238"/>
<path d="M32.773 299.059C32.8905 298.739 32.9734 298.407 33.0203 298.07C33.1588 297.427 33.3369 296.507 33.5249 295.349C33.9107 293.044 34.346 289.848 34.8011 286.326C35.2562 282.804 35.7311 279.618 36.1565 277.323C36.3643 276.185 36.5424 275.255 36.671 274.612C36.7603 274.29 36.8134 273.958 36.8293 273.623C36.6795 273.938 36.5698 274.27 36.5028 274.612C36.3247 275.236 36.0972 276.156 35.8498 277.294C35.3551 279.579 34.8605 282.765 34.3757 286.297C33.8909 289.829 33.5249 292.925 33.2281 295.339C33.0797 296.418 32.951 297.318 32.862 298.07C32.7942 298.395 32.7643 298.727 32.773 299.059Z" fill="#263238"/>
<path d="M2.6875 292.768C3.08039 292.862 3.48119 292.918 3.88461 292.936C4.65629 293.025 5.78415 293.144 7.15934 293.342C9.91961 293.698 13.7187 294.331 17.8739 295.202C22.0292 296.073 25.7887 297.052 28.4302 297.814C29.7757 298.19 30.8541 298.526 31.5962 298.754C31.9771 298.896 32.3716 298.999 32.7735 299.06C32.4122 298.879 32.0386 298.724 31.6555 298.595C30.9234 298.318 29.8549 297.942 28.5193 297.527C25.858 296.676 22.1281 295.667 17.963 294.786C14.4067 294.022 10.8141 293.437 7.19892 293.035C5.80394 292.877 4.67609 292.808 3.9044 292.778C3.50013 292.734 3.09243 292.731 2.6875 292.768V292.768Z" fill="#263238"/>
<path d="M45.1211 332.518C45.2089 332.41 45.282 332.29 45.3388 332.162L45.8829 331.094C46.3479 330.164 46.991 328.808 47.7626 327.136C49.306 323.753 51.2847 319.014 53.392 313.76C55.4993 308.507 57.4483 303.748 58.9126 300.345L60.6637 296.308L61.1386 295.21C61.2375 294.953 61.287 294.814 61.2672 294.814C61.1857 294.926 61.1161 295.045 61.0594 295.171L60.5153 296.239C60.0404 297.169 59.4072 298.524 58.6355 300.196C57.0922 303.58 55.1135 308.319 52.9963 313.572C50.8791 318.826 48.9498 323.585 47.4757 326.988C46.7634 328.65 46.1698 330.015 45.7246 331.024L45.2596 332.123C45.1965 332.248 45.15 332.381 45.1211 332.518V332.518Z" fill="#263238"/>
<path d="M5.2793 318.787C5.2793 318.787 5.40791 318.866 5.66514 318.965L6.82267 319.371L11.0966 320.855C14.6979 322.101 19.6545 323.882 25.1255 325.861C30.5966 327.84 35.573 329.571 39.2039 330.748C41.0243 331.342 42.4885 331.797 43.5175 332.094L44.6948 332.43C44.9718 332.509 45.1202 332.539 45.1202 332.519C44.9944 332.45 44.8618 332.393 44.7245 332.351L43.5669 331.936L39.3029 330.461C35.7016 329.215 30.745 327.434 25.274 325.455C19.8029 323.477 14.8166 321.735 11.1956 320.558C9.37519 319.974 7.90106 319.509 6.88204 319.213L5.69482 318.876C5.55961 318.833 5.42042 318.803 5.2793 318.787V318.787Z" fill="#263238"/>
<path d="M450.405 237.492L390.718 237.215C389.01 237.211 387.319 236.87 385.743 236.211C384.167 235.551 382.737 234.587 381.534 233.374C380.332 232.161 379.381 230.722 378.736 229.14C378.092 227.558 377.766 225.864 377.778 224.156L378.411 74.9327C378.42 73.2272 378.765 71.5403 379.426 69.9683C380.088 68.3963 381.052 66.97 382.265 65.771C383.478 64.572 384.915 63.6237 386.495 62.9804C388.074 62.3371 389.765 62.0113 391.47 62.0217L451.157 62.2888C454.6 62.3019 457.897 63.6801 460.325 66.1209C462.753 68.5617 464.113 71.8659 464.108 75.3086L463.475 224.541C463.469 226.251 463.127 227.942 462.467 229.519C461.807 231.095 460.842 232.526 459.628 233.729C458.414 234.932 456.974 235.884 455.392 236.53C453.809 237.175 452.115 237.502 450.405 237.492V237.492Z" fill="#455A64"/>
<path d="M451.077 67.4837H439.502C439.126 67.4888 438.754 67.5682 438.409 67.7173C438.063 67.8664 437.75 68.0823 437.488 68.3525C437.226 68.6228 437.02 68.9421 436.882 69.2921C436.744 69.6421 436.676 70.016 436.682 70.3924V72.4898C436.69 73.2492 436.399 73.9813 435.871 74.5275C435.344 75.0737 434.622 75.3902 433.863 75.4083L411.296 75.2995C410.917 75.2906 410.544 75.2064 410.197 75.0519C409.851 74.8974 409.539 74.6756 409.28 74.3994C409.02 74.1232 408.818 73.7981 408.685 73.4431C408.552 73.0881 408.491 72.7102 408.506 72.3315V70.2143C408.519 69.8358 408.457 69.4585 408.324 69.1041C408.191 68.7497 407.988 68.4251 407.729 68.1492C407.47 67.8733 407.158 67.6515 406.813 67.4965C406.467 67.3415 406.095 67.2564 405.716 67.2462H401.64H391.509C390.315 67.2397 389.131 67.4685 388.026 67.9194C386.92 68.3703 385.914 69.0345 385.065 69.8742C384.217 70.7139 383.541 71.7126 383.078 72.8132C382.616 73.9138 382.374 75.0948 382.367 76.2888L381.744 221.95C381.739 224.362 382.691 226.678 384.393 228.388C386.094 230.099 388.404 231.064 390.816 231.072L450.385 231.349C452.796 231.359 455.114 230.414 456.829 228.719C458.545 227.024 459.518 224.718 459.536 222.306L460.15 76.645C460.159 75.4469 459.931 74.2587 459.479 73.1489C459.028 72.0391 458.361 71.0295 457.518 70.1781C456.675 69.3268 455.672 68.6504 454.567 68.188C453.461 67.7256 452.276 67.4862 451.077 67.4837V67.4837Z" fill="white"/>
<path d="M450.099 166.596H391.154V170.543H450.099V166.596Z" fill="#455A64"/>
<path d="M448.002 182.119C448.002 182.257 435.417 182.376 419.904 182.376C404.391 182.376 391.797 182.257 391.797 182.119C391.797 181.98 404.381 181.861 419.904 181.861C435.427 181.861 448.002 181.98 448.002 182.119Z" fill="#455A64"/>
<path d="M448.002 88.6146C448.002 88.763 435.417 88.8719 419.904 88.8719C404.391 88.8719 391.797 88.763 391.797 88.6146C391.797 88.4662 404.381 88.3574 419.904 88.3574C435.427 88.3574 448.002 88.4465 448.002 88.6146Z" fill="#455A64"/>
<path d="M448.002 189.3C448.002 189.439 435.417 189.557 419.904 189.557C404.391 189.557 391.797 189.439 391.797 189.3C391.797 189.162 404.381 189.043 419.904 189.043C435.427 189.043 448.002 189.152 448.002 189.3Z" fill="#455A64"/>
<path d="M448.002 196.455C448.002 196.593 435.417 196.712 419.904 196.712C404.391 196.712 391.797 196.593 391.797 196.455C391.797 196.316 404.381 196.197 419.904 196.197C435.427 196.197 448.002 196.336 448.002 196.455Z" fill="#455A64"/>
<path d="M448.002 203.656C448.002 203.794 435.417 203.913 419.904 203.913C404.391 203.913 391.797 203.794 391.797 203.656C391.797 203.517 404.381 203.398 419.904 203.398C435.427 203.398 448.002 203.507 448.002 203.656Z" fill="#455A64"/>
<path d="M448.002 210.83C448.002 210.978 435.417 211.087 419.904 211.087C404.391 211.087 391.797 210.978 391.797 210.83C391.797 210.681 404.381 210.572 419.904 210.572C435.427 210.572 448.002 210.691 448.002 210.83Z" fill="#455A64"/>
<path d="M448.802 218.972C448.802 219.111 436.218 219.229 420.705 219.229C405.192 219.229 392.598 219.111 392.598 218.972C392.598 218.834 405.182 218.715 420.705 218.715C436.228 218.715 448.802 218.824 448.802 218.972Z" fill="#455A64"/>
<path d="M450.89 96.7773H391.797V153.952H450.89V96.7773Z" fill="#E0E0E0"/>
<path d="M396.377 149.054L412.731 119.631L426.097 138.438L434.219 128.446L446.309 149.054H396.377Z" fill="#EE4248"/>
<path d="M431.795 113.912C431.795 114.754 431.546 115.576 431.078 116.276C430.611 116.975 429.947 117.521 429.169 117.843C428.392 118.165 427.537 118.249 426.711 118.085C425.886 117.921 425.128 117.516 424.533 116.921C423.938 116.326 423.533 115.568 423.369 114.742C423.205 113.917 423.289 113.062 423.611 112.284C423.933 111.507 424.478 110.843 425.178 110.375C425.877 109.908 426.7 109.658 427.541 109.658C428.669 109.661 429.749 110.11 430.547 110.907C431.344 111.704 431.793 112.785 431.795 113.912Z" fill="#EE4248"/>
<path d="M446.31 149.214C446.31 149.214 446.31 149.134 446.31 148.976C446.31 148.818 446.31 148.59 446.31 148.313C446.31 147.7 446.31 146.849 446.31 145.741C446.31 143.475 446.31 140.191 446.241 136.026C446.241 127.676 446.171 115.784 446.122 101.507L446.359 101.745H396.437C396.368 101.804 396.961 101.211 396.714 101.468V114.329C396.714 118.534 396.714 122.65 396.714 126.647C396.714 134.66 396.714 142.229 396.714 149.194L396.467 148.946L432.568 149.075L442.758 149.134H445.459H446.151H446.399H446.181H445.508H442.857L432.726 149.194L396.467 149.322H396.219V149.075C396.219 142.15 396.219 134.542 396.219 126.528C396.219 122.571 396.219 118.415 396.219 114.211V101.349C395.962 101.596 396.556 100.993 396.506 101.062H446.428H446.527V101.478C446.468 115.823 446.428 127.765 446.399 136.154C446.399 140.29 446.399 143.555 446.339 145.81C446.339 146.899 446.339 147.739 446.339 148.333C446.339 148.6 446.339 148.808 446.339 148.976C446.341 149.056 446.331 149.136 446.31 149.214V149.214Z" fill="#455A64"/>
<path d="M140.266 11.4269V143.227C140.266 149.538 145.382 154.654 151.693 154.654H350.788C357.099 154.654 362.215 149.538 362.215 143.227V11.4269C362.215 5.11598 357.099 -1.52588e-05 350.788 -1.52588e-05H151.693C145.382 -1.52588e-05 140.266 5.11598 140.266 11.4269Z" fill="#455A64"/>
<path d="M155.441 4.87796V149.777H340.795V4.87796H155.441Z" fill="white"/>
<path d="M351.055 71.3906C352.229 71.3906 353.377 71.7388 354.353 72.391C355.329 73.0433 356.09 73.9704 356.539 75.0551C356.989 76.1397 357.106 77.3333 356.877 78.4848C356.648 79.6363 356.083 80.694 355.253 81.5241C354.422 82.3543 353.365 82.9197 352.213 83.1487C351.062 83.3778 349.868 83.2602 348.784 82.8109C347.699 82.3616 346.772 81.6008 346.12 80.6246C345.467 79.6484 345.119 78.5007 345.119 77.3267C345.119 75.7523 345.745 74.2425 346.858 73.1293C347.971 72.016 349.481 71.3906 351.055 71.3906Z" fill="#263238"/>
<path d="M146.656 55.2459V99.4102C146.656 100.077 147.197 100.617 147.863 100.617H147.903C148.569 100.617 149.11 100.077 149.11 99.4102V55.2459C149.11 54.5793 148.569 54.0389 147.903 54.0389H147.863C147.197 54.0389 146.656 54.5793 146.656 55.2459Z" fill="#263238"/>
<path d="M298.937 15.7598H239.992V19.7072H298.937V15.7598Z" fill="#455A64"/>
<path d="M222.154 83.5605H163.209V87.508H222.154V83.5605Z" fill="#455A64"/>
<path d="M313.292 30.4428C313.292 30.5912 296.889 30.7 276.686 30.7C256.484 30.7 240.031 30.5912 240.031 30.4428C240.031 30.2944 256.435 30.1855 276.686 30.1855C296.938 30.1855 313.292 30.3043 313.292 30.4428Z" fill="#455A64"/>
<path d="M313.292 39.06C313.292 39.1985 296.889 39.3172 276.686 39.3172C256.484 39.3172 240.031 39.1985 240.031 39.06C240.031 38.9215 256.435 38.8027 276.686 38.8027C296.938 38.8027 313.292 38.9116 313.292 39.06Z" fill="#455A64"/>
<path d="M313.292 47.6674C313.292 47.8059 296.889 47.9246 276.686 47.9246C256.484 47.9246 240.031 47.8059 240.031 47.6674C240.031 47.5289 256.435 47.4102 276.686 47.4102C296.938 47.4102 313.292 47.5289 313.292 47.6674Z" fill="#455A64"/>
<path d="M313.292 56.2748C313.292 56.4232 296.889 56.532 276.686 56.532C256.484 56.532 240.031 56.4232 240.031 56.2748C240.031 56.1264 256.435 56.0176 276.686 56.0176C296.938 56.0176 313.292 56.1363 313.292 56.2748Z" fill="#455A64"/>
<path d="M313.292 64.8705C313.292 65.009 296.889 65.1277 276.686 65.1277C256.484 65.1277 240.031 65.009 240.031 64.8705C240.031 64.732 256.435 64.6133 276.686 64.6133C296.938 64.6133 313.292 64.7419 313.292 64.8705Z" fill="#455A64"/>
<path d="M297.216 73.4975C297.216 73.636 284.404 73.7547 268.604 73.7547C252.804 73.7547 239.992 73.636 239.992 73.4975C239.992 73.359 252.794 73.2402 268.604 73.2402C284.414 73.2402 297.216 73.359 297.216 73.4975Z" fill="#455A64"/>
<path d="M260.016 99.0834C260.016 99.2219 238.488 99.3406 211.934 99.3406C185.38 99.3406 163.852 99.2219 163.852 99.0834C163.852 98.9449 185.38 98.8262 211.934 98.8262C238.488 98.8262 260.016 98.935 260.016 99.0834Z" fill="#455A64"/>
<path d="M260.016 106.255C260.016 106.404 238.488 106.512 211.934 106.512C185.38 106.512 163.852 106.404 163.852 106.255C163.852 106.107 185.38 105.998 211.934 105.998C238.488 105.998 260.016 106.117 260.016 106.255Z" fill="#455A64"/>
<path d="M260.016 113.439C260.016 113.577 238.488 113.696 211.934 113.696C185.38 113.696 163.852 113.577 163.852 113.439C163.852 113.3 185.38 113.182 211.934 113.182C238.488 113.182 260.016 113.29 260.016 113.439Z" fill="#455A64"/>
<path d="M260.016 120.611C260.016 120.759 238.488 120.868 211.934 120.868C185.38 120.868 163.852 120.759 163.852 120.611C163.852 120.462 185.38 120.354 211.934 120.354C238.488 120.354 260.016 120.472 260.016 120.611Z" fill="#455A64"/>
<path d="M260.016 127.794C260.016 127.933 238.488 128.052 211.934 128.052C185.38 128.052 163.852 127.933 163.852 127.794C163.852 127.656 185.38 127.537 211.934 127.537C238.488 127.537 260.016 127.656 260.016 127.794Z" fill="#455A64"/>
<path d="M222.945 13.7324H163.852V70.9067H222.945V13.7324Z" fill="#EE4248"/>
<path d="M168.432 66.0188L184.786 36.5957L198.152 55.3932L206.274 45.4108L218.364 66.0188H168.432Z" fill="#E0E0E0"/>
<path d="M203.85 30.8673C203.852 31.7092 203.604 32.5326 203.138 33.2335C202.672 33.9344 202.008 34.4812 201.231 34.8047C200.454 35.1282 199.598 35.2139 198.772 35.0509C197.946 34.8878 197.187 34.4835 196.591 33.8889C195.995 33.2943 195.589 32.5363 195.424 31.7108C195.259 30.8853 195.343 30.0294 195.665 29.2515C195.986 28.4736 196.532 27.8086 197.231 27.3407C197.931 26.8728 198.754 26.623 199.596 26.623C200.723 26.623 201.803 27.0699 202.601 27.8656C203.398 28.6612 203.848 29.7408 203.85 30.8673V30.8673Z" fill="#E0E0E0"/>
<path d="M218.364 66.1775C218.364 66.1775 218.364 66.0885 218.364 65.9401C218.364 65.7917 218.364 65.5542 218.364 65.2772C218.364 64.6638 218.364 63.8031 218.364 62.7049C218.364 60.4294 218.364 57.1547 218.305 52.9896C218.305 44.6395 218.236 32.7476 218.186 18.4713L218.424 18.7088H168.501C168.432 18.7681 169.026 18.1844 168.778 18.4417V24.9021C168.778 27.0391 168.778 29.1661 168.778 31.2636V43.5809C168.778 51.5946 168.778 59.1631 168.778 66.1281L168.531 65.8807L204.632 65.9994L214.813 66.0687H217.513H218.216H218.463H218.246H217.573H214.921L204.79 66.138L168.531 66.2567H168.284V66.0093C168.284 59.0839 168.284 51.4759 168.284 43.4622C168.284 39.4586 168.284 35.3529 168.284 31.1448V18.2834C168.026 18.5307 168.62 17.9272 168.571 17.9866H218.493H218.74V18.2339C218.691 32.5695 218.651 44.5208 218.622 52.9104C218.622 57.0459 218.572 60.3107 218.562 62.5664C218.562 63.6448 218.562 64.5451 218.562 65.0892C218.562 65.3564 218.562 65.5641 218.562 65.7323C218.555 65.9005 218.484 66.0596 218.364 66.1775Z" fill="#455A64"/>
<path d="M315.103 91.1387H273.283V131.603H315.103V91.1387Z" fill="#EE4248"/>
<path d="M276.527 128.14L288.093 107.324L297.561 120.631L303.309 113.557L311.857 128.14H276.527Z" fill="#E0E0E0"/>
<path d="M301.588 103.267C301.588 103.854 301.414 104.428 301.088 104.916C300.762 105.404 300.299 105.784 299.756 106.009C299.214 106.234 298.617 106.292 298.041 106.178C297.466 106.063 296.937 105.781 296.522 105.366C296.107 104.95 295.824 104.422 295.709 103.846C295.595 103.27 295.654 102.673 295.878 102.131C296.103 101.589 296.483 101.125 296.971 100.799C297.46 100.473 298.033 100.299 298.62 100.299C299.408 100.299 300.162 100.612 300.719 101.168C301.276 101.725 301.588 102.48 301.588 103.267V103.267Z" fill="#E0E0E0"/>
<path d="M311.858 128.249C311.858 128.249 311.858 128.189 311.858 128.09C311.858 127.991 311.858 127.813 311.858 127.616C311.858 127.18 311.858 126.626 311.858 125.795C311.858 124.192 311.858 121.838 311.858 118.87C311.858 112.934 311.808 104.544 311.769 94.4428L311.937 94.611H276.608C276.558 94.611 276.983 94.235 276.805 94.423V103.505C276.805 106.473 276.805 109.379 276.805 112.221C276.805 117.89 276.805 123.243 276.805 128.17L276.637 128.001L302.083 128.189H309.286H311.205H311.868C311.868 128.189 311.818 128.189 311.719 128.189H311.244H309.365L302.192 128.239L276.538 128.328H276.36V128.15C276.36 123.203 276.36 117.87 276.36 112.202V94.5516C276.182 94.7198 276.608 94.2944 276.568 94.3439H311.897H312.076V94.5121C312.076 104.663 312.006 113.112 311.986 119.048C311.986 122.016 311.986 124.291 311.937 125.884C311.937 126.656 311.937 127.249 311.937 127.675C311.937 127.863 311.937 128.011 311.937 128.13C311.937 128.249 311.868 128.259 311.858 128.249Z" fill="#455A64"/>
<path d="M345.209 170.285H63.7897C55.8287 170.285 49.375 176.739 49.375 184.7V361.031C49.375 368.992 55.8287 375.446 63.7897 375.446H345.209C353.17 375.446 359.624 368.992 359.624 361.031V184.7C359.624 176.739 353.17 170.285 345.209 170.285Z" fill="#263238"/>
<path d="M36.4043 360.279H372.534V360.626C372.534 365.296 370.679 369.775 367.376 373.078C364.074 376.381 359.594 378.236 354.924 378.236H54.0146C49.3441 378.236 44.8648 376.381 41.5622 373.078C38.2597 369.775 36.4043 365.296 36.4043 360.626V360.279V360.279Z" fill="#263238"/>
<path d="M350.432 178.438H57.7051V351.692H350.432V178.438Z" fill="#E0E0E0"/>
<path d="M173.914 360.279L178.089 366.918H236.777L240.655 360.279H173.914Z" fill="#455A64"/>
<path d="M336.976 189.982H67.4688V351.631H336.976V189.982Z" fill="#FAFAFA"/>
<path d="M78.9765 197.947C78.9785 198.396 78.8472 198.835 78.5995 199.208C78.3517 199.582 77.9986 199.874 77.5848 200.047C77.171 200.22 76.7151 200.267 76.275 200.18C75.8349 200.094 75.4302 199.879 75.1124 199.563C74.7946 199.246 74.5778 198.842 74.4896 198.403C74.4014 197.963 74.4456 197.507 74.6168 197.092C74.788 196.678 75.0784 196.323 75.4512 196.074C75.824 195.825 76.2624 195.691 76.7109 195.691C77.3101 195.691 77.8848 195.929 78.3094 196.351C78.734 196.774 78.9739 197.348 78.9765 197.947V197.947Z" fill="#455A64"/>
<path d="M88.1972 197.947C88.1991 198.396 88.0677 198.835 87.8195 199.21C87.5713 199.584 87.2176 199.876 86.8032 200.048C86.3888 200.221 85.9324 200.267 85.492 200.18C85.0516 200.092 84.647 199.876 84.3296 199.559C84.0121 199.242 83.7962 198.837 83.7091 198.397C83.622 197.956 83.6677 197.5 83.8404 197.085C84.0131 196.671 84.305 196.317 84.6791 196.069C85.0532 195.821 85.4926 195.689 85.9415 195.691C86.5397 195.691 87.1135 195.929 87.5365 196.352C87.9595 196.775 88.1972 197.349 88.1972 197.947V197.947Z" fill="#455A64"/>
<path d="M97.4277 197.947C97.4296 198.396 97.2984 198.835 97.0507 199.209C96.8029 199.582 96.4497 199.874 96.0359 200.047C95.6221 200.22 95.1663 200.267 94.7262 200.18C94.286 200.094 93.8814 199.879 93.5636 199.563C93.2457 199.246 93.029 198.842 92.9407 198.403C92.8525 197.963 92.8968 197.507 93.068 197.092C93.2392 196.678 93.5295 196.323 93.9023 196.074C94.2751 195.825 94.7135 195.691 95.1621 195.691C95.4591 195.69 95.7535 195.747 96.0283 195.86C96.3031 195.973 96.553 196.139 96.7635 196.349C96.974 196.558 97.141 196.807 97.255 197.082C97.369 197.356 97.4277 197.65 97.4277 197.947V197.947Z" fill="#455A64"/>
<path d="M336.976 207.841C336.976 207.99 276.626 208.098 202.227 208.098C127.829 208.098 67.4688 207.99 67.4688 207.841C67.4688 207.693 127.819 207.584 202.227 207.584C276.636 207.584 336.976 207.703 336.976 207.841Z" fill="#455A64"/>
<path d="M359.624 360.418H49.375V361.407H359.624V360.418Z" fill="#455A64"/>
<path d="M148.508 286.385H89.5625V290.332H148.508V286.385Z" fill="#455A64"/>
<path d="M224.646 231.635H165.701V235.582H224.646V231.635Z" fill="#455A64"/>
<path d="M312.322 246.326C312.322 246.464 279.496 246.583 239.012 246.583C198.528 246.583 165.701 246.464 165.701 246.326C165.701 246.187 198.518 246.059 239.012 246.059C279.505 246.059 312.322 246.177 312.322 246.326Z" fill="#455A64"/>
<path d="M312.322 254.933C312.322 255.071 279.496 255.19 239.012 255.19C198.528 255.19 165.701 255.071 165.701 254.933C165.701 254.794 198.518 254.676 239.012 254.676C279.505 254.676 312.322 254.824 312.322 254.933Z" fill="#455A64"/>
<path d="M312.322 263.54C312.322 263.689 279.496 263.798 239.012 263.798C198.528 263.798 165.701 263.689 165.701 263.54C165.701 263.392 198.518 263.283 239.012 263.283C279.505 263.283 312.322 263.402 312.322 263.54Z" fill="#455A64"/>
<path d="M312.322 272.158C312.322 272.296 279.496 272.415 239.012 272.415C198.528 272.415 165.701 272.296 165.701 272.158C165.701 272.019 198.518 271.891 239.012 271.891C279.505 271.891 312.322 272.009 312.322 272.158Z" fill="#455A64"/>
<path d="M312.322 280.765C312.322 280.904 279.496 281.022 239.012 281.022C198.528 281.022 165.701 280.904 165.701 280.765C165.701 280.627 198.518 280.508 239.012 280.508C279.505 280.508 312.322 280.617 312.322 280.765Z" fill="#455A64"/>
<path d="M222.935 289.372C222.935 289.511 210.123 289.63 194.323 289.63C178.523 289.63 165.701 289.511 165.701 289.372C165.701 289.234 178.563 289.115 194.323 289.115C210.083 289.115 222.935 289.234 222.935 289.372Z" fill="#455A64"/>
<path d="M311.245 306.083C311.245 306.232 289.667 306.341 263.064 306.341C236.46 306.341 214.883 306.232 214.883 306.083C214.883 305.935 236.451 305.826 263.064 305.826C289.677 305.826 311.245 305.945 311.245 306.083Z" fill="#455A64"/>
<path d="M311.245 315.224C311.245 315.363 289.667 315.481 263.064 315.481C236.46 315.481 214.883 315.363 214.883 315.224C214.883 315.085 236.451 314.967 263.064 314.967C289.677 314.967 311.245 315.085 311.245 315.224Z" fill="#455A64"/>
<path d="M311.245 324.367C311.245 324.505 289.667 324.624 263.064 324.624C236.46 324.624 214.883 324.505 214.883 324.367C214.883 324.228 236.451 324.109 263.064 324.109C289.677 324.109 311.245 324.218 311.245 324.367Z" fill="#455A64"/>
<path d="M311.245 333.507C311.245 333.646 289.667 333.764 263.064 333.764C236.46 333.764 214.883 333.646 214.883 333.507C214.883 333.369 236.451 333.25 263.064 333.25C289.677 333.25 311.245 333.359 311.245 333.507Z" fill="#455A64"/>
<path d="M148.655 305.212C148.655 305.351 135.794 305.47 119.964 305.47C104.135 305.47 91.2734 305.351 91.2734 305.212C91.2734 305.074 104.135 304.955 119.964 304.955C135.794 304.955 148.655 305.064 148.655 305.212Z" fill="#455A64"/>
<path d="M148.655 312.384C148.655 312.533 135.794 312.641 119.964 312.641C104.135 312.641 91.2734 312.533 91.2734 312.384C91.2734 312.236 104.135 312.127 119.964 312.127C135.794 312.127 148.655 312.206 148.655 312.384Z" fill="#455A64"/>
<path d="M148.655 319.568C148.655 319.706 135.794 319.825 119.964 319.825C104.135 319.825 91.2734 319.706 91.2734 319.568C91.2734 319.429 104.135 319.311 119.964 319.311C135.794 319.311 148.655 319.429 148.655 319.568Z" fill="#455A64"/>
<path d="M148.655 326.74C148.655 326.888 135.794 326.997 119.964 326.997C104.135 326.997 91.2734 326.888 91.2734 326.74C91.2734 326.591 104.135 326.482 119.964 326.482C135.794 326.482 148.655 326.601 148.655 326.74Z" fill="#455A64"/>
<path d="M148.655 333.972C148.655 334.111 135.794 334.229 119.964 334.229C104.135 334.229 91.2734 334.111 91.2734 333.972C91.2734 333.834 104.135 333.715 119.964 333.715C135.794 333.715 148.655 333.784 148.655 333.972Z" fill="#455A64"/>
<path d="M148.656 218.754H89.5625V275.928H148.656V218.754Z" fill="#E0E0E0"/>
<path d="M94.1426 271.031L110.496 241.607L123.862 260.415L131.995 250.432L144.075 271.031H94.1426Z" fill="#EE4248"/>
<path d="M129.561 235.889C129.561 236.73 129.312 237.553 128.844 238.252C128.377 238.952 127.712 239.497 126.935 239.819C126.158 240.141 125.302 240.226 124.477 240.061C123.652 239.897 122.894 239.492 122.299 238.897C121.704 238.302 121.299 237.544 121.134 236.719C120.97 235.894 121.055 235.038 121.377 234.261C121.699 233.484 122.244 232.819 122.943 232.352C123.643 231.884 124.466 231.635 125.307 231.635C126.435 231.635 127.517 232.083 128.315 232.881C129.113 233.679 129.561 234.761 129.561 235.889V235.889Z" fill="#EE4248"/>
<path d="M144.075 271.188C144.071 271.112 144.071 271.036 144.075 270.961C144.075 270.783 144.075 270.565 144.075 270.288C144.075 269.684 144.075 268.824 144.075 267.716C144.075 265.45 144.075 262.175 144.006 258.01C144.006 249.66 143.936 237.768 143.887 223.482L144.124 223.729H94.2019C94.1327 223.789 94.7263 223.195 94.4789 223.452V236.314C94.4789 240.509 94.4789 244.624 94.4789 248.631C94.4789 256.635 94.4789 264.203 94.4789 271.168L94.2316 270.931L130.333 271.05L140.523 271.119H143.224H144.164C144.164 271.119 144.095 271.119 143.946 271.119H143.273H140.622L130.491 271.188L94.2316 271.307H93.9941V271.06C93.9941 264.134 93.9941 256.526 93.9941 248.522C93.9941 244.516 93.9941 240.4 93.9941 236.205V223.344L94.2811 223.057H144.203H144.451V223.294C144.451 237.64 144.352 249.581 144.322 257.971C144.322 262.116 144.322 265.371 144.263 267.627C144.263 268.715 144.263 269.556 144.263 270.159C144.263 270.426 144.263 270.634 144.263 270.793C144.263 270.951 144.085 271.198 144.075 271.188Z" fill="#455A64"/>
<path d="M207.482 301.719H165.662V342.183H207.482V301.719Z" fill="#E0E0E0"/>
<path d="M168.908 338.72L180.474 317.904L189.942 331.211L195.69 324.137L204.248 338.72H168.908Z" fill="#EE4248"/>
<path d="M193.967 313.849C193.967 314.436 193.793 315.01 193.467 315.498C193.141 315.986 192.677 316.366 192.135 316.591C191.593 316.816 190.996 316.874 190.42 316.76C189.845 316.645 189.316 316.363 188.901 315.948C188.485 315.533 188.203 315.004 188.088 314.428C187.974 313.852 188.033 313.255 188.257 312.713C188.482 312.171 188.862 311.707 189.35 311.381C189.838 311.055 190.412 310.881 190.999 310.881C191.786 310.881 192.541 311.194 193.098 311.75C193.655 312.307 193.967 313.062 193.967 313.849Z" fill="#EE4248"/>
<path d="M204.247 338.839C204.244 338.783 204.244 338.727 204.247 338.671C204.247 338.552 204.247 338.394 204.247 338.196C204.247 337.77 204.247 337.206 204.247 336.375C204.247 334.773 204.247 332.418 204.198 329.5C204.198 323.563 204.198 315.174 204.119 305.073L204.287 305.241H168.947C168.947 305.241 169.323 304.865 169.145 305.053V322.861C169.145 328.53 169.145 333.882 169.145 338.819L168.967 338.641L194.522 338.73L201.724 338.78H203.634H201.754H194.591L168.928 338.869H168.759V338.7C168.759 333.754 168.759 328.411 168.759 322.742C168.759 319.913 168.759 316.994 168.759 314.026V304.964C168.581 305.132 168.997 304.707 168.957 304.756H204.297H204.465V304.924C204.465 315.075 204.396 323.524 204.376 329.47C204.376 332.438 204.376 334.703 204.376 336.296C204.376 337.068 204.376 337.662 204.376 338.087C204.376 338.275 204.376 338.423 204.376 338.542C204.353 338.648 204.309 338.749 204.247 338.839Z" fill="#455A64"/>
<path d="M556.689 360.687L546.796 359.509L544.471 378.05L558.945 379.92L559.162 378.782C560.092 373.697 563.506 352.881 562.892 349.329C562.21 345.372 556.689 360.687 556.689 360.687Z" fill="#EE4248"/>
<path d="M562.032 348.002C562.211 348.002 561.528 354.987 560.509 363.545C559.49 372.102 558.53 379.028 558.352 379.008C558.174 378.988 558.867 372.083 559.876 363.465C560.885 354.848 561.854 347.982 562.032 348.002Z" fill="#263238"/>
<path d="M558.748 359.816C558.649 359.955 558.135 359.757 557.66 359.302C557.185 358.847 556.987 358.312 557.125 358.223C557.264 358.134 557.679 358.421 558.115 358.847C558.55 359.272 558.857 359.697 558.748 359.816Z" fill="#263238"/>
<path d="M559.539 358.706C559.459 358.865 558.876 358.706 558.302 358.271C557.728 357.836 557.412 357.282 557.54 357.183C557.669 357.084 558.154 357.351 558.688 357.757C559.222 358.162 559.628 358.548 559.539 358.706Z" fill="#263238"/>
<path d="M558.955 373.408C558.955 373.487 558.708 373.734 558.213 374.091C557.585 374.519 556.998 375.006 556.462 375.545C555.956 376.081 555.589 376.733 555.394 377.445C555.255 377.999 555.295 378.365 555.196 378.384C555.097 378.404 554.919 378.038 554.949 377.395C555.018 376.551 555.366 375.754 555.938 375.129C556.504 374.539 557.175 374.059 557.917 373.715C558.54 373.438 558.906 373.329 558.955 373.408Z" fill="#263238"/>
<path d="M556.898 359.538C557.056 359.468 557.373 359.835 557.492 360.379C557.61 360.923 557.492 361.368 557.314 361.368C557.135 361.368 556.977 360.972 556.868 360.487C556.76 360.003 556.73 359.607 556.898 359.538Z" fill="#263238"/>
<path d="M555.907 359.697C556.075 359.697 556.164 360.212 556.105 360.845C556.045 361.478 555.838 361.953 555.669 361.913C555.501 361.874 555.402 361.369 555.472 360.776C555.541 360.182 555.729 359.697 555.907 359.697Z" fill="#263238"/>
<path d="M550.654 379.524L495.815 373.964L382.1 376.506L412.334 352.129L488.227 348.488L554.582 357.63L550.654 379.524Z" fill="#263238"/>
<path d="M457.964 364.296C457.964 364.445 447.289 364.554 434.12 364.554C420.952 364.554 410.287 364.445 410.287 364.296C410.287 364.148 420.952 364.039 434.12 364.039C447.289 364.039 457.964 364.158 457.964 364.296Z" fill="#455A64"/>
<path d="M452.66 350.189L456.558 374.715H464.038L458.349 349.922L452.66 350.189Z" fill="black"/>
<path d="M481.608 375.042L480.5 365.148L461.91 367.127L463.345 381.611H464.502C469.667 381.354 490.71 379.949 494.024 378.544C497.764 376.932 481.608 375.042 481.608 375.042Z" fill="#EE4248"/>
<path d="M494.411 377.504C494.411 377.682 487.485 378.602 478.927 379.562C470.37 380.522 463.405 381.155 463.385 380.977C463.365 380.799 470.31 379.888 478.858 378.929C487.406 377.969 494.391 377.366 494.411 377.504Z" fill="#263238"/>
<path d="M482.142 377.031C481.974 376.962 482.053 376.417 482.389 375.854C482.726 375.29 483.191 374.973 483.319 375.082C483.448 375.191 483.25 375.666 482.943 376.18C482.637 376.694 482.32 377.1 482.142 377.031Z" fill="#263238"/>
<path d="M483.418 377.505C483.25 377.505 483.27 376.861 483.567 376.199C483.864 375.536 484.299 375.12 484.447 375.209C484.596 375.298 484.447 375.833 484.151 376.446C483.854 377.059 483.587 377.594 483.418 377.505Z" fill="#263238"/>
<path d="M468.964 380.314C468.904 380.374 468.588 380.146 468.133 379.75C467.573 379.237 466.967 378.776 466.322 378.375C465.684 378.004 464.963 377.796 464.225 377.772C463.661 377.772 463.305 377.88 463.235 377.772C463.166 377.663 463.503 377.425 464.156 377.307C465.006 377.186 465.872 377.361 466.609 377.801C467.312 378.224 467.929 378.774 468.43 379.424C468.845 379.928 469.033 380.255 468.964 380.314Z" fill="#263238"/>
<path d="M482.004 375.16C482.113 375.298 481.826 375.684 481.321 375.931C480.817 376.179 480.332 376.159 480.332 375.991C480.332 375.822 480.639 375.575 481.084 375.357C481.529 375.14 481.905 375.011 482.004 375.16Z" fill="#263238"/>
<path d="M481.609 374.231C481.609 374.409 481.164 374.607 480.54 374.686C479.917 374.765 479.403 374.686 479.393 374.508C479.383 374.33 479.868 374.132 480.461 374.053C481.055 373.974 481.569 374.063 481.609 374.231Z" fill="#263238"/>
<path d="M372.84 261.87L388.67 261.583C388.888 259.752 389.194 252.619 389.194 252.619C389.194 252.619 395.823 251.996 396.308 245.446C396.792 238.897 396.585 223.74 396.585 223.74C392.952 221.907 388.896 221.076 384.835 221.333C380.774 221.59 376.855 222.927 373.483 225.204L372.494 225.897L372.84 261.87Z" fill="#B78876"/>
<path d="M394.397 234.931C394.225 234.747 394.129 234.505 394.129 234.253C394.129 234.001 394.225 233.759 394.397 233.575C394.533 233.431 394.709 233.331 394.903 233.287C395.096 233.244 395.298 233.26 395.483 233.333C395.667 233.406 395.825 233.533 395.937 233.697C396.048 233.861 396.108 234.055 396.108 234.253C396.108 234.451 396.048 234.645 395.937 234.809C395.825 234.973 395.667 235.1 395.483 235.173C395.298 235.246 395.096 235.262 394.903 235.219C394.709 235.175 394.533 235.075 394.397 234.931Z" fill="#263238"/>
<path d="M396.069 233.525C395.961 233.634 395.347 233.1 394.447 233.041C393.547 232.981 392.854 233.407 392.765 233.288C392.676 233.169 392.834 233.031 393.131 232.833C393.535 232.579 394.01 232.461 394.486 232.496C394.961 232.526 395.413 232.71 395.773 233.021C396.069 233.268 396.139 233.476 396.069 233.525Z" fill="#263238"/>
<path d="M385.622 233.675C385.763 233.842 385.845 234.052 385.855 234.271C385.864 234.491 385.8 234.707 385.673 234.886C385.547 235.065 385.364 235.196 385.154 235.26C384.944 235.324 384.719 235.316 384.514 235.238C384.373 235.184 384.246 235.099 384.143 234.988C384.04 234.878 383.964 234.746 383.92 234.601C383.876 234.457 383.866 234.304 383.89 234.155C383.914 234.006 383.972 233.865 384.059 233.741C384.146 233.618 384.261 233.517 384.393 233.445C384.526 233.372 384.673 233.332 384.824 233.325C384.975 233.319 385.125 233.347 385.264 233.407C385.402 233.468 385.524 233.56 385.622 233.675Z" fill="#263238"/>
<path d="M386.177 233.713C386.068 233.822 385.454 233.288 384.544 233.228C383.634 233.169 382.961 233.595 382.862 233.476C382.763 233.357 382.932 233.219 383.238 233.021C383.642 232.766 384.116 232.648 384.592 232.684C385.067 232.72 385.519 232.907 385.88 233.219C386.177 233.456 386.266 233.674 386.177 233.713Z" fill="#263238"/>
<path d="M389.381 241.401C389.857 241.245 390.355 241.171 390.856 241.183C391.093 241.183 391.291 241.124 391.311 241.005C391.335 240.767 391.29 240.527 391.182 240.313L390.579 238.433C389.998 236.83 389.58 235.173 389.332 233.486C390.075 235.015 390.659 236.616 391.073 238.265C391.271 238.918 391.449 239.541 391.637 240.155C391.772 240.467 391.797 240.816 391.706 241.144C391.666 241.232 391.605 241.31 391.53 241.372C391.454 241.434 391.366 241.478 391.271 241.5C391.137 241.518 391 241.518 390.866 241.5C390.369 241.549 389.867 241.516 389.381 241.401V241.401Z" fill="#263238"/>
<path d="M386.384 242.222C385.474 241.599 388.887 243.756 390.737 243.776C390.4 244.232 389.918 244.561 389.371 244.71C388.823 244.859 388.242 244.819 387.719 244.597C385.8 243.756 386.384 242.222 386.384 242.222Z" fill="white"/>
<path d="M389.234 252.521C386.198 252.388 383.271 251.354 380.824 249.553C380.824 249.553 382.556 254.401 389.145 254.213L389.234 252.521Z" fill="#A36957"/>
<path d="M397.058 221.376C397.435 221.364 397.803 221.265 398.135 221.088C398.468 220.911 398.755 220.66 398.975 220.355C399.195 220.05 399.342 219.698 399.405 219.327C399.468 218.955 399.446 218.575 399.339 218.214C399.231 217.853 399.043 217.521 398.788 217.244C398.533 216.968 398.218 216.753 397.867 216.617C397.516 216.481 397.138 216.427 396.763 216.46C396.388 216.493 396.025 216.611 395.703 216.806C396.489 216.158 397.13 215.353 397.583 214.441C397.801 213.983 397.873 213.469 397.79 212.968C397.707 212.467 397.472 212.004 397.118 211.641C396.705 211.357 396.223 211.191 395.723 211.16C395.223 211.128 394.724 211.233 394.278 211.463C392.883 212.067 391.785 213.244 390.321 213.739C388.857 214.233 387.294 213.986 385.76 214.055C384.051 214.088 382.396 214.659 381.031 215.688C380.359 216.207 379.819 216.877 379.453 217.643C379.087 218.41 378.906 219.251 378.924 220.1C376.777 219.843 374.402 219.813 372.711 221.149C372.03 221.755 371.492 222.503 371.134 223.341C370.777 224.179 370.609 225.086 370.643 225.997C370.808 227.815 371.241 229.598 371.929 231.29V231.29C372.049 231.785 372.271 232.25 372.582 232.655L373.383 237.364L376.302 237.305L376.114 227.51C376.114 227.51 375.817 223.375 379.379 223.741C382.94 224.107 387.759 228.114 394.674 227.095C395.805 227.035 396.907 226.721 397.899 226.175C398.38 225.872 398.771 225.447 399.032 224.942C399.293 224.438 399.414 223.873 399.383 223.306C399.323 222.745 399.047 222.229 398.613 221.869C398.178 221.509 397.621 221.332 397.058 221.376V221.376Z" fill="#263238"/>
<path d="M373.749 231.715C373.601 231.665 368.871 231.052 369.317 236.662C369.762 242.271 375.253 239.946 375.253 239.788C375.253 239.63 373.749 231.715 373.749 231.715Z" fill="#B78876"/>
<path d="M373.393 237.938C373.393 237.938 373.294 238.007 373.136 238.096C372.914 238.213 372.655 238.242 372.413 238.176C372.036 237.975 371.718 237.678 371.492 237.315C371.266 236.952 371.14 236.535 371.127 236.108C371.071 235.63 371.125 235.146 371.285 234.693C371.323 234.513 371.404 234.345 371.521 234.204C371.638 234.063 371.788 233.952 371.958 233.882C372.068 233.844 372.188 233.846 372.296 233.888C372.405 233.929 372.495 234.008 372.552 234.109C372.641 234.258 372.611 234.367 372.641 234.376C372.671 234.386 372.76 234.278 372.69 234.05C372.652 233.911 372.564 233.791 372.443 233.714C372.363 233.662 372.274 233.626 372.181 233.609C372.087 233.592 371.992 233.594 371.899 233.615C371.662 233.679 371.446 233.804 371.272 233.977C371.099 234.151 370.974 234.367 370.909 234.604C370.707 235.105 370.635 235.65 370.702 236.187C370.712 236.685 370.87 237.169 371.156 237.577C371.441 237.986 371.841 238.301 372.304 238.482C372.458 238.515 372.617 238.512 372.77 238.475C372.922 238.437 373.064 238.365 373.185 238.265C373.393 238.067 373.413 237.948 373.393 237.938Z" fill="#A36957"/>
<path d="M359.998 359.697C362.966 364.12 380.962 391.208 402.451 371.51C429.826 346.44 451.473 324.477 451.473 324.477L459.605 374.092L485.091 372.707C485.091 372.707 475.197 298.833 468.885 292.115C461.871 284.616 455.42 285.249 400.334 328.721L359.998 359.697Z" fill="#455A64"/>
<path d="M451.156 275.562L474.96 258.189L476.127 260.059L452.482 277.64L451.156 275.562Z" fill="#263238"/>
<path d="M457.043 275.028C457.043 275.028 460.229 266.718 461 264.947C461.772 263.176 462.93 260.089 463.385 260C463.84 259.911 465.502 260.198 463.385 265.481C461.267 270.764 465.957 267.539 465.957 267.539L470.538 264.254C470.538 264.254 474.159 275.078 472.101 278.342C470.483 280.78 468.666 283.08 466.669 285.218L457.043 275.028Z" fill="#B78876"/>
<path d="M457.31 274.059C456.835 272.98 426.561 299.713 420.536 300.623L402.886 277.64C402.886 277.64 399.225 271.823 391.36 261.87C386.275 255.449 372.266 256.785 368.605 264.611C362.352 277.907 362.273 292.688 358.939 321.448L357.485 340.899C357.171 345.038 357.234 349.197 357.673 353.325C358.207 358.143 359.295 363.219 361.531 362.496L401.906 329.126L403.202 313.969C411.691 322.576 414.333 324.377 418.745 323.684C429.855 321.963 468.747 286.99 468.747 286.99C468.747 286.99 457.775 275.147 457.31 274.059Z" fill="#EE4248"/>
<path d="M463.533 291.848C462.745 291.374 462.018 290.805 461.367 290.156C459.712 288.679 458.162 287.088 456.727 285.397C455.282 283.712 453.96 281.927 452.769 280.055C452.239 279.3 451.791 278.491 451.434 277.641C452.033 278.334 452.579 279.071 453.066 279.847C454.055 281.222 455.44 283.102 457.112 285.061C458.784 287.02 460.407 288.702 461.614 289.889C462.299 290.496 462.94 291.15 463.533 291.848V291.848Z" fill="#263238"/>
<path d="M418.824 309.735C418.84 308.186 419.026 306.643 419.378 305.134C419.572 303.597 419.93 302.084 420.447 300.623C420.431 302.172 420.245 303.715 419.893 305.223C419.7 306.761 419.342 308.274 418.824 309.735V309.735Z" fill="#263238"/>
<path d="M422.683 308.786C422.071 307.528 421.619 306.198 421.337 304.828C420.9 303.503 420.618 302.132 420.496 300.742C421.107 302 421.559 303.33 421.842 304.7C422.277 306.025 422.559 307.396 422.683 308.786V308.786Z" fill="#263238"/>
<path d="M378.973 281.678C379.335 282.077 379.666 282.504 379.962 282.954L382.594 286.535C384.82 289.553 387.926 293.708 391.399 298.249L400.352 309.864L403.053 313.396C403.419 313.814 403.75 314.26 404.043 314.732C403.646 314.355 403.279 313.948 402.944 313.515C402.262 312.713 401.302 311.536 400.115 310.092C397.75 307.173 394.515 303.117 391.043 298.566C387.57 294.015 384.503 289.82 382.356 286.743C381.278 285.21 380.378 283.953 379.843 283.073C379.516 282.632 379.225 282.165 378.973 281.678Z" fill="#263238"/>
<path d="M373.809 301.226C372.763 300.633 371.807 299.893 370.97 299.03C370.019 298.286 369.177 297.414 368.467 296.438C369.519 297.03 370.479 297.774 371.316 298.644C372.269 299.377 373.109 300.248 373.809 301.226V301.226Z" fill="#263238"/>
<path d="M370.346 312.377C369.314 314.515 367.981 316.493 366.389 318.254C366.824 317.143 367.421 316.103 368.16 315.167C368.751 314.137 369.488 313.198 370.346 312.377V312.377Z" fill="#263238"/>
<path d="M375.214 327.761C375.105 327.85 374.225 326.959 373.236 325.782C372.569 325.111 372.026 324.327 371.633 323.467C371.742 323.378 372.622 324.268 373.612 325.446C374.28 326.115 374.823 326.9 375.214 327.761V327.761Z" fill="#263238"/>
<path d="M365.795 337.625C365.171 338.356 364.42 338.97 363.579 339.435C362.833 340.041 361.985 340.509 361.076 340.821C361.7 340.089 362.451 339.476 363.292 339.01C364.039 338.405 364.886 337.936 365.795 337.625V337.625Z" fill="#263238"/>
<path d="M378.964 340.236C377.915 339.779 377.007 339.052 376.332 338.129C375.529 337.303 374.959 336.279 374.68 335.161C374.818 335.092 375.54 336.398 376.718 337.773C377.895 339.148 379.053 340.108 378.964 340.236Z" fill="#263238"/>
<path d="M391.242 330.916C390.519 331.862 389.666 332.701 388.709 333.409C387.857 334.241 386.891 334.947 385.84 335.507C386.562 334.56 387.415 333.721 388.373 333.013C389.222 332.179 390.189 331.473 391.242 330.916V330.916Z" fill="#263238"/>
<path d="M365.973 348.912C364.282 348.136 362.939 346.762 362.203 345.053C362.322 344.974 363.064 345.924 364.103 346.973C365.141 348.021 366.062 348.813 365.973 348.912Z" fill="#263238"/>
<path d="M393.428 322.102C391.728 323.074 389.768 323.496 387.818 323.309C389.667 322.814 391.539 322.411 393.428 322.102V322.102Z" fill="#263238"/>
<path d="M384.285 311.703C384.081 312.909 383.749 314.089 383.296 315.225C382.974 316.367 382.587 317.49 382.139 318.589H382.03C382.03 318.53 382.089 318.51 382.109 318.51C382.129 318.51 382.109 318.51 382.109 318.619H382C382.116 317.431 382.375 316.262 382.772 315.136C383.074 313.913 383.586 312.751 384.285 311.703V311.703Z" fill="#263238"/>
<path d="M388.154 305.105C387.08 304.656 386.08 304.049 385.186 303.304C384.205 302.699 383.321 301.948 382.564 301.078C383.618 301.536 384.601 302.142 385.483 302.879C386.48 303.483 387.38 304.233 388.154 305.105V305.105Z" fill="#263238"/>
<path d="M380.239 290.561C379.94 291.542 379.441 292.452 378.775 293.232C378.239 294.106 377.533 294.863 376.697 295.458C377.14 294.546 377.699 293.695 378.359 292.925C378.876 292.056 379.508 291.26 380.239 290.561Z" fill="#263238"/>
<path d="M368.189 288.582C368.023 287.47 368.023 286.34 368.189 285.228C368.201 284.106 368.381 282.992 368.723 281.924C368.901 283.031 368.901 284.16 368.723 285.268C368.72 286.394 368.54 287.512 368.189 288.582V288.582Z" fill="#263238"/>
<path d="M363.491 310.388C363.222 309.204 363.116 307.99 363.174 306.777C363.074 305.57 363.14 304.355 363.372 303.166C363.755 305.556 363.795 307.987 363.491 310.388Z" fill="#263238"/>
<path d="M362.837 331.303C362.388 330.662 362.088 329.929 361.957 329.156C361.665 328.431 361.53 327.652 361.561 326.871C362.316 328.233 362.752 329.748 362.837 331.303V331.303Z" fill="#263238"/>
<path d="M379.498 272.268C378.712 273.169 377.859 274.009 376.945 274.781C376.154 275.678 375.291 276.508 374.363 277.264C374.901 276.171 375.659 275.201 376.589 274.414C377.398 273.503 378.389 272.771 379.498 272.268V272.268Z" fill="#263238"/>
<path d="M372.424 269.903C372.21 268.824 372.17 267.719 372.305 266.628C372.265 265.529 372.399 264.43 372.701 263.373C372.909 264.452 372.949 265.557 372.82 266.648C372.854 267.747 372.72 268.844 372.424 269.903V269.903Z" fill="#263238"/>
<path d="M389.757 267.549C387.897 266.425 386.101 265.2 384.375 263.879C386.457 264.615 388.312 265.88 389.757 267.549Z" fill="#263238"/>
<path d="M385.988 279.896C385.714 278.764 385.604 277.597 385.662 276.434C385.555 275.273 385.618 274.103 385.85 272.961C386.237 275.25 386.284 277.584 385.988 279.886V279.896Z" fill="#263238"/>
<path d="M396.139 287.118C394.143 286.72 392.163 286.245 390.203 285.693C392.279 285.567 394.346 286.063 396.139 287.118V287.118Z" fill="#263238"/>
<path d="M396.83 279.757C396.481 277.83 396.481 275.856 396.83 273.93C397.09 274.876 397.188 275.86 397.117 276.838C397.195 277.821 397.098 278.809 396.83 279.757V279.757Z" fill="#263238"/>
<path d="M404.568 292.115C404.253 290.918 404.11 289.682 404.143 288.444C404.007 287.215 404.04 285.974 404.241 284.754C404.686 287.181 404.796 289.658 404.568 292.115V292.115Z" fill="#263238"/>
<path d="M398.622 296.29C398.513 296.389 397.712 295.657 396.831 294.667C395.951 293.678 395.317 292.788 395.426 292.689C395.535 292.59 396.336 293.322 397.217 294.321C398.097 295.32 398.731 296.201 398.622 296.29Z" fill="#263238"/>
<path d="M406.14 301.987C405.207 302.305 404.227 302.466 403.241 302.462C402.26 302.634 401.255 302.634 400.273 302.462C401.201 302.134 402.179 301.973 403.162 301.987C404.146 301.804 405.156 301.804 406.14 301.987V301.987Z" fill="#263238"/>
<path d="M411.8 304.877C411.381 302.73 411.298 300.53 411.552 298.357C411.983 300.503 412.067 302.705 411.8 304.877Z" fill="#263238"/>
<path d="M417.381 315.71C416.194 315.937 414.976 315.937 413.789 315.71C412.583 315.663 411.398 315.384 410.297 314.889C411.488 314.884 412.677 314.99 413.849 315.205C415.04 315.256 416.223 315.425 417.381 315.71V315.71Z" fill="#263238"/>
<path d="M426.976 310.715C426.568 312.962 425.82 315.133 424.76 317.155C424.876 316.023 425.166 314.915 425.62 313.871C425.903 312.754 426.361 311.689 426.976 310.715V310.715Z" fill="#263238"/>
<path d="M433.891 301.969C431.834 301.753 429.828 301.195 427.955 300.316C430.01 300.544 432.014 301.102 433.891 301.969V301.969Z" fill="#263238"/>
<path d="M439.452 305.283C438.864 306.144 438.139 306.902 437.306 307.529C436.581 308.279 435.743 308.91 434.822 309.399C435.405 308.531 436.131 307.768 436.969 307.143C437.693 306.395 438.531 305.767 439.452 305.283V305.283Z" fill="#263238"/>
<path d="M441.678 297.1C441.13 296.122 440.793 295.04 440.688 293.924C440.404 292.832 440.357 291.692 440.55 290.58C440.865 291.643 441.08 292.732 441.193 293.835C441.456 294.906 441.619 295.999 441.678 297.1V297.1Z" fill="#263238"/>
<path d="M452.263 295.221C450.228 297.252 448.17 299.261 446.09 301.246C447.661 298.793 449.773 296.732 452.263 295.221V295.221Z" fill="#263238"/>
<path d="M453.313 291.432C452.177 291.272 451.072 290.938 450.038 290.443C448.94 290.12 447.899 289.629 446.951 288.988C448.083 289.153 449.183 289.486 450.216 289.978C451.314 290.307 452.358 290.797 453.313 291.432Z" fill="#263238"/>
<path d="M452.304 287.366C451.8 286.545 451.449 285.64 451.265 284.695C450.919 283.794 450.734 282.84 450.721 281.875C451.207 282.7 451.542 283.604 451.71 284.546C452.067 285.445 452.268 286.399 452.304 287.366Z" fill="#263238"/>
<path d="M396.92 315.869C396.801 315.958 395.93 314.978 395.06 313.692C394.433 312.962 393.943 312.124 393.615 311.219C394.36 311.828 394.99 312.565 395.475 313.395C396.093 314.132 396.582 314.968 396.92 315.869V315.869Z" fill="#263238"/>
<path d="M472.349 365.711C472.307 365.573 472.28 365.43 472.27 365.286C472.23 364.989 472.171 364.573 472.091 364.039C471.953 362.921 471.735 361.309 471.468 359.251C470.904 355.095 470.103 349.07 468.906 341.66C467.709 334.25 466.116 325.455 463.85 315.799C463.618 314.586 463.222 313.412 462.673 312.306C462.051 311.216 461.248 310.239 460.298 309.417C458.283 307.749 455.707 306.914 453.096 307.083C451.764 307.157 450.463 307.511 449.277 308.121C448.086 308.793 446.951 309.561 445.884 310.417L439.077 315.472C429.916 322.348 421.338 329.086 413.681 335.408C406.023 341.729 399.345 347.646 393.755 352.662C390.926 355.095 387.908 357.044 384.851 357.361C383.449 357.52 382.029 357.347 380.706 356.857C379.605 356.441 378.569 355.872 377.629 355.165C376.342 354.186 375.15 353.09 374.067 351.89L373.226 350.96C373.124 350.857 373.031 350.744 372.949 350.624C373.063 350.71 373.166 350.81 373.256 350.92L374.136 351.821C375.25 352.981 376.458 354.047 377.748 355.006C378.683 355.681 379.704 356.227 380.785 356.629C382.078 357.088 383.46 357.241 384.821 357.074C387.789 356.748 390.757 354.818 393.528 352.385C399.078 347.349 405.736 341.363 413.394 335.041C421.051 328.72 429.609 321.933 438.78 315.057L445.587 310.001C446.68 309.131 447.841 308.35 449.059 307.666C450.306 307.023 451.675 306.652 453.076 306.578C455.815 306.405 458.516 307.287 460.625 309.041C461.624 309.9 462.465 310.929 463.108 312.079C463.675 313.222 464.084 314.437 464.325 315.69C466.571 325.376 468.114 334.191 469.272 341.601C470.429 349.011 471.171 355.056 471.676 359.221C471.903 361.289 472.082 362.901 472.21 364.029C472.21 364.563 472.299 365.019 472.329 365.286C472.349 365.427 472.355 365.569 472.349 365.711V365.711Z" fill="#263238"/>
<path d="M483.903 365.158C483.582 365.257 483.249 365.31 482.913 365.317C482.27 365.386 481.34 365.465 480.193 365.544C477.887 365.702 474.712 365.871 471.199 366.019L462.206 366.405L459.476 366.504C459.147 366.542 458.815 366.542 458.486 366.504C458.806 366.399 459.139 366.339 459.476 366.326C460.119 366.247 461.049 366.158 462.196 366.059C464.502 365.871 467.677 365.683 471.189 365.524L480.193 365.198L482.923 365.139C483.249 365.105 483.578 365.111 483.903 365.158V365.158Z" fill="#263238"/>
<path d="M458.547 316.739C456.294 320.406 453.359 323.607 449.9 326.167C449.801 326.049 451.879 324.119 454.293 321.517C456.707 318.915 458.398 316.65 458.547 316.739Z" fill="#263238"/>
<path d="M459.505 319.746C458.171 320.764 456.762 321.68 455.291 322.487C453.907 323.447 452.452 324.301 450.938 325.039C452.162 323.877 453.532 322.879 455.014 322.071C456.404 321.106 457.914 320.324 459.505 319.746V319.746Z" fill="#263238"/>
<path d="M542.859 367.71C542.658 367.732 542.456 367.732 542.256 367.71L540.514 367.611L534.182 367.007L513.317 364.831C505.165 363.98 497.804 363.03 492.452 362.763C489.781 362.625 487.604 362.635 486.11 362.694L484.389 362.763C484.185 362.789 483.979 362.789 483.775 362.763C483.974 362.714 484.175 362.681 484.379 362.664C484.765 362.605 485.368 362.555 486.1 362.486C488.221 362.347 490.348 362.317 492.472 362.397C497.854 362.575 505.224 363.466 513.367 364.316L534.232 366.622L540.554 367.383L542.265 367.611C542.467 367.62 542.666 367.654 542.859 367.71V367.71Z" fill="#455A64"/>
<path d="M541.601 378.772C541.463 378.772 541.908 373.825 542.591 367.682C543.273 361.538 543.966 356.64 544.105 356.66C544.243 356.68 543.798 361.607 543.115 367.741C542.433 373.875 541.74 378.782 541.601 378.772Z" fill="#455A64"/>
</svg>
