<svg width="453" height="430" viewBox="0 0 453 430" fill="none" xmlns="http://www.w3.org/2000/svg">
<path d="M303.834 312.855C302.47 311.343 305.688 302.508 320.959 301.882C336.231 301.257 342.348 306.817 342.371 312.855C342.382 315.527 303.834 312.855 303.834 312.855Z" fill="#455A64"/>
<path d="M296.296 81.7058L279.33 186.626H434.272L452.943 80.5801L296.296 81.7058Z" fill="#F5F5F5"/>
<path d="M294.748 91.2461C294.816 90.8822 451.168 90.6548 451.168 90.6548L452.942 80.5801L296.294 81.7172L294.748 91.2689" fill="#E0E0E0"/>
<path d="M302.845 86.425C302.847 86.7111 302.765 86.9914 302.607 87.2304C302.45 87.4693 302.225 87.6562 301.962 87.7673C301.698 87.8783 301.407 87.9085 301.126 87.8541C300.846 87.7997 300.587 87.663 300.384 87.4615C300.181 87.26 300.042 87.0027 299.986 86.7223C299.929 86.4419 299.957 86.1509 300.066 85.8864C300.175 85.6218 300.36 85.3956 300.598 85.2364C300.835 85.0772 301.115 84.9922 301.401 84.9922C301.59 84.9907 301.778 85.0267 301.953 85.098C302.128 85.1693 302.287 85.2746 302.422 85.4078C302.556 85.541 302.662 85.6995 302.735 85.8741C302.808 86.0486 302.845 86.2359 302.845 86.425Z" fill="#263238"/>
<path d="M309.895 86.4249C309.895 86.7083 309.811 86.9853 309.653 87.2209C309.496 87.4565 309.272 87.6402 309.01 87.7486C308.749 87.8571 308.46 87.8854 308.183 87.8302C307.905 87.7749 307.649 87.6384 307.449 87.438C307.249 87.2377 307.112 86.9824 307.057 86.7045C307.002 86.4265 307.03 86.1384 307.138 85.8766C307.247 85.6148 307.43 85.3911 307.666 85.2336C307.902 85.0762 308.179 84.9922 308.462 84.9922C308.842 84.9922 309.206 85.1431 309.475 85.4118C309.744 85.6805 309.895 86.0449 309.895 86.4249Z" fill="#263238"/>
<path d="M316.957 86.425C316.959 86.7111 316.876 86.9914 316.719 87.2304C316.561 87.4693 316.337 87.6562 316.073 87.7673C315.809 87.8783 315.519 87.9085 315.238 87.8541C314.957 87.7997 314.698 87.663 314.495 87.4615C314.292 87.26 314.154 87.0027 314.097 86.7223C314.04 86.4419 314.068 86.1509 314.177 85.8864C314.286 85.6218 314.471 85.3956 314.709 85.2364C314.947 85.0772 315.226 84.9922 315.512 84.9922C315.702 84.9907 315.889 85.0267 316.064 85.098C316.239 85.1693 316.399 85.2746 316.533 85.4078C316.667 85.541 316.774 85.6995 316.846 85.8741C316.919 86.0486 316.957 86.2359 316.957 86.425V86.425Z" fill="#263238"/>
<path d="M334.456 138.379L315.069 160.802C311.408 158.318 308.4 154.988 306.3 151.095C304.199 147.201 303.069 142.859 303.004 138.435C303.004 122.846 317.206 110.008 334.456 110.008C351.706 110.008 365.908 122.834 365.908 138.435L334.456 138.379Z" fill="#EE4248"/>
<path d="M336.947 141.938C336.853 142.096 336.742 142.245 336.617 142.381L335.605 143.586L331.762 148.135C328.419 152.046 323.666 157.573 317.969 164.225V163.861C322.264 166.818 327.226 168.662 332.41 169.228C338.262 169.903 344.188 169.008 349.58 166.635C354.726 164.4 359.171 160.812 362.441 156.254C363.914 154.128 365.096 151.814 365.955 149.374C366.704 147.095 367.158 144.73 367.308 142.335L367.558 142.597L345.384 142.222L339.153 142.085L337.504 142.028C337.311 142.047 337.117 142.047 336.924 142.028C337.106 142.011 337.289 142.011 337.47 142.028H339.096H345.294L367.558 142.176H367.831V142.449C367.702 144.897 367.251 147.317 366.489 149.647C365.625 152.139 364.428 154.503 362.93 156.674C359.599 161.355 355.049 165.032 349.774 167.306C344.282 169.709 338.251 170.612 332.296 169.922C327.025 169.323 321.984 167.424 317.628 164.395L317.4 164.236L317.582 164.02L331.614 148.021L335.537 143.586L336.583 142.449C336.689 142.268 336.811 142.097 336.947 141.938V141.938Z" fill="#263238"/>
<path d="M347.829 123.255C348.802 123.255 349.591 122.466 349.591 121.493C349.591 120.52 348.802 119.73 347.829 119.73C346.855 119.73 346.066 120.52 346.066 121.493C346.066 122.466 346.855 123.255 347.829 123.255Z" fill="#263238"/>
<path d="M384.602 108.598C384.053 108.683 383.497 108.721 382.942 108.712L378.393 108.803C374.584 108.803 369.297 108.894 363.509 108.894H360.734L360.939 108.814C357.289 112.453 354.037 115.637 351.683 117.911L348.897 120.572C348.579 120.917 348.22 121.223 347.828 121.481C348.104 121.103 348.412 120.749 348.749 120.424C349.443 119.685 350.341 118.752 351.41 117.638C353.684 115.284 356.891 112.032 360.507 108.371L360.586 108.291H363.577C369.388 108.291 374.652 108.291 378.462 108.371L383.01 108.473C383.543 108.464 384.077 108.506 384.602 108.598V108.598Z" fill="#263238"/>
<path d="M424.538 130.749C424.545 130.546 424.572 130.344 424.617 130.146C424.686 129.737 424.777 129.18 424.902 128.463L426.039 122.107L430.144 99.2968L430.382 99.581L386.342 99.6379L386.627 99.3991V99.5128V99.6493V99.9108L386.524 100.434L386.331 101.491L385.945 103.584C385.683 104.971 385.433 106.347 385.171 107.711C384.671 110.44 384.174 113.124 383.682 115.762C382.692 121.015 381.749 125.996 380.873 130.783L380.6 130.465L412.325 130.59L421.422 130.669H423.844H424.47H424.697H424.504H423.901H421.524L412.519 130.738L380.68 130.863H380.361L380.418 130.544C381.294 125.803 382.215 120.765 383.193 115.5C383.67 112.874 384.171 110.19 384.671 107.461C384.932 106.085 385.183 104.709 385.444 103.322C385.569 102.628 385.694 101.935 385.831 101.23L386.024 100.184L386.115 99.6606L386.172 99.3877V99.2627V99.1603L386.468 98.9102L430.508 98.967H430.667L430.61 99.2513C428.791 108.769 427.29 116.626 426.243 122.141C425.709 124.836 425.3 126.951 425.004 128.441L424.674 130.067C424.583 130.578 424.538 130.76 424.538 130.749Z" fill="#263238"/>
<path d="M350.593 158.711C351.566 158.711 352.355 157.921 352.355 156.948C352.355 155.975 351.566 155.186 350.593 155.186C349.619 155.186 348.83 155.975 348.83 156.948C348.83 157.921 349.619 158.711 350.593 158.711Z" fill="#263238"/>
<path d="M382.59 156.948C382.59 157.119 375.426 157.244 366.591 157.244C357.756 157.244 350.592 157.119 350.592 156.948C350.592 156.777 357.756 156.652 366.591 156.652C375.426 156.652 382.59 156.789 382.59 156.948Z" fill="#263238"/>
<path d="M424.538 170.685C424.552 170.539 424.578 170.394 424.617 170.253C424.685 169.946 424.776 169.537 424.901 169.025C425.163 167.888 425.538 166.375 426.039 164.397C427.028 160.371 428.438 154.629 430.178 147.568L430.394 147.841L384.978 147.909L385.262 147.693V147.761V147.852V148.045L385.16 148.432L384.966 149.182L384.591 150.706C384.33 151.707 384.079 152.707 383.829 153.708L382.215 159.666C381.237 163.521 380.293 167.251 379.383 170.81L379.122 170.469L411.7 170.594L421.115 170.662H423.639H424.299H424.538H424.333H423.696H421.229L411.859 170.73L379.122 170.856H378.758L378.849 170.503C379.747 166.944 380.68 163.203 381.646 159.348C382.131 157.415 382.628 155.455 383.136 153.469L383.886 150.467L384.273 148.955L384.466 148.193L384.557 147.806V147.625V147.522V147.454L384.841 147.227L430.257 147.306H430.667L430.598 147.579C428.756 154.675 427.267 160.44 426.22 164.476C425.697 166.421 425.288 167.956 425.004 169.025C424.867 169.514 424.765 169.9 424.685 170.162C424.606 170.423 424.538 170.696 424.538 170.685Z" fill="#263238"/>
<path d="M420.955 108.997C420.955 109.167 414.212 109.292 405.889 109.292C397.565 109.292 390.822 109.167 390.822 108.997C390.822 108.826 397.565 108.701 405.889 108.701C414.212 108.701 420.955 108.838 420.955 108.997Z" fill="#263238"/>
<path d="M420.603 113.93C420.603 114.101 413.78 114.226 405.456 114.226C397.133 114.226 390.299 114.101 390.299 113.93C390.299 113.76 397.121 113.635 405.456 113.635C413.791 113.635 420.603 113.771 420.603 113.93Z" fill="#263238"/>
<path d="M419.728 118.729C419.728 118.888 413.179 119.025 405.105 119.025C397.032 119.025 390.471 118.888 390.471 118.729C390.471 118.57 397.02 118.434 405.105 118.434C413.19 118.434 419.728 118.525 419.728 118.729Z" fill="#263238"/>
<path d="M420.251 156.401C420.251 156.56 413.826 156.697 405.889 156.697C397.952 156.697 391.527 156.56 391.527 156.401C391.527 156.242 397.963 156.105 405.889 156.105C413.815 156.105 420.251 156.253 420.251 156.401Z" fill="#263238"/>
<path d="M418.489 161.86C418.489 162.031 413.008 162.156 406.243 162.156C399.477 162.156 393.996 162.031 393.996 161.86C393.996 161.69 399.477 161.564 406.243 161.564C413.008 161.564 418.489 161.701 418.489 161.86Z" fill="#263238"/>
<path d="M235.472 276.105C234.926 279.301 219.757 312.868 229.547 312.868H278.761C278.761 312.868 273.678 308.092 289.063 276.105H235.472Z" fill="#455A64"/>
<path d="M203.633 164.067L183.518 281.621H353.185L373.994 159.939L203.633 164.067Z" fill="#455A64"/>
<path d="M209.398 169.798L192.443 274.73H347.374L366.045 168.684L209.398 169.798Z" fill="#FAFAFA"/>
<path d="M373.994 159.939L377.2 162.1L355.595 284.816H187.998L183.518 281.621H353.185L373.994 159.939Z" fill="#263238"/>
<path d="M207.863 179.35C207.92 178.974 364.272 178.758 364.272 178.758L366.046 168.684L209.398 169.821L207.863 179.372" fill="#EBEBEB"/>
<path d="M322.961 265.415V265.12L323.097 264.244C323.241 263.41 323.435 262.273 323.677 260.833C324.212 257.774 324.962 253.385 325.895 247.938C327.828 236.908 330.523 221.557 333.581 204.137V203.887H346.385L346.328 204.239C341.587 229.926 337.436 252.498 335.037 265.472V265.609H334.912L325.997 265.518H323.723H323.166H323.78H326.133L334.946 265.427L334.787 265.552L345.794 204.273L346.09 204.614H333.9L334.184 204.376C331.034 221.694 328.271 236.942 326.224 247.915C325.224 253.373 324.405 257.774 323.836 260.844C323.552 262.334 323.336 263.505 323.177 264.346C323.097 264.722 323.041 265.029 322.995 265.256C322.986 265.31 322.974 265.363 322.961 265.415V265.415Z" fill="#263238"/>
<path d="M303.311 265.415C303.326 265.139 303.367 264.865 303.436 264.597C303.538 263.994 303.686 263.187 303.868 262.163C304.277 259.969 304.846 256.864 305.562 253.067C307.052 245.186 309.133 234.225 311.509 221.694V221.455H324.313L324.245 221.808C320.651 239.626 317.422 255.466 315.421 265.506V265.654H315.273L306.369 265.552H304.095C303.841 265.569 303.587 265.569 303.333 265.552H304.175H306.54L315.318 265.45L315.136 265.597C317.115 255.545 320.231 239.694 323.733 221.853L324.017 222.206H311.759L312.043 221.978C309.576 234.395 307.415 245.266 305.858 253.078C305.073 256.955 304.448 260.071 303.993 262.266L303.481 264.756C303.481 265.018 303.367 265.234 303.333 265.404L303.311 265.415Z" fill="#263238"/>
<path d="M283.583 265.416C283.573 265.295 283.573 265.173 283.583 265.052L283.765 263.915C283.935 262.914 284.174 261.482 284.492 259.64C285.152 255.876 286.096 250.452 287.278 243.72C289.689 230.075 293.043 211.188 296.841 189.776V189.537H309.645L309.588 189.878C303.652 222.388 298.41 250.713 295.636 265.416V265.541H295.511L286.562 265.45H284.288H283.537H284.344H286.676L295.522 265.37L295.386 265.484C297.978 250.702 303.095 222.399 309.031 189.901L309.327 190.253H297.171L297.455 190.003C293.578 211.301 290.144 230.132 287.665 243.675C286.414 250.429 285.391 255.876 284.708 259.651L283.89 263.983C283.799 264.461 283.73 264.836 283.674 265.12L283.583 265.416Z" fill="#263238"/>
<path d="M263.888 265.417C263.897 265.226 263.92 265.036 263.956 264.849C264.036 264.405 264.127 263.848 264.24 263.143C264.502 261.574 264.877 259.39 265.378 256.673C266.367 251.044 267.743 243.232 269.323 234.204V233.965H282.116L282.047 234.317C279.694 246.598 277.579 257.651 276.078 265.463V265.633H275.919L267.049 265.519L264.65 265.417C264.389 265.433 264.127 265.433 263.865 265.417H264.729H267.129L275.862 265.303L275.657 265.463C277.112 257.651 279.171 246.575 281.445 234.283L281.74 234.636H269.562L269.835 234.408C268.152 243.335 266.708 251.056 265.65 256.616C265.127 259.345 264.695 261.551 264.388 263.132C264.24 263.848 264.127 264.439 264.036 264.883C263.997 265.064 263.948 265.242 263.888 265.417V265.417Z" fill="#263238"/>
<path d="M244.182 265.417C244.182 265.417 244.182 265.337 244.182 265.178C244.182 265.019 244.182 264.735 244.285 264.439C244.398 263.745 244.546 262.79 244.739 261.562C245.16 259.003 245.751 255.342 246.491 250.794C248.037 241.538 250.175 228.666 252.62 214.008V213.77H265.423L265.355 214.122C261.603 235.306 258.294 254.034 256.258 265.451V265.599H256.122L247.23 265.496H244.899C244.645 265.513 244.39 265.513 244.137 265.496H244.353H244.967H247.332L256.122 265.405L255.951 265.542L264.798 214.168L265.094 214.52H252.961L253.245 214.281C250.709 228.836 248.48 241.572 246.877 250.794C246.058 255.342 245.41 259.038 244.944 261.619C244.717 262.858 244.546 263.893 244.41 264.541L244.262 265.314L244.182 265.417Z" fill="#263238"/>
<path d="M224.509 265.416C224.494 265.306 224.494 265.195 224.509 265.086C224.509 264.836 224.6 264.506 224.668 264.085C224.828 263.164 225.044 261.811 225.328 260.173C225.908 256.762 226.761 251.77 227.807 245.607C229.967 233.156 232.981 215.826 236.392 196.211V195.973H249.196L249.139 196.325C243.84 225.799 239.155 251.566 236.574 265.45V265.575H236.449L227.522 265.484H225.248H224.702H225.305H227.636L236.471 265.393L236.324 265.518C238.734 251.6 243.305 225.81 248.604 196.348L248.889 196.689H236.71L236.995 196.45C233.504 215.963 230.411 233.19 228.193 245.573C227.056 251.759 226.158 256.728 225.521 260.185C225.214 261.89 224.964 263.21 224.793 264.153C224.702 264.585 224.646 264.927 224.589 265.188C224.532 265.45 224.509 265.416 224.509 265.416Z" fill="#263238"/>
<path d="M215.947 174.528C215.949 174.815 215.866 175.095 215.709 175.334C215.552 175.573 215.327 175.76 215.063 175.871C214.8 175.982 214.509 176.012 214.228 175.958C213.947 175.903 213.689 175.767 213.486 175.565C213.283 175.363 213.144 175.106 213.087 174.826C213.031 174.545 213.058 174.254 213.167 173.99C213.276 173.725 213.461 173.499 213.699 173.34C213.937 173.181 214.217 173.096 214.503 173.096C214.884 173.096 215.249 173.246 215.52 173.515C215.79 173.783 215.944 174.147 215.947 174.528V174.528Z" fill="#263238"/>
<path d="M221.566 175.961C222.357 175.961 222.998 175.32 222.998 174.528C222.998 173.737 222.357 173.096 221.566 173.096C220.774 173.096 220.133 173.737 220.133 174.528C220.133 175.32 220.774 175.961 221.566 175.961Z" fill="#263238"/>
<path d="M230.06 174.527C230.062 174.813 229.979 175.094 229.821 175.333C229.664 175.572 229.438 175.759 229.174 175.87C228.91 175.981 228.618 176.01 228.337 175.955C228.056 175.899 227.797 175.762 227.595 175.559C227.392 175.356 227.254 175.098 227.199 174.817C227.144 174.536 227.173 174.244 227.284 173.98C227.395 173.716 227.582 173.49 227.821 173.332C228.06 173.175 228.341 173.092 228.627 173.094C229.006 173.097 229.369 173.249 229.637 173.517C229.905 173.785 230.057 174.147 230.06 174.527Z" fill="#263238"/>
<path d="M204.816 265.416C204.816 265.416 204.816 265.12 204.941 264.54C205.067 263.96 205.18 263.051 205.362 261.959C205.76 259.685 206.317 256.353 207.011 252.271C208.466 243.925 210.479 232.326 212.787 219.09V218.852H225.591L225.523 219.204C222.009 238.148 218.882 254.955 216.938 265.461V265.609H216.801L207.898 265.507H205.624C205.366 265.523 205.108 265.523 204.851 265.507H205.078H205.692H208.057L216.847 265.405L216.665 265.552L225.023 219.261L225.307 219.602H213.072L213.356 219.363C210.957 232.497 208.808 244.004 207.352 252.271C206.579 256.376 205.965 259.685 205.521 262.005C205.317 263.142 205.146 264.006 205.021 264.643L204.885 265.336C204.863 265.364 204.84 265.39 204.816 265.416Z" fill="#263238"/>
<path d="M337.732 219.148H272.826L276.533 197.361H341.894L337.732 219.148Z" fill="#EE4248"/>
<path d="M272.825 219.147L271.562 226.754C271.562 226.754 280.091 218.852 279.954 218.852H272.882" fill="#EE4248"/>
<path d="M332.103 204.934C332.103 205.094 321.289 205.23 307.963 205.23C294.636 205.23 283.811 205.094 283.811 204.934C283.811 204.775 294.624 204.639 307.963 204.639C321.301 204.639 332.103 204.775 332.103 204.934Z" fill="#FAFAFA"/>
<path d="M331.467 210.198C331.467 210.357 320.653 210.494 307.326 210.494C293.999 210.494 283.174 210.357 283.174 210.198C283.174 210.039 293.988 209.902 307.326 209.902C320.664 209.902 331.467 210.027 331.467 210.198Z" fill="#FAFAFA"/>
<path d="M437.625 320.395H252.709V428.294H437.625V320.395Z" fill="#263238"/>
<path d="M336.946 320.395H252.709V428.294H336.946V320.395Z" fill="#455A64"/>
<path d="M328.327 357.044C328.327 357.044 328.327 356.85 328.327 356.498C328.327 356.145 328.327 355.599 328.327 354.929C328.327 353.53 328.327 351.517 328.27 348.936C328.27 343.751 328.213 336.28 328.156 327.07L328.372 327.286L260.612 327.365C260.351 327.638 260.965 327.013 260.908 327.081V334.881C260.908 337.463 260.908 340.01 260.908 342.511C260.908 347.526 260.908 352.393 260.908 357.044L260.635 356.771L309.201 356.896L323.29 356.975H327.065H328.054H328.395C328.293 356.986 328.19 356.986 328.088 356.975H327.133H323.415L309.394 357.055L260.635 357.191H260.351V356.907C260.351 352.256 260.351 347.39 260.351 342.375V327.081C260.283 327.081 260.908 326.512 260.647 326.774L328.327 326.819H328.543V327.024C328.543 336.291 328.452 343.796 328.429 349.027C328.429 351.585 328.429 353.575 328.372 354.963C328.372 355.611 328.372 356.1 328.372 356.498C328.371 356.681 328.355 356.863 328.327 357.044V357.044Z" fill="#263238"/>
<path d="M297.365 342.057C297.365 342.057 297.296 341.807 297.16 341.386C296.97 340.804 296.599 340.299 296.102 339.942C295.744 339.682 295.326 339.516 294.888 339.459C294.449 339.401 294.003 339.454 293.589 339.612C293.09 339.798 292.659 340.133 292.355 340.571C292.051 341.009 291.888 341.529 291.888 342.063C291.888 342.596 292.051 343.116 292.355 343.554C292.659 343.992 293.09 344.327 293.589 344.513C294.004 344.665 294.449 344.715 294.886 344.658C295.324 344.6 295.741 344.437 296.102 344.183C296.599 343.827 296.97 343.321 297.16 342.739C297.296 342.318 297.308 342.057 297.365 342.057C297.421 342.057 297.455 342.318 297.365 342.796C297.233 343.472 296.866 344.081 296.33 344.513C295.924 344.843 295.44 345.064 294.924 345.153C294.408 345.243 293.878 345.198 293.385 345.025C292.771 344.81 292.238 344.409 291.862 343.878C291.485 343.348 291.283 342.713 291.283 342.063C291.283 341.412 291.485 340.777 291.862 340.247C292.238 339.716 292.771 339.315 293.385 339.1C293.878 338.928 294.407 338.884 294.922 338.971C295.437 339.059 295.921 339.275 296.33 339.601C296.868 340.037 297.234 340.649 297.365 341.329C297.455 341.807 297.399 342.068 297.365 342.057Z" fill="#263238"/>
<path d="M328.328 390.042C328.328 390.042 328.328 389.849 328.328 389.496C328.328 389.144 328.328 388.586 328.328 387.915C328.328 386.517 328.328 384.504 328.271 381.934C328.271 376.738 328.214 369.278 328.157 360.068L328.373 360.284L260.613 360.363L260.909 360.068V367.857C260.909 370.438 260.909 372.974 260.909 375.487C260.909 380.502 260.909 385.357 260.909 390.019L260.636 389.735L309.201 389.871L323.29 389.951H327.065H328.055C328.168 389.942 328.282 389.942 328.396 389.951H328.089H327.134H323.415L309.395 390.03L260.636 390.167H260.352V389.883C260.352 385.221 260.352 380.365 260.352 375.35V360.091L260.647 359.795L328.407 359.875H328.623V360.091C328.623 369.358 328.532 376.863 328.509 382.082C328.509 384.641 328.509 386.631 328.453 388.029C328.453 388.677 328.453 389.166 328.453 389.553C328.421 389.718 328.379 389.882 328.328 390.042Z" fill="#263238"/>
<path d="M297.365 375.055C297.365 375.055 297.296 374.794 297.16 374.373C296.97 373.792 296.599 373.286 296.102 372.929C295.741 372.675 295.324 372.512 294.886 372.455C294.449 372.397 294.004 372.447 293.589 372.599C293.09 372.786 292.659 373.12 292.355 373.558C292.051 373.996 291.888 374.517 291.888 375.05C291.888 375.583 292.051 376.103 292.355 376.541C292.659 376.979 293.09 377.314 293.589 377.5C294.002 377.657 294.447 377.71 294.886 377.655C295.324 377.599 295.742 377.437 296.102 377.182C296.603 376.823 296.973 376.313 297.16 375.726C297.296 375.306 297.308 375.055 297.365 375.055C297.421 375.055 297.455 375.317 297.365 375.783C297.236 376.464 296.869 377.077 296.33 377.512C295.923 377.84 295.438 378.058 294.922 378.146C294.407 378.233 293.877 378.187 293.385 378.012C292.771 377.797 292.238 377.396 291.862 376.866C291.485 376.335 291.283 375.7 291.283 375.05C291.283 374.399 291.485 373.765 291.862 373.234C292.238 372.703 292.771 372.303 293.385 372.088C293.878 371.914 294.408 371.87 294.924 371.959C295.44 372.049 295.924 372.269 296.33 372.599C296.869 373.034 297.236 373.647 297.365 374.328C297.455 374.794 297.399 375.055 297.365 375.055Z" fill="#263238"/>
<path d="M328.327 423.029C328.327 423.029 328.327 422.836 328.327 422.483C328.327 422.131 328.327 421.585 328.327 420.914C328.327 419.516 328.327 417.503 328.27 414.922C328.27 409.737 328.213 402.266 328.156 393.055L328.372 393.271L260.612 393.351C260.351 393.624 260.965 392.998 260.908 393.067V400.867C260.908 403.448 260.908 405.995 260.908 408.497C260.908 413.512 260.908 418.378 260.908 423.029L260.635 422.756L309.201 422.881L323.29 422.961H327.065H328.054H328.395C328.293 422.972 328.19 422.972 328.088 422.961H327.133H323.415L309.394 423.029L260.635 423.166H260.351V422.881C260.351 418.231 260.351 413.364 260.351 408.349V393.067C260.283 393.123 260.908 392.498 260.647 392.76L328.407 392.851H328.623V393.055C328.623 402.323 328.532 409.839 328.509 415.058C328.509 417.617 328.509 419.607 328.452 420.994C328.452 421.653 328.452 422.131 328.452 422.529C328.422 422.698 328.38 422.865 328.327 423.029V423.029Z" fill="#263238"/>
<path d="M297.365 408.043C297.365 408.043 297.296 407.793 297.16 407.372C296.97 406.791 296.599 406.285 296.102 405.928C295.743 405.671 295.325 405.507 294.887 405.449C294.449 405.392 294.003 405.443 293.589 405.598C293.09 405.785 292.659 406.119 292.355 406.557C292.051 406.995 291.888 407.516 291.888 408.049C291.888 408.582 292.051 409.103 292.355 409.54C292.659 409.978 293.09 410.313 293.589 410.499C294.003 410.655 294.449 410.706 294.887 410.648C295.325 410.591 295.743 410.426 296.102 410.17C296.599 409.813 296.97 409.307 297.16 408.725C297.296 408.305 297.308 408.043 297.365 408.043C297.421 408.043 297.455 408.305 297.365 408.782C297.232 409.461 296.866 410.073 296.33 410.511C295.921 410.836 295.437 411.053 294.922 411.14C294.407 411.227 293.878 411.183 293.385 411.011C292.771 410.796 292.238 410.395 291.862 409.865C291.485 409.334 291.283 408.7 291.283 408.049C291.283 407.398 291.485 406.764 291.862 406.233C292.238 405.702 292.771 405.302 293.385 405.087C293.878 404.915 294.407 404.87 294.922 404.958C295.437 405.045 295.921 405.262 296.33 405.587C296.868 406.023 297.234 406.635 297.365 407.315C297.455 407.793 297.399 408.055 297.365 408.043Z" fill="#263238"/>
<path d="M161.515 320.395H5.9707V428.294H161.515V320.395Z" fill="#263238"/>
<path d="M444.323 312.867H0V323.124H444.323V312.867Z" fill="#263238"/>
<path d="M19.7524 323.123H5.9707V428.294H19.7524V323.123Z" fill="#455A64"/>
<path d="M178.719 150.568C178.628 150.136 178.563 149.7 178.526 149.26C178.36 148.091 177.975 146.965 177.389 145.94C177.009 145.253 176.43 144.698 175.729 144.348C175.333 144.178 174.896 144.129 174.473 144.208C174.05 144.287 173.66 144.49 173.352 144.791C172.035 146.426 171.317 148.463 171.317 150.562C171.317 152.662 172.035 154.698 173.352 156.333C173.658 156.636 174.048 156.841 174.471 156.922C174.894 157.003 175.332 156.956 175.729 156.788C176.429 156.43 177.006 155.872 177.389 155.184C177.975 154.16 178.36 153.033 178.526 151.864C178.562 151.428 178.627 150.995 178.719 150.568C178.793 151.008 178.793 151.458 178.719 151.898C178.643 153.123 178.306 154.317 177.73 155.4C177.319 156.182 176.68 156.82 175.899 157.231C175.436 157.453 174.916 157.528 174.41 157.447C173.88 157.344 173.387 157.105 172.977 156.754C171.509 155.027 170.703 152.834 170.703 150.568C170.703 148.301 171.509 146.109 172.977 144.382C173.383 144.023 173.878 143.78 174.41 143.677C174.916 143.601 175.434 143.677 175.899 143.893C176.68 144.304 177.319 144.942 177.73 145.724C178.307 146.811 178.645 148.009 178.719 149.237C178.792 149.678 178.792 150.127 178.719 150.568V150.568Z" fill="#263238"/>
<path d="M129.63 128.337L126.219 196.472L155.488 199.224L157.102 182.679C157.102 182.679 167.336 185.226 170.52 175.709C172.51 169.625 174.284 121.992 174.284 121.992L129.63 128.337Z" fill="#FFBE9D"/>
<path d="M180.504 129.019C178.013 134.944 168.621 140.027 168.621 140.027L167.086 155.116C165.689 155.02 164.287 155.02 162.89 155.116C163.64 148.032 154.532 149.43 153.6 154.24C152.713 158.88 158 161.984 158 161.984C154.35 167.579 152.872 170.535 147.687 175.777C142.092 181.463 139.079 181.917 133.291 181.747L126.912 181.451C126.912 181.451 124.638 176.005 122.989 163.144C122.182 156.958 117.303 148.851 118.725 138.787C122.636 110.212 154.259 115.283 154.259 115.283C166.131 106.05 186.371 115.09 180.504 129.019Z" fill="#263238"/>
<path d="M178.718 150.647C176.559 151.063 174.366 151.276 172.168 151.284C169.982 151.478 167.782 151.478 165.596 151.284C167.751 150.875 169.94 150.665 172.134 150.659C174.324 150.464 176.527 150.46 178.718 150.647Z" fill="#263238"/>
<path d="M271.962 230.689L261.33 237.273L257.429 246.369V238.41C257.429 238.41 260.318 234.998 262.683 232.508C265.048 230.018 263.354 228.289 262.683 227.437C262.012 226.584 251.835 238.41 251.835 238.41V245.232C247.093 239.399 244.899 241.4 244.171 242.458C243.443 243.515 251.835 251.429 251.835 251.429V253.84L210.137 276.264L199.164 248.973L176.752 260.742L190.136 293.138C191.058 295.38 192.453 297.396 194.223 299.051C195.994 300.706 198.1 301.96 200.399 302.729C202.697 303.498 205.134 303.764 207.545 303.508C209.955 303.252 212.282 302.48 214.367 301.246L263.433 272.238L266.697 266.792C267.83 264.915 268.496 262.794 268.641 260.606L270.336 236.101C273.315 234.236 271.962 230.689 271.962 230.689Z" fill="#FFBE9D"/>
<path d="M210.341 276.297C209.35 280.134 207.971 283.86 206.225 287.418C207.229 283.585 208.608 279.86 210.341 276.297V276.297Z" fill="#EB996E"/>
<path d="M270.335 236.1C269.707 236.423 269.061 236.711 268.401 236.964C267.649 237.32 266.977 237.827 266.428 238.453C265.878 239.079 265.463 239.81 265.206 240.603C264.356 242.892 263.322 245.109 262.113 247.232C262.78 244.894 263.632 242.612 264.66 240.409C264.993 239.479 265.52 238.63 266.207 237.919C266.796 237.372 267.478 236.933 268.22 236.623C268.875 236.289 269.599 236.11 270.335 236.1V236.1Z" fill="#EB996E"/>
<path d="M270.175 239.978C269.991 240.003 269.814 240.069 269.658 240.171C269.503 240.273 269.372 240.409 269.277 240.569C268.947 241.206 268.526 242.207 268.14 243.275C267.712 244.628 267.211 245.957 266.639 247.255C266.64 245.804 266.963 244.371 267.582 243.059C267.95 242.102 268.419 241.188 268.981 240.33C269.084 240.188 269.217 240.069 269.37 239.983C269.523 239.897 269.693 239.844 269.868 239.83C270.084 239.83 270.186 239.944 270.175 239.978Z" fill="#EB996E"/>
<path d="M170.053 256.591L174.817 272.726L205.053 259.081C203.916 255.67 198.958 240.649 189.395 216.77C186.776 210.222 182.517 204.459 177.026 200.034C171.536 195.609 164.999 192.671 158.045 191.503C148.152 189.854 137.384 188.569 129.094 188.672C120.864 188.748 112.91 191.647 106.56 196.883C100.211 202.119 95.8505 209.376 94.2079 217.44C91.6494 230.119 96.1296 238.5 93.2414 266.245L92.3203 336.029L173.055 338.997L170.053 256.591Z" fill="#EE4248"/>
<path d="M96.9945 265.506C96.9945 265.506 85.7713 266.166 81.3594 257.672C81.3594 257.672 93.4468 212.984 97.6654 207.719L96.9945 265.506Z" fill="#EE4248"/>
<path d="M190.92 221.273C190.631 221.497 190.309 221.673 189.965 221.796C188.976 222.155 187.935 222.351 186.883 222.376C185.23 222.368 183.585 222.158 181.983 221.751C180.118 221.33 178.037 220.705 175.706 220.318C174.491 220.171 173.268 220.107 172.044 220.125C170.721 220.23 169.408 220.447 168.121 220.773C165.266 221.549 162.525 222.696 159.968 224.184C157.205 225.685 154.396 227.459 151.406 229.21C148.337 231.115 145.05 232.642 141.615 233.759C138.086 234.852 134.318 234.911 130.756 233.929C127.526 232.884 124.516 231.254 121.875 229.119C119.34 227.152 117.134 225.083 115.053 223.195C113.155 221.426 111.142 219.785 109.026 218.283C106.014 216.032 102.503 214.542 98.7921 213.939C97.4211 213.862 96.0468 213.862 94.6758 213.939C95.0111 213.803 95.3628 213.711 95.7219 213.666C96.7519 213.502 97.7967 213.453 98.8376 213.518C102.671 213.963 106.326 215.38 109.458 217.635C111.642 219.109 113.717 220.739 115.667 222.513C117.782 224.378 120.01 226.402 122.489 228.289C125.038 230.308 127.931 231.849 131.029 232.838C134.39 233.743 137.939 233.676 141.263 232.644C144.603 231.553 147.805 230.076 150.803 228.244C153.771 226.527 156.602 224.753 159.422 223.252C162.075 221.745 164.916 220.598 167.871 219.841C169.223 219.517 170.6 219.312 171.987 219.227C173.27 219.24 174.55 219.339 175.819 219.522C178.23 219.977 180.288 220.659 182.119 221.137C183.664 221.582 185.255 221.849 186.861 221.933C188.24 221.925 189.609 221.703 190.92 221.273V221.273Z" fill="#263238"/>
<path d="M170.588 276.957C169.047 276.039 167.345 275.421 165.574 275.138C163.644 274.91 161.69 275.017 159.797 275.456C157.637 275.888 155.306 276.673 152.747 277.309C148.357 278.438 143.76 278.5 139.341 277.491C135.929 276.695 134.099 275.615 134.156 275.501C134.212 275.388 136.191 276.104 139.511 276.639C143.817 277.371 148.228 277.197 152.463 276.127C154.953 275.501 157.33 274.74 159.593 274.342C161.609 273.934 163.685 273.911 165.71 274.273C167.081 274.517 168.384 275.052 169.531 275.843C170.327 276.468 170.645 276.911 170.588 276.957Z" fill="#263238"/>
<path d="M171.407 318.62C171.407 318.62 171.1 319.132 170.338 319.848C169.238 320.855 168.006 321.708 166.677 322.384C164.683 323.419 162.476 323.98 160.229 324.021C157.487 323.946 154.785 323.344 152.27 322.248C149.62 321.213 147.198 320.053 144.913 319.405C142.893 318.788 140.778 318.541 138.67 318.677C137.262 318.762 135.889 319.15 134.645 319.814C133.758 320.303 133.348 320.701 133.269 320.621C133.189 320.542 133.542 320.064 134.406 319.484C135.638 318.591 137.079 318.027 138.59 317.847C140.809 317.588 143.056 317.762 145.208 318.359C147.76 319.152 150.265 320.085 152.713 321.156C155.084 322.194 157.622 322.798 160.207 322.941C162.305 322.95 164.381 322.504 166.29 321.633C169.645 320.121 171.293 318.45 171.407 318.62Z" fill="#263238"/>
<g opacity="0.3">
<path opacity="0.3" d="M83.8496 266.29C94.4247 268.45 105.284 266.29 116.052 265.63C122.591 265.244 129.834 264.493 134.996 268.553C139.09 271.737 140.682 277.092 141.921 282.141C146.47 301.404 147.254 318.608 148.266 338.359L95.9598 337.222L83.8496 266.29Z" fill="black"/>
</g>
<path opacity="0.3" d="M97.6651 230.027L99.9279 262.639H93.0371L97.6651 230.027Z" fill="black"/>
<path d="M112.357 335.984L216.175 339.657C224.276 339.942 231.943 343.394 237.527 349.271C243.11 355.148 246.165 362.981 246.035 371.087L245.126 430H207.055L204.599 379.206L112.357 376.772V335.984Z" fill="#263238"/>
<path d="M147.176 389.848H136.965V427.224H147.176V389.848Z" fill="#455A64"/>
<path d="M51.2832 271.101V361.16C51.2862 366.83 53.541 372.268 57.5519 376.277C61.5628 380.285 67.0014 382.537 72.6721 382.537H132.643V271.101C132.64 268.573 131.633 266.149 129.845 264.363C128.056 262.576 125.631 261.572 123.103 261.572H60.8121C58.2849 261.572 55.8612 262.576 54.0742 264.363C52.2871 266.15 51.2832 268.574 51.2832 271.101V271.101Z" fill="#455A64"/>
<path d="M213.354 389.847H67.3047C67.3227 385.637 69.0079 381.605 71.9914 378.635C74.975 375.664 79.0138 373.996 83.2241 373.996H197.56C201.764 373.996 205.796 375.666 208.768 378.639C211.741 381.612 213.411 385.643 213.411 389.847H213.354Z" fill="#455A64"/>
<path d="M132.642 371.893C132.708 372.782 132.632 373.677 132.415 374.542C131.925 376.57 130.858 378.412 129.342 379.845C127.826 381.278 125.927 382.24 123.875 382.616C122.947 382.766 122.007 382.831 121.066 382.809H118.121H104.999H81.1201L73.8995 382.718H71.9323C71.7028 382.725 71.4735 382.702 71.25 382.65C71.4756 382.613 71.7037 382.594 71.9323 382.593L73.8995 382.536L81.1201 382.434L104.999 382.32H121.066C121.979 382.355 122.893 382.302 123.796 382.161C125.392 381.885 126.9 381.234 128.196 380.262C130.119 378.84 131.509 376.814 132.142 374.508C132.619 372.848 132.563 371.881 132.642 371.893Z" fill="#263238"/>
<path d="M151.019 390.155C148.046 390.455 145.056 390.554 142.07 390.451C139.08 390.554 136.086 390.455 133.109 390.155C136.087 389.862 139.08 389.764 142.07 389.86C145.056 389.764 148.045 389.863 151.019 390.155V390.155Z" fill="#263238"/>
<path d="M195.457 383.333C195.316 382.968 195.224 382.585 195.184 382.196C195.036 381.457 194.843 380.388 194.615 379.001C194.149 376.215 193.478 372.178 192.75 367.22C192.341 364.741 192.011 361.978 191.465 359.101C191.318 358.385 191.181 357.657 191.033 356.907C190.886 356.156 190.601 355.451 190.385 354.701C190.272 354.337 190.169 353.95 190.055 353.564C189.942 353.177 189.771 352.825 189.623 352.427C189.316 351.676 189.043 350.914 188.714 350.152C187.27 347.039 185.444 344.116 183.278 341.454C180.913 338.625 178.161 336.144 175.103 334.085C172.058 332.001 168.715 330.391 165.187 329.309C161.913 328.27 158.511 327.689 155.078 327.581C148.46 327.433 142.434 327.467 137.408 327.399C132.382 327.331 128.311 327.274 125.491 327.206C124.081 327.206 122.989 327.137 122.239 327.092C121.856 327.104 121.474 327.065 121.102 326.978C121.473 326.883 121.856 326.841 122.239 326.853L125.491 326.739C128.299 326.671 132.382 326.614 137.408 326.558C142.434 326.501 148.426 326.398 155.112 326.489C158.652 326.565 162.163 327.143 165.54 328.206C169.185 329.297 172.638 330.951 175.773 333.107C178.932 335.221 181.767 337.784 184.188 340.714C186.404 343.468 188.265 346.49 189.726 349.709C190.055 350.482 190.328 351.278 190.635 352.04C190.772 352.427 190.92 352.802 191.067 353.177C191.215 353.552 191.284 353.95 191.397 354.314C191.613 355.087 191.818 355.838 192.023 356.588C192.227 357.339 192.307 358.101 192.443 358.863C192.955 361.808 193.228 364.548 193.58 367.027C194.229 372.019 194.718 376.067 195.07 378.864C195.229 380.263 195.354 381.355 195.423 382.094C195.496 382.503 195.508 382.921 195.457 383.333V383.333Z" fill="#455A64"/>
<path d="M11.1549 274.354C11.1549 274.354 9.31281 279.505 12.8378 283.234H20.1721C20.1721 283.234 19.524 274.911 11.1549 274.354Z" fill="#EE4248"/>
<path opacity="0.4" d="M11.1549 274.354C11.1549 274.354 9.31281 279.505 12.8378 283.234H20.1721C20.1721 283.234 19.524 274.911 11.1549 274.354Z" fill="black"/>
<path d="M23.6516 263.744C23.3446 263.38 17.0678 273.205 20.5928 283.234H27.5064C27.5064 283.234 30.2127 271.567 23.6516 263.744Z" fill="#EE4248"/>
<path d="M35.8977 274.354C33.6377 274.505 31.5181 275.504 29.9624 277.15C28.4067 278.797 27.5294 280.969 27.5059 283.234H34.4081C34.4081 283.234 37.4328 278.982 35.8977 274.354Z" fill="#EE4248"/>
<path d="M12.2691 282.848C9.88471 284.559 8.03537 286.913 6.93626 289.634C5.83715 292.356 5.53346 295.334 6.06053 298.221C7.83441 308.455 18.6369 312.867 18.6369 312.867H30.6106C30.6106 312.867 42.8003 307.489 42.5047 296.425C42.209 285.361 34.9543 283.007 34.9543 283.007L12.2691 282.848Z" fill="#455A64"/>
<path d="M42.4587 295.185C42.1876 294.728 41.8547 294.311 41.4694 293.945C40.9126 293.501 40.273 293.171 39.5879 292.976C38.9027 292.781 38.1856 292.724 37.4782 292.808C35.3605 293.209 33.3596 294.08 31.6221 295.355C30.5185 296.061 29.3494 296.659 28.1312 297.14C26.787 297.652 25.3312 297.797 23.9125 297.561C20.9902 297.061 18.6591 295.492 16.4759 294.445C14.6182 293.362 12.4829 292.848 10.3355 292.967C8.89988 293.116 7.57069 293.793 6.60582 294.866C6.2834 295.289 6.00883 295.747 5.78711 296.231C5.79471 296.087 5.82148 295.946 5.86671 295.81C5.98455 295.401 6.17313 295.016 6.42389 294.673C7.37737 293.477 8.7609 292.701 10.2787 292.512C12.5364 292.314 14.8001 292.819 16.7602 293.956C19.0344 295.003 21.3086 296.515 24.049 296.97C25.3705 297.197 26.7286 297.067 27.9834 296.595C29.1723 296.132 30.3145 295.557 31.3947 294.878C33.208 293.59 35.2936 292.738 37.4895 292.387C38.247 292.313 39.0116 292.398 39.7342 292.637C40.4568 292.876 41.1214 293.264 41.6854 293.775C41.9788 294.063 42.2177 294.402 42.3904 294.775C42.4473 295.037 42.4814 295.173 42.4587 295.185Z" fill="#263238"/>
<path d="M42.6301 297.858C42.3573 297.409 42.0287 296.996 41.6522 296.63C41.1038 296.183 40.4704 295.851 39.7902 295.656C39.11 295.46 38.3973 295.405 37.6951 295.493C35.6008 295.896 33.6232 296.762 31.9072 298.029C30.8322 298.739 29.6895 299.341 28.4959 299.825C27.164 300.338 25.7187 300.483 24.3114 300.246C21.4117 299.746 19.1034 298.177 16.9429 297.13C15.1138 296.048 13.0043 295.533 10.8822 295.652C9.45582 295.808 8.13845 296.489 7.1866 297.562C6.86906 297.981 6.60189 298.435 6.39063 298.916C6.39062 298.916 6.39062 298.768 6.45885 298.495C6.58187 298.108 6.76615 297.743 7.00466 297.415C7.94285 296.222 9.30966 295.443 10.814 295.243C13.0336 295.041 15.2614 295.53 17.1931 296.641C19.3991 297.688 21.7415 299.2 24.4023 299.655C25.7088 299.882 27.0523 299.752 28.2912 299.279C29.4626 298.818 30.5861 298.243 31.6457 297.562C33.4378 296.275 35.505 295.422 37.6837 295.072C38.425 295.006 39.172 295.095 39.877 295.334C40.5819 295.572 41.2291 295.956 41.7773 296.459C42.0655 296.745 42.3004 297.08 42.4709 297.449C42.5463 297.575 42.6001 297.714 42.6301 297.858Z" fill="#263238"/>
<path d="M11.5525 297.789C11.5525 297.72 11.8709 297.516 12.2916 297.857C12.4187 297.967 12.5096 298.112 12.5523 298.275C12.5949 298.437 12.5873 298.609 12.5304 298.767C12.4604 298.961 12.3292 299.128 12.1564 299.241C11.9837 299.355 11.7787 299.409 11.5723 299.397C11.366 299.384 11.1693 299.304 11.012 299.17C10.8546 299.036 10.745 298.855 10.6996 298.653C10.6597 298.497 10.6629 298.333 10.709 298.179C10.7551 298.025 10.8422 297.886 10.9612 297.777C11.3705 297.436 11.723 297.595 11.7003 297.664C11.6776 297.732 11.4501 297.789 11.2796 298.062C11.2427 298.13 11.2235 298.206 11.2235 298.283C11.2235 298.361 11.2427 298.437 11.2796 298.505C11.3129 298.585 11.3658 298.655 11.4334 298.708C11.501 298.762 11.5811 298.798 11.6662 298.812C11.7502 298.809 11.8319 298.784 11.9037 298.741C11.9754 298.697 12.0346 298.635 12.0755 298.562C12.1136 298.498 12.1337 298.426 12.1337 298.351C12.1337 298.277 12.1136 298.205 12.0755 298.141C11.8254 297.88 11.5638 297.868 11.5525 297.789Z" fill="#263238"/>
<path d="M25.1176 293.468C25.1176 293.4 25.436 293.184 25.8681 293.537C25.9907 293.649 26.0776 293.796 26.118 293.957C26.1584 294.119 26.1506 294.289 26.0955 294.446C26.0237 294.639 25.8927 294.805 25.7212 294.919C25.5496 295.034 25.3463 295.091 25.1403 295.083C24.9348 295.063 24.7403 294.981 24.5836 294.847C24.4268 294.712 24.3154 294.533 24.2648 294.332C24.2235 294.176 24.2272 294.01 24.2755 293.856C24.3237 293.701 24.4146 293.563 24.5377 293.457C24.947 293.116 25.2995 293.275 25.2654 293.343C25.2313 293.411 25.0152 293.468 24.8447 293.741C24.8106 293.81 24.7929 293.886 24.7929 293.963C24.7929 294.04 24.8106 294.116 24.8447 294.185C24.878 294.264 24.9309 294.334 24.9985 294.388C25.0661 294.442 25.1462 294.477 25.2313 294.492C25.3155 294.49 25.3978 294.466 25.4697 294.422C25.5416 294.378 25.6005 294.316 25.6406 294.242C25.68 294.178 25.7008 294.106 25.7008 294.031C25.7008 293.957 25.68 293.884 25.6406 293.821C25.3905 293.559 25.129 293.548 25.1176 293.468Z" fill="#263238"/>
<path d="M38.2734 297.982C38.2734 297.914 38.5918 297.709 39.0239 298.05C39.1466 298.163 39.2334 298.309 39.2739 298.471C39.3143 298.633 39.3064 298.803 39.2513 298.96C39.1796 299.153 39.0486 299.319 38.877 299.433C38.7055 299.548 38.5022 299.605 38.2962 299.597C38.0921 299.578 37.8987 299.497 37.7421 299.365C37.5855 299.233 37.4733 299.056 37.4206 298.858C37.3797 298.699 37.3836 298.532 37.4318 298.376C37.48 298.219 37.5706 298.079 37.6935 297.971C38.1029 297.629 38.4554 297.789 38.4213 297.857C38.3871 297.925 38.1711 297.993 38.0005 298.255C37.9527 298.322 37.9231 298.401 37.9147 298.483C37.9063 298.565 37.9194 298.648 37.9526 298.724C37.9858 298.799 38.0381 298.865 38.1043 298.914C38.1705 298.964 38.2483 298.995 38.3303 299.005C38.4145 299.003 38.4968 298.979 38.5686 298.935C38.6405 298.891 38.6995 298.829 38.7396 298.755C38.7789 298.692 38.7998 298.619 38.7998 298.545C38.7998 298.47 38.7789 298.398 38.7396 298.334C38.5463 298.084 38.2962 298.062 38.2734 297.982Z" fill="#263238"/>
<path d="M384.408 272.408L388.308 312.866H408.026L412.745 272.408H384.408Z" fill="#455A64"/>
<path d="M384.408 267.178C383.195 268.693 382.54 270.581 382.555 272.522H414.598C414.754 271.548 414.667 270.549 414.343 269.617C414.02 268.684 413.471 267.846 412.745 267.178H384.408Z" fill="#263238"/>
<path d="M388.059 263.471L386.979 267.474L411.165 267.656L409.561 263.426L388.059 263.471Z" fill="#263238"/>
<path d="M384.045 282.541C384.045 282.916 386.319 302.941 386.319 302.941H410.414L412.689 282.575L384.045 282.541Z" fill="#EE4248"/>
</svg>
