<svg width="100" height="100" viewBox="0 0 100 100" fill="none" xmlns="http://www.w3.org/2000/svg">
<path d="M74.9493 10.8718C55.7382 11.2302 42.3604 1.5246 33.1021 1.6996C23.8437 1.8746 4.50208 7.55794 5.2993 50.144C6.09652 92.7301 32.366 98.4885 42.5493 98.2996C90.2271 97.4079 108.969 10.2357 74.9493 10.8718Z" fill="#EFEFEF"/>
<path d="M18.3496 9.46875L22.278 5.54038L24.2422 7.50456L20.3138 11.4329L18.3496 9.46875Z" fill="#A4AFC1"/>
<path d="M7.05469 20.7617L10.985 16.8314L12.9492 18.7956L9.01887 22.7259L7.05469 20.7617Z" fill="#A4AFC1"/>
<path d="M7.05859 7.01562L9.02278 5.05144L12.9531 8.98177L10.9889 10.946L7.05859 7.01562Z" fill="#A4AFC1"/>
<path d="M92.3034 42.8958C90.0062 42.8958 88.1367 41.0264 88.1367 38.7292C88.1367 36.4319 90.0062 34.5625 92.3034 34.5625C94.6006 34.5625 96.47 36.4319 96.47 38.7292C96.47 41.0264 94.6006 42.8958 92.3034 42.8958ZM92.3034 37.3403C91.5395 37.3403 90.9145 37.9625 90.9145 38.7292C90.9145 39.4958 91.5395 40.1181 92.3034 40.1181C93.0673 40.1181 93.6923 39.4958 93.6923 38.7292C93.6923 37.9625 93.0673 37.3403 92.3034 37.3403Z" fill="#A4AFC1"/>
<path d="M78.4722 31.25H21.5278C19.9944 31.25 18.75 30.0056 18.75 28.4722V21.5278C18.75 19.9944 19.9944 18.75 21.5278 18.75H78.4722C80.0056 18.75 81.25 19.9944 81.25 21.5278V28.4722C81.25 30.0056 80.0056 31.25 78.4722 31.25Z" fill="#EE4248"/>
<path d="M75 56.25C71.5472 56.25 68.75 53.4528 68.75 50C68.75 46.5472 71.5472 43.75 75 43.75C78.4528 43.75 81.25 46.5472 81.25 50C81.25 53.4528 78.4528 56.25 75 56.25Z" fill="#EE4248"/>
<path d="M75 81.25C71.5472 81.25 68.75 78.4528 68.75 75C68.75 71.5472 71.5472 68.75 75 68.75C78.4528 68.75 81.25 71.5472 81.25 75C81.25 78.4528 78.4528 81.25 75 81.25Z" fill="#EE4248"/>
<path d="M25 28.4722V21.5278C25 19.9944 26.2444 18.75 27.7778 18.75H21.5278C19.9944 18.75 18.75 19.9944 18.75 21.5278V28.4722C18.75 30.0056 19.9944 31.25 21.5278 31.25H27.7778C26.2444 31.25 25 30.0056 25 28.4722Z" fill="#D5DBE1"/>
<path d="M75 50C75 47.6917 76.2639 45.7 78.125 44.6167C77.2028 44.0806 76.1444 43.75 75 43.75C71.5472 43.75 68.75 46.5472 68.75 50C68.75 53.4528 71.5472 56.25 75 56.25C76.1444 56.25 77.2028 55.9194 78.125 55.3833C76.2639 54.3 75 52.3083 75 50Z" fill="#EE4248"/>
<path d="M75 75C75 72.6917 76.2639 70.7 78.125 69.6167C77.2028 69.0806 76.1444 68.75 75 68.75C71.5472 68.75 68.75 71.5472 68.75 75C68.75 78.4528 71.5472 81.25 75 81.25C76.1444 81.25 77.2028 80.9194 78.125 80.3833C76.2639 79.3 75 77.3083 75 75Z" fill="#EE4248"/>
<path d="M78.4716 33.3327H21.5271C18.8466 33.3327 16.666 31.1521 16.666 28.4716V21.5271C16.666 18.8466 18.8466 16.666 21.5271 16.666H78.4716C81.1521 16.666 83.3327 18.8466 83.3327 21.5271V28.4716C83.3327 31.1521 81.1521 33.3327 78.4716 33.3327ZM21.5271 20.8327C21.1438 20.8327 20.8327 21.1438 20.8327 21.5271V28.4716C20.8327 28.8549 21.1438 29.166 21.5271 29.166H78.4716C78.8549 29.166 79.166 28.8549 79.166 28.4716V21.5271C79.166 21.1438 78.8549 20.8327 78.4716 20.8327H21.5271Z" fill="black"/>
<path d="M18.75 44.4434H59.0278V48.61H18.75V44.4434Z" fill="black"/>
<path d="M18.75 52.7773H59.0278V56.944H18.75V52.7773Z" fill="black"/>
<path d="M18.75 69.4434H59.0278V73.61H18.75V69.4434Z" fill="black"/>
<path d="M18.75 77.7773H59.0278V81.944H18.75V77.7773Z" fill="black"/>
<path d="M74.9994 58.3327C70.4049 58.3327 66.666 54.5938 66.666 49.9993C66.666 45.4049 70.4049 41.666 74.9994 41.666C79.5938 41.666 83.3327 45.4049 83.3327 49.9993C83.3327 54.5938 79.5938 58.3327 74.9994 58.3327ZM74.9994 45.8327C72.7021 45.8327 70.8327 47.7021 70.8327 49.9993C70.8327 52.2966 72.7021 54.166 74.9994 54.166C77.2966 54.166 79.166 52.2966 79.166 49.9993C79.166 47.7021 77.2966 45.8327 74.9994 45.8327Z" fill="black"/>
<path d="M74.9994 83.3327C70.4049 83.3327 66.666 79.5938 66.666 74.9993C66.666 70.4049 70.4049 66.666 74.9994 66.666C79.5938 66.666 83.3327 70.4049 83.3327 74.9993C83.3327 79.5938 79.5938 83.3327 74.9994 83.3327ZM74.9994 70.8327C72.7021 70.8327 70.8327 72.7021 70.8327 74.9993C70.8327 77.2966 72.7021 79.166 74.9994 79.166C77.2966 79.166 79.166 77.2966 79.166 74.9993C79.166 72.7021 77.2966 70.8327 74.9994 70.8327Z" fill="black"/>
</svg>
