<svg width="100" height="100" viewBox="0 0 100 100" fill="none" xmlns="http://www.w3.org/2000/svg">
<path d="M88.4247 23.2695C88.4247 42.4834 98.3775 55.6779 98.3775 64.9362C98.3775 74.1945 93.0553 93.639 50.4636 93.639C7.87192 93.639 1.61914 67.4807 1.61914 57.2973C1.61914 9.61122 88.4247 -10.7582 88.4247 23.2695Z" fill="#EFEFEF"/>
<path d="M9.71483 16.6671C8.79538 16.6671 7.90372 16.3643 7.16483 15.7893C6.28705 15.106 5.72594 14.1199 5.58983 13.0171C5.45094 11.9143 5.75094 10.8227 6.43427 9.94211C7.11761 9.06433 8.10372 8.50322 9.20649 8.36711C10.3037 8.22266 11.4009 8.52822 12.2815 9.21155C13.1621 9.89489 13.7204 10.881 13.8565 11.9838C13.9954 13.0866 13.6926 14.181 13.0121 15.0588C12.3287 15.9366 11.3426 16.4977 10.2398 16.6338C10.0648 16.656 9.88983 16.6671 9.71483 16.6671ZM9.72316 11.1116C9.66483 11.1116 9.60927 11.1143 9.55094 11.1227C8.79261 11.2171 8.25094 11.9143 8.34538 12.6727C8.43983 13.431 9.13149 13.9699 9.89538 13.8782C10.6537 13.7838 11.1954 13.0866 11.1009 12.3282C11.0121 11.6282 10.4148 11.1116 9.72316 11.1116Z" fill="#A4AFC1"/>
<path d="M75.6944 75.6949H24.3056C21.2361 75.6949 18.75 73.2088 18.75 70.1393V28.4727H81.25V70.1393C81.25 73.2088 78.7639 75.6949 75.6944 75.6949Z" fill="#F3F3F1"/>
<path d="M81.25 28.4722H18.75V24.3056C18.75 21.2361 21.2361 18.75 24.3056 18.75H75.6944C78.7639 18.75 81.25 21.2361 81.25 24.3056V28.4722Z" fill="#EE4248"/>
<path d="M65.2769 81.2491C74.0981 81.2491 81.2491 74.0981 81.2491 65.2769C81.2491 56.4557 74.0981 49.3047 65.2769 49.3047C56.4557 49.3047 49.3047 56.4557 49.3047 65.2769C49.3047 74.0981 56.4557 81.2491 65.2769 81.2491Z" fill="#EE4248"/>
<path d="M70.1391 38.1953H29.8613V50.6953H70.1669L70.1391 38.1953Z" fill="#EE4248"/>
<path d="M30.5556 18.75H24.3056C21.2361 18.75 18.75 21.2361 18.75 24.3056V28.4722H25V24.3056C25 21.2361 27.4861 18.75 30.5556 18.75Z" fill="#EE4248"/>
<path d="M55.5547 65.2769C55.5547 57.5269 61.0769 51.0686 68.4019 49.6158C67.3908 49.4158 66.3464 49.3047 65.2769 49.3047C56.4547 49.3047 49.3047 56.4547 49.3047 65.2769C49.3047 74.0991 56.4547 81.2491 65.2769 81.2491C66.3464 81.2491 67.3908 81.1408 68.4019 80.938C61.0769 79.4853 55.5547 73.0269 55.5547 65.2769Z" fill="#EE4248"/>
<path d="M29.8613 38.1953H36.1113V50.6953H29.8613V38.1953Z" fill="#EE4248"/>
<path d="M25 70.1393V28.4727H18.75V70.1393C18.75 73.2088 21.2361 75.6949 24.3056 75.6949H30.5556C27.4861 75.6949 25 73.2088 25 70.1393Z" fill="#D5DBE1"/>
<path d="M65.2782 83.3338C55.3227 83.3338 47.2227 75.2338 47.2227 65.2782C47.2227 55.3227 55.3227 47.2227 65.2782 47.2227C75.2338 47.2227 83.3338 55.3227 83.3338 65.2782C83.3338 75.2338 75.2338 83.3338 65.2782 83.3338ZM65.2782 51.3893C57.6199 51.3893 51.3893 57.6199 51.3893 65.2782C51.3893 72.9365 57.6199 79.1671 65.2782 79.1671C72.9365 79.1671 79.1671 72.9365 79.1671 65.2782C79.1671 57.6199 72.9365 51.3893 65.2782 51.3893Z" fill="black"/>
<path d="M62.5004 72.9163C61.9477 72.9163 61.4171 72.6968 61.0282 72.3052L55.4727 66.7496L58.4199 63.8024L62.4004 67.7829L70.656 58.3496L73.7921 61.0941L64.0699 72.2052C63.6893 72.6385 63.1477 72.8968 62.5699 72.9163C62.5477 72.9163 62.5227 72.9163 62.5004 72.9163Z" fill="black"/>
<path d="M45.8607 52.778H29.8607C28.7107 52.778 27.7773 51.8447 27.7773 50.6947V38.1947C27.7773 37.0447 28.7107 36.1113 29.8607 36.1113H70.1385C71.2885 36.1113 72.2218 37.0447 72.2218 38.1947V41.4724H68.0551V40.278H31.944V48.6113H45.8607V52.778Z" fill="black"/>
<path d="M27.916 56.916H43.8882V61.0827H27.916V56.916Z" fill="black"/>
<path d="M27.916 65.25H43.166V69.4167H27.916V65.25Z" fill="black"/>
<path d="M43.3049 77.7771H24.3049C20.091 77.7771 16.666 74.3521 16.666 70.1382V24.3049C16.666 20.091 20.091 16.666 24.3049 16.666H75.6938C79.9077 16.666 83.3327 20.091 83.3327 24.3049V46.9993H79.166V24.3049C79.166 22.391 77.6077 20.8327 75.6938 20.8327H24.3049C22.391 20.8327 20.8327 22.391 20.8327 24.3049V70.1382C20.8327 72.0521 22.391 73.6105 24.3049 73.6105H43.3049V77.7771Z" fill="black"/>
<path d="M18.75 26.3887H81.25V30.5553H18.75V26.3887Z" fill="black"/>
</svg>
