<svg width="207" height="59" viewBox="0 0 207 59" fill="none" xmlns="http://www.w3.org/2000/svg">
<path d="M29.5 0C25.6261 0 21.7899 0.763123 18.2108 2.24554C14.6317 3.72813 11.3797 5.90101 8.6403 8.6403C5.90101 11.3797 3.72813 14.6317 2.24554 18.2108C0.763123 21.7899 0 25.6261 0 29.5C0 33.3739 0.763123 37.2101 2.24554 40.7892C3.72813 44.3683 5.90101 47.6202 8.6403 50.3597C11.3797 53.099 14.6317 55.2719 18.2108 56.7545C21.7899 58.2369 25.6261 59 29.5 59V44.25C27.5629 44.25 25.6449 43.8685 23.8554 43.1271C22.0658 42.3859 20.4398 41.2995 19.0702 39.9298C17.7005 38.5602 16.6141 36.9342 15.8729 35.1446C15.1315 33.3551 14.75 31.4371 14.75 29.5C14.75 27.5629 15.1315 25.6449 15.8729 23.8554C16.6141 22.0658 17.7005 20.4398 19.0702 19.0702C20.4398 17.7005 22.0658 16.6141 23.8554 15.8729C25.6449 15.1315 27.5629 14.75 29.5 14.75V0Z" fill="#0F52FF"/>
<path d="M29.5013 39.3327C34.9321 39.3327 39.3346 34.9301 39.3346 29.4993C39.3346 24.0685 34.9321 19.666 29.5013 19.666C24.0705 19.666 19.668 24.0685 19.668 29.4993C19.668 34.9301 24.0705 39.3327 29.5013 39.3327Z" fill="#0F52FF"/>
<path d="M0 29.5C0 33.3739 0.763123 37.2101 2.24554 40.7892C3.72813 44.3683 5.90101 47.6202 8.6403 50.3597C11.3797 53.099 14.6317 55.2719 18.2108 56.7545C21.7899 58.2369 25.6261 59 29.5 59C33.3739 59 37.2101 58.2369 40.7892 56.7545C44.3683 55.2719 47.6202 53.099 50.3597 50.3597C53.099 47.6202 55.2719 44.3683 56.7545 40.7892C58.2369 37.2101 59 33.3739 59 29.5H44.25C44.25 31.4371 43.8685 33.3551 43.1271 35.1446C42.3859 36.9342 41.2995 38.5602 39.9298 39.9298C38.5602 41.2995 36.9342 42.3859 35.1446 43.1271C33.3551 43.8685 31.4371 44.25 29.5 44.25C27.5629 44.25 25.6449 43.8685 23.8554 43.1271C22.0658 42.3859 20.4398 41.2995 19.0702 39.9298C17.7005 38.5602 16.6141 36.9342 15.8729 35.1446C15.1315 33.3551 14.75 31.4371 14.75 29.5H0Z" fill="#5BD0F4"/>
<path d="M39.3347 29.4995C39.3347 26.8915 38.2987 24.3904 36.4547 22.5462C34.6105 20.7021 32.1094 19.666 29.5014 19.666C26.8934 19.666 24.3924 20.7021 22.5482 22.5462C20.704 24.3904 19.668 26.8915 19.668 29.4995H29.5014H39.3347Z" fill="#5BD0F4"/>
<path d="M74.4061 18.416H70.7422V38.771H74.4061V18.416Z" fill="#0F52FF"/>
<path d="M76.8008 31.56C76.8008 36.2707 80.0576 39.1786 84.3612 39.1786C88.6648 39.1786 91.9216 36.2707 91.9216 31.56C91.9216 26.8493 88.6648 23.9414 84.3612 23.9414C80.0576 23.9414 76.8008 26.8493 76.8008 31.56ZM80.4647 31.56C80.4647 28.7685 82.0931 27.14 84.3612 27.14C86.6293 27.14 88.2577 28.7685 88.2577 31.56C88.2577 34.3515 86.6293 35.9799 84.3612 35.9799C82.0931 35.9799 80.4647 34.3515 80.4647 31.56Z" fill="#0F52FF"/>
<path d="M105.015 24.3485V26.2967H104.724C103.852 25.0464 102.456 23.9414 99.955 23.9414C96.5237 23.9414 93.4414 26.8493 93.4414 31.3274C93.4414 35.8055 96.5237 38.7133 99.955 38.7133C102.456 38.7133 103.852 37.5792 104.666 36.4452H104.957V37.841C104.957 40.6325 103.328 41.912 100.944 41.912C98.5592 41.912 97.3379 40.6325 96.8435 38.9749L93.5577 40.3999C94.3138 42.5807 96.5237 44.9943 101.002 44.9943C105.596 44.9943 108.62 42.5807 108.62 37.9281V24.3485H105.015ZM101.06 35.5728C98.7919 35.5728 97.1053 33.9444 97.1053 31.3274C97.1053 28.7103 98.7919 27.0819 101.06 27.0819C103.328 27.0819 105.015 28.7103 105.015 31.3274C105.015 33.9444 103.328 35.5728 101.06 35.5728Z" fill="#0F52FF"/>
<path d="M110.988 31.56C110.988 36.2707 114.245 39.1786 118.549 39.1786C122.852 39.1786 126.109 36.2707 126.109 31.56C126.109 26.8493 122.852 23.9414 118.549 23.9414C114.245 23.9414 110.988 26.8493 110.988 31.56ZM114.652 31.56C114.652 28.7685 116.281 27.14 118.549 27.14C120.817 27.14 122.445 28.7685 122.445 31.56C122.445 34.3515 120.817 35.9799 118.549 35.9799C116.281 35.9799 114.652 34.3515 114.652 31.56Z" fill="#0F52FF"/>
<path d="M128.984 20.1609C128.984 21.644 130.119 22.6617 131.574 22.6617C133.027 22.6617 134.161 21.644 134.161 20.1609C134.161 18.678 133.027 17.6602 131.574 17.6602C130.119 17.6602 128.984 18.678 128.984 20.1609ZM133.404 24.3482H129.741V38.7712H133.404V24.3482Z" fill="#5BD0F4"/>
<path d="M136.672 44.5872H140.337V36.9104H140.627C141.441 38.0736 142.837 39.1786 145.338 39.1786C148.769 39.1786 151.852 36.2707 151.852 31.56C151.852 26.8493 148.769 23.9414 145.338 23.9414C142.837 23.9414 141.441 25.0464 140.569 26.2969H140.278V24.3485H136.672V44.5872ZM144.232 36.0381C141.965 36.0381 140.278 34.4097 140.278 31.56C140.278 28.7103 141.965 27.0819 144.232 27.0819C146.501 27.0819 148.187 28.7103 148.187 31.56C148.187 34.4097 146.501 36.0381 144.232 36.0381Z" fill="#5BD0F4"/>
<path d="M153.989 28.3905C153.989 31.2402 156.373 32.287 159.397 32.8686L160.154 33.0139C161.956 33.3629 162.77 33.7991 162.77 34.7296C162.77 35.6602 161.956 36.387 160.27 36.387C158.583 36.387 157.217 35.6892 156.838 33.5955L153.465 34.4678C153.96 37.492 156.489 39.1786 160.27 39.1786C163.933 39.1786 166.318 37.463 166.318 34.4389C166.318 31.4145 163.876 30.6005 160.619 29.9608L159.862 29.8153C158.35 29.5245 157.536 29.1174 157.536 28.1579C157.536 27.2855 158.293 26.733 159.689 26.733C161.084 26.733 162.072 27.3145 162.421 28.8848L165.737 27.8671C165.039 25.5408 162.917 23.9414 159.689 23.9414C156.256 23.9414 153.989 25.5408 153.989 28.3905Z" fill="#5BD0F4"/>
<path d="M182.774 38.7706V24.3477H179.111V31.7918C179.111 34.467 177.803 36.0372 175.563 36.0372C173.585 36.0372 172.481 34.9614 172.481 32.7804V24.3477H168.816V32.9549C168.816 36.5317 171.057 39.0033 174.43 39.0033C177.075 39.0033 178.297 37.8401 178.878 36.6188H179.168V38.7706H182.774Z" fill="#5BD0F4"/>
<path d="M186.027 24.3479V38.7708H189.692V30.1636C189.692 28.1862 190.623 27.0812 192.308 27.0812C193.763 27.0812 194.635 27.8954 194.635 29.4657V38.7708H198.299V30.1636C198.299 28.1862 199.23 27.0812 200.916 27.0812C202.37 27.0812 203.242 27.8954 203.242 29.4657V38.7708H206.907V29.2912C206.907 25.8018 204.754 24.1152 202.079 24.1152C199.724 24.1152 198.648 25.1621 197.95 26.3834H197.659C196.99 25.0168 195.798 24.1152 193.704 24.1152C191.61 24.1152 190.476 25.0457 189.925 26.1507H189.633V24.3479H186.027Z" fill="#5BD0F4"/>
</svg>
