<svg width="218" height="59" viewBox="0 0 218 59" fill="none" xmlns="http://www.w3.org/2000/svg">
<path d="M17.9553 56.3029L11.9961 45.9812L20.7416 30.875L26.299 40.5015L59.1055 40.4838L49.7965 56.4453L17.9553 56.3029Z" fill="#FFAD64"/>
<path d="M64.9661 30.2354L59.0069 40.557L41.5519 40.5365L47.1099 30.9102L30.6914 2.50781L49.169 2.58888L64.9661 30.2354Z" fill="#ADD4D3"/>
<path d="M18.8762 2.45117H30.7946L39.5042 17.5782L28.3885 17.5777L12.0007 45.9979L2.83203 29.9553L18.8762 2.45117Z" fill="#FB8351"/>
<path fill-rule="evenodd" clip-rule="evenodd" d="M32.2463 0.0616566L32.2108 0H17.4668L0 29.9431L11.99 50.9223L12.0047 50.8969L16.5374 58.7478L51.2023 58.9029L63.3759 38.0295H63.2949L67.792 30.2404L50.5939 0.142154L32.2463 0.0616566ZM43.6518 20.0302H43.7437L35.0767 4.97739L47.7413 5.03291L62.1375 30.2277L57.6314 38.0327L45.8226 38.0389L49.9399 30.9081L43.6518 20.0302ZM29.2438 4.90318L35.1536 15.1267L26.9712 15.1264L12.9627 39.4199L12.0072 41.0706L5.6619 29.9681L20.2831 4.90318H29.2438ZM23.5619 30.8543L29.8037 20.0297L37.9881 20.03L44.2772 30.9095L40.159 38.0421L27.7154 38.0488L23.5619 30.8543ZM14.8338 45.9906L17.2085 41.8725L20.7398 35.7729L24.8853 42.9535L37.327 42.9468L37.3069 42.9816L54.7996 43.0023L48.3932 53.987L19.3756 53.8572L14.8338 45.9906Z" fill="#333237"/>
<path d="M82.0702 50.3735V38.8959H77.8281V37.6074H87.9379V38.8959H83.6957V50.3735H82.0702Z" fill="white"/>
<path d="M92.4566 50.5719C90.7782 50.5719 89.5228 50.1689 88.6903 49.3628C87.8576 48.5567 87.4414 47.3144 87.4414 45.6359C87.4414 44.1295 87.7982 42.9467 88.5118 42.0877C89.2386 41.2155 90.3818 40.7793 91.9412 40.7793C92.8662 40.7793 93.6261 40.9511 94.2208 41.2948C94.8287 41.6251 95.2782 42.0877 95.5689 42.6824C95.8728 43.2639 96.0247 43.9247 96.0247 44.6647V46.4289H89.0669C89.1197 47.1426 89.2717 47.7042 89.5228 48.1139C89.7871 48.5236 90.1769 48.8209 90.6924 49.006C91.2209 49.1777 91.9148 49.2636 92.7738 49.2636C93.7384 49.2636 94.6239 49.0985 95.43 48.768V50.0367C95.0204 50.2086 94.5578 50.3407 94.0424 50.4332C93.5402 50.5257 93.0117 50.5719 92.4566 50.5719ZM89.0669 45.2594H94.5777V44.4863C94.5777 43.7197 94.3728 43.1317 93.9631 42.7221C93.5667 42.2992 92.9059 42.0877 91.9808 42.0877C90.8575 42.0877 90.0911 42.352 89.6813 42.8806C89.2717 43.4092 89.0669 44.2021 89.0669 45.2594Z" fill="white"/>
<path d="M102.845 50.5719C101.206 50.5719 99.9901 50.1491 99.1973 49.3033C98.4043 48.4443 98.0078 47.235 98.0078 45.6756C98.0078 44.0237 98.4571 42.7947 99.3558 41.9886C100.254 41.1825 101.464 40.7793 102.983 40.7793C103.605 40.7793 104.12 40.8255 104.53 40.9182C104.939 40.9974 105.336 41.1295 105.719 41.3145V42.603C105.005 42.2595 104.193 42.0877 103.281 42.0877C102.118 42.0877 101.219 42.3653 100.585 42.9203C99.9504 43.4621 99.6333 44.3805 99.6333 45.6756C99.6333 46.9179 99.9109 47.8298 100.466 48.4112C101.021 48.9796 101.939 49.2636 103.221 49.2636C104.133 49.2636 104.972 49.0919 105.739 48.7482V50.0566C105.329 50.2284 104.886 50.3539 104.411 50.4332C103.948 50.5257 103.426 50.5719 102.845 50.5719Z" fill="white"/>
<path d="M107.562 50.3725V37.0117H109.188V41.9874C109.624 41.6306 110.133 41.3399 110.714 41.1152C111.309 40.8904 111.996 40.7781 112.776 40.7781C113.912 40.7781 114.765 41.0557 115.333 41.6108C115.902 42.1658 116.186 43.038 116.186 44.2273V50.3725H114.56V44.2868C114.56 43.4675 114.375 42.8993 114.005 42.582C113.648 42.2517 113.054 42.0864 112.221 42.0864C111.692 42.0864 111.144 42.2053 110.576 42.4433C110.021 42.6679 109.558 42.9654 109.188 43.3353V50.3725H107.562Z" fill="white"/>
<path d="M122.67 50.5727C121.348 50.5727 120.291 50.282 119.498 49.7004C118.705 49.1189 118.309 48.3392 118.309 47.3612C118.309 46.4626 118.586 45.6895 119.141 45.0419C119.696 44.3944 120.456 43.8195 121.421 43.3174C120.905 42.802 120.469 42.3196 120.112 41.8703C119.756 41.421 119.577 40.8791 119.577 40.2448C119.577 39.4518 119.848 38.7845 120.39 38.2427C120.945 37.6876 121.725 37.4102 122.729 37.4102C123.707 37.4102 124.467 37.6678 125.009 38.1832C125.55 38.6985 125.822 39.3858 125.822 40.2448C125.822 40.9584 125.63 41.5597 125.246 42.0487C124.863 42.5377 124.315 43.0332 123.601 43.5355L126.892 46.8855C127.116 46.3966 127.229 45.7754 127.229 45.0221V44.7447H128.518V45.0221C128.518 45.5376 128.458 46.0397 128.339 46.5287C128.221 47.0177 128.048 47.4406 127.824 47.7974L129.608 49.6013L128.616 50.4933L127.03 48.9274C126.568 49.4955 125.967 49.9119 125.227 50.1762C124.487 50.4405 123.634 50.5727 122.67 50.5727ZM122.59 42.7425C123.211 42.3593 123.681 41.9959 123.998 41.6522C124.315 41.2954 124.474 40.8461 124.474 40.3043C124.474 39.8021 124.335 39.4056 124.057 39.1149C123.793 38.811 123.35 38.659 122.729 38.659C122.095 38.659 121.632 38.8176 121.342 39.1347C121.064 39.4518 120.925 39.8418 120.925 40.3043C120.925 40.7272 121.071 41.117 121.361 41.4738C121.665 41.8306 122.075 42.2535 122.59 42.7425ZM122.67 49.4031C123.436 49.4031 124.09 49.2907 124.632 49.0661C125.187 48.8282 125.656 48.4781 126.04 48.0155L122.412 44.3085C121.553 44.705 120.912 45.1344 120.489 45.597C120.08 46.0463 119.875 46.6212 119.875 47.3217C119.875 48.0088 120.139 48.5309 120.668 48.8877C121.196 49.2312 121.864 49.4031 122.67 49.4031Z" fill="#FB8351"/>
<path d="M78.4688 28.3401V10.6641H83.6288V24.3876H91.5886V28.3401H78.4688Z" fill="#FB8351"/>
<path d="M99.8919 28.6157C97.2936 28.6157 95.3722 28.0392 94.1279 26.8864C92.9021 25.7336 92.2891 24.0502 92.2891 21.8361C92.2891 19.6404 92.9112 17.9661 94.1555 16.8133C95.3998 15.6422 97.3118 15.0566 99.8919 15.0566C102.49 15.0566 104.412 15.6422 105.656 16.8133C106.919 17.9661 107.55 19.6404 107.55 21.8361C107.55 24.0502 106.928 25.7336 105.683 26.8864C104.439 28.0392 102.509 28.6157 99.8919 28.6157ZM99.8919 24.8553C100.734 24.8553 101.338 24.6175 101.703 24.1417C102.088 23.666 102.28 22.8974 102.28 21.8361C102.28 20.7932 102.088 20.0337 101.703 19.558C101.338 19.0639 100.734 18.8169 99.8919 18.8169C99.0685 18.8169 98.4738 19.0639 98.1078 19.558C97.7419 20.0337 97.5589 20.7932 97.5589 21.8361C97.5589 22.8974 97.7419 23.666 98.1078 24.1417C98.4738 24.6175 99.0685 24.8553 99.8919 24.8553Z" fill="#FB8351"/>
<path d="M115.192 33.1719C114.551 33.1719 113.856 33.1445 113.106 33.0895C112.355 33.053 111.642 32.9798 110.965 32.87C110.306 32.7603 109.757 32.6321 109.318 32.4857V29.192C109.812 29.3567 110.379 29.494 111.02 29.6037C111.678 29.7135 112.346 29.7959 113.023 29.8508C113.7 29.9056 114.322 29.9332 114.89 29.9332C115.859 29.9332 116.619 29.8782 117.168 29.7685C117.735 29.677 118.019 29.5031 118.019 29.2469C118.019 29.0274 117.927 28.881 117.744 28.8078C117.561 28.7528 117.214 28.7254 116.701 28.7254H113.27C111.935 28.7254 110.901 28.515 110.169 28.0941C109.455 27.655 109.098 27.0054 109.098 26.1454C109.098 24.9376 109.766 24.096 111.102 23.6203C110.352 23.2359 109.803 22.7511 109.455 22.1655C109.107 21.58 108.934 20.8389 108.934 19.9423C108.934 18.2588 109.501 17.0237 110.635 16.2368C111.788 15.4501 113.444 15.0566 115.603 15.0566C116.061 15.0566 116.573 15.0932 117.14 15.1664C117.708 15.2213 118.119 15.2763 118.375 15.3311H123.481L123.371 18.4601H121.642C121.971 18.881 122.136 19.3933 122.136 19.9972C122.136 21.333 121.742 22.3943 120.955 23.1811C120.187 23.9496 118.97 24.3339 117.305 24.3339C117.067 24.3339 116.811 24.3248 116.536 24.3064C116.262 24.2698 116.006 24.2424 115.768 24.224C115.365 24.2607 115.018 24.3339 114.725 24.4437C114.432 24.5534 114.286 24.7364 114.286 24.9926C114.286 25.1756 114.368 25.3037 114.533 25.3768C114.698 25.4318 114.926 25.4592 115.219 25.4592H118.211C119.546 25.4592 120.599 25.7703 121.367 26.3924C122.136 27.0146 122.52 27.9294 122.52 29.1372C122.52 30.418 121.925 31.4061 120.736 32.1014C119.546 32.8151 117.698 33.1719 115.192 33.1719ZM115.631 21.5068C116.436 21.5068 116.994 21.3695 117.305 21.0951C117.616 20.8206 117.772 20.3632 117.772 19.7227C117.772 19.0822 117.616 18.6156 117.305 18.3229C116.994 18.0302 116.436 17.8837 115.631 17.8837C114.881 17.8837 114.332 18.0302 113.984 18.3229C113.655 18.5974 113.49 19.0639 113.49 19.7227C113.49 20.3449 113.645 20.8023 113.956 21.0951C114.286 21.3695 114.844 21.5068 115.631 21.5068Z" fill="#FB8351"/>
<path d="M131.897 28.6157C129.298 28.6157 127.377 28.0392 126.132 26.8864C124.906 25.7336 124.293 24.0502 124.293 21.8361C124.293 19.6404 124.915 17.9661 126.159 16.8133C127.404 15.6422 129.316 15.0566 131.897 15.0566C134.494 15.0566 136.415 15.6422 137.66 16.8133C138.923 17.9661 139.554 19.6404 139.554 21.8361C139.554 24.0502 138.932 25.7336 137.687 26.8864C136.442 28.0392 134.513 28.6157 131.897 28.6157ZM131.897 24.8553C132.737 24.8553 133.341 24.6175 133.708 24.1417C134.092 23.666 134.284 22.8974 134.284 21.8361C134.284 20.7932 134.092 20.0337 133.708 19.558C133.341 19.0639 132.737 18.8169 131.897 18.8169C131.073 18.8169 130.478 19.0639 130.111 19.558C129.746 20.0337 129.563 20.7932 129.563 21.8361C129.563 22.8974 129.746 23.666 130.111 24.1417C130.478 24.6175 131.073 24.8553 131.897 24.8553Z" fill="#FB8351"/>
<path d="M141.821 13.602V9.86914H147.393V13.602H141.821ZM142.232 28.3412V19.0915H140.34L140.778 15.3312H147.393V28.3412H142.232Z" fill="white"/>
<path d="M149.867 34.2697V15.3311H154.342L154.589 16.374C155.118 15.9532 155.695 15.633 156.317 15.4135C156.958 15.1755 157.699 15.0566 158.541 15.0566C160.48 15.0566 161.972 15.5506 163.015 16.5387C164.075 17.5085 164.606 19.1646 164.606 21.5067C164.606 23.8307 164.048 25.5963 162.932 26.8041C161.816 28.0118 160.279 28.6155 158.321 28.6155C157.022 28.6155 155.924 28.3686 155.027 27.8745V34.2697H149.867ZM157.003 24.8553C157.754 24.8553 158.331 24.59 158.733 24.0593C159.136 23.5287 159.337 22.7053 159.337 21.589C159.337 20.5095 159.144 19.7776 158.76 19.3933C158.394 19.009 157.827 18.8169 157.058 18.8169C156.29 18.8169 155.613 19.0731 155.027 19.5854V24.1966C155.321 24.4161 155.613 24.5808 155.906 24.6906C156.198 24.8003 156.564 24.8553 157.003 24.8553Z" fill="white"/>
<path d="M171.482 28.6155C170.366 28.6155 169.314 28.5333 168.326 28.3686C167.356 28.2222 166.588 28.0301 166.02 27.7921V24.0867C166.66 24.3796 167.42 24.6082 168.297 24.7729C169.195 24.9376 169.955 25.02 170.575 25.02C171.235 25.02 171.729 25.0017 172.058 24.965C172.407 24.9285 172.579 24.7729 172.579 24.4985C172.579 24.1875 172.278 23.9496 171.674 23.7848C171.071 23.6201 170.311 23.3822 169.396 23.0712C168.206 22.6503 167.318 22.1564 166.733 21.589C166.148 21.0218 165.855 20.1985 165.855 19.1187C165.855 17.8197 166.368 16.8224 167.393 16.1271C168.417 15.4135 170.027 15.0566 172.222 15.0566C173.065 15.0566 173.934 15.1206 174.83 15.2487C175.726 15.3768 176.431 15.5232 176.944 15.6879V19.311C176.394 19.0731 175.791 18.8992 175.133 18.7895C174.492 18.6796 173.907 18.6248 173.376 18.6248C172.79 18.6248 172.268 18.6522 171.811 18.7071C171.353 18.7619 171.125 18.9175 171.125 19.1737C171.125 19.4664 171.382 19.6769 171.894 19.805C172.424 19.9331 173.129 20.1344 174.006 20.4088C174.996 20.7016 175.763 21.0218 176.313 21.3695C176.88 21.7172 177.273 22.1379 177.493 22.6321C177.73 23.1262 177.85 23.739 177.85 24.4711C177.85 25.7886 177.309 26.8132 176.23 27.5451C175.168 28.2587 173.585 28.6155 171.482 28.6155Z" fill="white"/>
<path d="M184.501 28.6145C182.983 28.6145 181.794 28.1846 180.933 27.3245C180.074 26.4645 179.645 25.2019 179.645 23.5368V15.3301H184.804V23.1252C184.804 24.2595 185.381 24.8269 186.532 24.8269C186.953 24.8269 187.366 24.7354 187.768 24.5524C188.171 24.3694 188.491 24.1406 188.729 23.8662V15.3301H193.888V28.34H189.059L188.922 27.352C188.409 27.7179 187.777 28.0199 187.028 28.2577C186.296 28.4956 185.453 28.6145 184.501 28.6145Z" fill="white"/>
<path d="M196.344 28.3411V15.3311H201.119L201.256 16.374C201.824 15.9898 202.455 15.6788 203.15 15.4409C203.864 15.1847 204.642 15.0566 205.484 15.0566C206.325 15.0566 206.984 15.1755 207.459 15.4135C207.936 15.6512 208.32 15.9989 208.612 16.4563C209.198 16.0356 209.857 15.697 210.589 15.4409C211.338 15.1847 212.218 15.0566 213.224 15.0566C214.742 15.0566 215.859 15.4591 216.572 16.2642C217.286 17.0511 217.643 18.2588 217.643 19.8873V28.3411H212.564V20.4912C212.564 19.9056 212.446 19.494 212.208 19.256C211.971 18.9998 211.577 18.8718 211.027 18.8718C210.314 18.8718 209.729 19.128 209.272 19.6403C209.307 19.8782 209.326 20.107 209.326 20.3265C209.326 20.5277 209.326 20.7565 209.326 21.0127V28.3411H204.55V20.4088C204.55 19.8782 204.459 19.494 204.276 19.256C204.092 18.9998 203.745 18.8718 203.233 18.8718C202.885 18.8718 202.547 18.9633 202.217 19.1463C201.887 19.3293 201.595 19.5488 201.339 19.805V28.3411H196.344Z" fill="white"/>
<path d="M138.011 50.7367C136.637 50.7367 135.493 50.479 134.581 49.9636C133.684 49.435 133.01 48.7015 132.56 47.7632C132.111 46.8118 131.887 45.7017 131.887 44.433C131.887 43.0454 132.098 41.8361 132.52 40.8054C132.943 39.7746 133.604 38.9816 134.503 38.4266C135.402 37.8584 136.564 37.5742 137.991 37.5742C138.732 37.5742 139.398 37.627 139.993 37.7328C140.602 37.8385 141.17 37.9838 141.699 38.169V39.5962C141.17 39.398 140.609 39.246 140.013 39.1402C139.418 39.0213 138.792 38.9618 138.131 38.9618C136.981 38.9618 136.069 39.1799 135.395 39.616C134.721 40.0521 134.239 40.6798 133.948 41.4992C133.656 42.3185 133.511 43.2965 133.511 44.433C133.511 46.0056 133.882 47.2214 134.621 48.0805C135.375 48.9263 136.558 49.3492 138.169 49.3492C138.765 49.3492 139.366 49.3028 139.974 49.2103C140.594 49.1178 141.17 48.9725 141.699 48.7743V50.2214C141.182 50.3799 140.621 50.5054 140.013 50.598C139.418 50.6905 138.752 50.7367 138.011 50.7367Z" fill="white"/>
<path d="M148.373 50.736C146.734 50.736 145.538 50.3197 144.785 49.4872C144.045 48.6414 143.676 47.4255 143.676 45.8397C143.676 44.267 144.053 43.0578 144.805 42.212C145.558 41.3663 146.749 40.9434 148.373 40.9434C149.999 40.9434 151.189 41.3663 151.941 42.212C152.695 43.0578 153.071 44.267 153.071 45.8397C153.071 47.4255 152.702 48.6414 151.961 49.4872C151.222 50.3197 150.026 50.736 148.373 50.736ZM148.373 49.3484C149.496 49.3484 150.29 49.0708 150.752 48.5158C151.215 47.9476 151.446 47.0556 151.446 45.8397C151.446 44.6238 151.209 43.7385 150.732 43.1834C150.27 42.6151 149.483 42.3309 148.373 42.3309C147.264 42.3309 146.47 42.6151 145.995 43.1834C145.533 43.7385 145.301 44.6238 145.301 45.8397C145.301 47.0556 145.533 47.9476 145.995 48.5158C146.457 49.0708 147.25 49.3484 148.373 49.3484Z" fill="white"/>
<path d="M155.059 50.5377V49.1699H156.526V50.5377H155.059Z" fill="white"/>
</svg>
