<svg width="213" height="59" viewBox="0 0 213 59" fill="none" xmlns="http://www.w3.org/2000/svg">
<path fill-rule="evenodd" clip-rule="evenodd" d="M105.235 6.43602C107.288 4.38331 110.616 4.38331 112.669 6.43602C114.722 8.48887 114.722 11.8171 112.669 13.87L100.154 26.3855C96.5602 21.5697 96.9506 14.7207 101.325 10.3466L105.235 6.43602Z" fill="#4F9E91"/>
<path fill-rule="evenodd" clip-rule="evenodd" d="M123.129 34.6727C125.182 36.7254 125.182 40.0538 123.129 42.1065C121.077 44.1593 117.748 44.1593 115.695 42.1065L103.18 29.5911C107.995 25.9978 114.844 26.388 119.219 30.7621L123.129 34.6727Z" fill="#EBE1C5"/>
<path fill-rule="evenodd" clip-rule="evenodd" d="M94.8914 52.5645C92.8387 54.6174 89.5103 54.6174 87.4576 52.5645C85.4048 50.5117 85.4048 47.1834 87.4576 45.1306L99.973 32.6152C103.566 37.431 103.176 44.28 98.802 48.6539L94.8914 52.5645Z" fill="#EBCC6E"/>
<path fill-rule="evenodd" clip-rule="evenodd" d="M77.0006 24.3271C74.9477 22.2742 74.9477 18.946 77.0006 16.8932C79.0534 14.8403 82.3817 14.8403 84.4345 16.8932L96.95 29.4087C92.1343 33.002 85.2851 32.6116 80.9112 28.2377L77.0006 24.3271Z" fill="#ED834E"/>
<path fill-rule="evenodd" clip-rule="evenodd" d="M102.438 51.0311C105.464 47.6656 106.871 43.3592 106.658 39.1191L112.669 45.1298C112.683 45.1447 112.699 45.1597 112.714 45.1746V49.4658C112.714 52.3689 110.36 54.7223 107.457 54.7223C105.099 54.7223 103.104 53.1698 102.438 51.0311Z" fill="#ED834E"/>
<path fill-rule="evenodd" clip-rule="evenodd" d="M78.5311 31.875C81.8965 34.9021 86.2029 36.3089 90.4429 36.0955L84.4324 42.1061C84.4173 42.1211 84.4024 42.1362 84.3876 42.1511H80.0964C77.1933 42.1513 74.8398 39.7977 74.8398 36.8946C74.8398 34.5367 76.3924 32.5412 78.5311 31.875Z" fill="#4F9E91"/>
<path fill-rule="evenodd" clip-rule="evenodd" d="M121.595 27.1239C118.23 24.0968 113.924 22.69 109.684 22.9033L115.694 16.8928C115.709 16.8778 115.724 16.8627 115.739 16.8477H120.03C122.934 16.8477 125.287 19.2012 125.287 22.1043C125.287 24.4624 123.734 26.4577 121.595 27.1239Z" fill="#EBCC6E"/>
<path fill-rule="evenodd" clip-rule="evenodd" d="M97.6863 7.96872C94.6592 11.3341 93.2525 15.6405 93.4658 19.8807L87.4553 13.8701C87.4402 13.8551 87.4252 13.8402 87.4102 13.8252V9.53403C87.4102 6.63092 89.7636 4.27734 92.6667 4.27734C95.0247 4.27734 97.02 5.83007 97.6863 7.96872Z" fill="#EBE1C5"/>
<path fill-rule="evenodd" clip-rule="evenodd" d="M92.6675 0C87.4023 0 83.1341 4.26828 83.1341 9.5334V11.3876C79.9665 10.56 76.456 11.3872 73.9737 13.8694C70.2507 17.5925 70.2507 23.6287 73.9737 27.3517L75.2847 28.6628C72.4597 30.3174 70.5625 33.3846 70.5625 36.8949C70.5625 42.16 74.8308 46.4283 80.0959 46.4283H81.95C81.1223 49.5959 81.9495 53.1064 84.4318 55.5885C88.1548 59.3115 94.191 59.3115 97.9141 55.5885L101.825 51.678C105.274 48.2284 106.885 43.6363 106.658 39.1196L112.669 45.1303C116.392 48.8533 122.428 48.8533 126.151 45.1303C129.875 41.4072 129.875 35.371 126.151 31.6481L124.841 30.3372C127.665 28.6826 129.563 25.6154 129.563 22.1051C129.563 16.84 125.293 12.5717 120.029 12.5717H118.175C119.003 9.40397 118.175 5.89349 115.693 3.41122C111.97 -0.31182 105.934 -0.31182 102.211 3.41122L98.3002 7.32183C94.8505 10.7715 93.2393 15.3634 93.4667 19.8801L87.456 13.8694C87.4409 13.8545 87.426 13.8395 87.4109 13.8246V9.5334C87.4109 6.63029 89.7644 4.27686 92.6675 4.27686C95.0255 4.27686 97.0208 5.82944 97.687 7.96809C97.8845 7.74858 98.0888 7.53306 98.3 7.32183L100.9 4.72225C99.2449 1.89724 96.1778 0 92.6675 0ZM115.738 16.8486C115.723 16.8635 115.708 16.8786 115.693 16.8935L109.682 22.904C113.923 22.6907 118.229 24.0975 121.594 27.1247C123.733 26.4584 125.286 24.463 125.286 22.1051C125.286 19.202 122.933 16.8486 120.029 16.8486H115.738ZM84.3868 42.1514C84.4018 42.1363 84.4167 42.1213 84.4318 42.1063L90.4423 36.0957C86.2022 36.3091 81.896 34.9022 78.5306 31.8753C76.3919 32.5416 74.8392 34.5369 74.8392 36.8949C74.8392 39.798 77.1928 42.1514 80.0959 42.1514H84.3868ZM78.3667 31.7259C78.2035 31.5752 78.0427 31.4206 77.8843 31.2622V31.2623C78.0427 31.4208 78.2035 31.5752 78.3667 31.7259ZM107.457 59C103.947 59 100.88 57.1026 99.2251 54.2776L101.825 51.678C102.036 51.4668 102.24 51.2513 102.438 51.0318C103.104 53.1704 105.099 54.7231 107.457 54.7231C110.361 54.7231 112.714 52.3697 112.714 49.4666V45.1754C113.946 46.3912 115.427 47.2035 116.991 47.6123V49.4666C116.991 54.7317 112.723 59 107.457 59ZM112.669 6.43533C110.616 4.38262 107.288 4.38262 105.235 6.43533L101.324 10.3459C96.9504 14.72 96.56 21.569 100.153 26.3848L112.669 13.8693C114.722 11.8164 114.722 8.48819 112.669 6.43533ZM123.126 42.1062C125.18 40.0533 125.18 36.7251 123.126 34.6722L119.216 30.7616C114.842 26.3877 107.993 25.9974 103.177 29.5907L115.693 42.1062C117.746 44.159 121.075 44.159 123.126 42.1062ZM94.8898 52.5644C92.837 54.6172 89.5087 54.6172 87.4559 52.5644C85.4032 50.5115 85.4032 47.1833 87.4559 45.1304L99.9714 32.6149C103.565 37.4307 103.174 44.2799 98.8004 48.6538L94.8898 52.5644ZM76.9978 16.8935C74.9451 18.9464 74.9451 22.2746 76.9978 24.3275L80.9084 28.2381C85.2825 32.612 92.1315 33.0023 96.9473 29.409L84.4318 16.8935C82.3789 14.8408 79.0507 14.8408 76.9978 16.8935Z" fill="#3D3A2C"/>
<path d="M0 19.2773H4.67521V33.805H12.705V37.7406H0V19.2773Z" fill="white"/>
<path d="M21.1935 38.1371C19.6263 38.1371 18.2527 37.8553 17.0729 37.2919C15.8931 36.7107 14.9774 35.9183 14.3258 34.9146C13.692 33.8932 13.375 32.7223 13.375 31.4015C13.375 30.0808 13.692 28.9186 14.3258 27.915C14.9774 26.8936 15.8931 26.1011 17.0729 25.5377C18.2527 24.9565 19.6263 24.666 21.1935 24.666C22.7608 24.666 24.1342 24.9565 25.314 25.5377C26.4939 26.1011 27.4008 26.8936 28.0346 27.915C28.6862 28.9186 29.0119 30.0808 29.0119 31.4015C29.0119 32.7223 28.6862 33.8932 28.0346 34.9146C27.4008 35.9183 26.4939 36.7107 25.314 37.2919C24.1342 37.8553 22.7608 38.1371 21.1935 38.1371ZM21.1935 34.5183C22.1268 34.5183 22.8664 34.2454 23.4122 33.6996C23.9758 33.136 24.2574 32.3701 24.2574 31.4015C24.2574 30.433 23.9758 29.6758 23.4122 29.13C22.8664 28.5664 22.1268 28.2848 21.1935 28.2848C20.2602 28.2848 19.5118 28.5664 18.9484 29.13C18.4024 29.6758 18.1295 30.433 18.1295 31.4015C18.1295 32.3701 18.4024 33.136 18.9484 33.6996C19.5118 34.2454 20.2602 34.5183 21.1935 34.5183Z" fill="white"/>
<path d="M37.7426 43.8161C36.8973 43.8161 36.0432 43.7368 35.1804 43.5784C34.3352 43.4198 33.6043 43.2086 32.9881 42.9444V39.7219C34.3791 40.3206 35.964 40.6199 37.7426 40.6199C39.028 40.6199 39.9525 40.3558 40.516 39.8275C41.0971 39.2993 41.3877 38.5245 41.3877 37.5031V36.7372C40.877 37.1774 40.243 37.5207 39.4858 37.7673C38.7462 38.0139 37.9538 38.1371 37.1086 38.1371C35.7703 38.1371 34.5905 37.8553 33.5691 37.2919C32.5479 36.7283 31.7466 35.9359 31.1655 34.9146C30.602 33.8932 30.3203 32.7223 30.3203 31.4015C30.3203 30.0632 30.602 28.8834 31.1655 27.8622C31.729 26.8408 32.5214 26.0571 33.5428 25.5112C34.564 24.9478 35.7351 24.666 37.0558 24.666C38.8696 24.666 40.3663 25.2207 41.5461 26.3301V25.0621H46.0365V36.8692C46.0365 39.0703 45.3585 40.7785 44.0026 41.9935C42.6644 43.2086 40.5776 43.8161 37.7426 43.8161ZM38.2708 34.5448C38.9928 34.5448 39.6355 34.3599 40.199 33.9901C40.7625 33.6203 41.1587 33.1273 41.3877 32.5109V30.2922C41.1411 29.6758 40.7361 29.1915 40.1726 28.8393C39.609 28.4697 38.9752 28.2848 38.2708 28.2848C37.32 28.2848 36.5539 28.5664 35.9728 29.13C35.3917 29.6758 35.1011 30.4242 35.1011 31.3751C35.1011 32.3436 35.3917 33.1184 35.9728 33.6996C36.5539 34.263 37.32 34.5448 38.2708 34.5448Z" fill="white"/>
<path d="M55.0373 38.1371C53.4701 38.1371 52.0966 37.8553 50.9168 37.2919C49.737 36.7107 48.8212 35.9183 48.1697 34.9146C47.5357 33.8932 47.2188 32.7223 47.2188 31.4015C47.2188 30.0808 47.5357 28.9186 48.1697 27.915C48.8212 26.8936 49.737 26.1011 50.9168 25.5377C52.0966 24.9565 53.4701 24.666 55.0373 24.666C56.6045 24.666 57.978 24.9565 59.1578 25.5377C60.3376 26.1011 61.2445 26.8936 61.8785 27.915C62.53 28.9186 62.8558 30.0808 62.8558 31.4015C62.8558 32.7223 62.53 33.8932 61.8785 34.9146C61.2445 35.9183 60.3376 36.7107 59.1578 37.2919C57.978 37.8553 56.6045 38.1371 55.0373 38.1371ZM55.0373 34.5183C55.9705 34.5183 56.7101 34.2454 57.2561 33.6996C57.8195 33.136 58.1013 32.3701 58.1013 31.4015C58.1013 30.433 57.8195 29.6758 57.2561 29.13C56.7101 28.5664 55.9705 28.2848 55.0373 28.2848C54.1041 28.2848 53.3556 28.5664 52.7921 29.13C52.2462 29.6758 51.9732 30.433 51.9732 31.4015C51.9732 32.3701 52.2462 33.136 52.7921 33.6996C53.3556 34.2454 54.1041 34.5183 55.0373 34.5183Z" fill="white"/>
<path d="M137.418 19.2773H142.094V37.7406H137.418V19.2773Z" fill="white"/>
<path d="M144.461 25.0621H148.952V26.3301C150.131 25.2207 151.628 24.666 153.441 24.666C154.762 24.666 155.934 24.9478 156.954 25.5112C157.977 26.0571 158.768 26.8408 159.331 27.8622C159.895 28.8658 160.178 30.0369 160.178 31.3751C160.178 32.6958 159.895 33.8756 159.331 34.9146C158.768 35.9359 157.977 36.7283 156.954 37.2919C155.951 37.8553 154.78 38.1371 153.441 38.1371C152.597 38.1371 151.786 38.005 151.012 37.7408C150.255 37.4944 149.62 37.1509 149.11 36.7107V43.5254H144.461V25.0621ZM152.227 34.5183C153.178 34.5183 153.944 34.2367 154.524 33.6731C155.105 33.1097 155.397 32.3436 155.397 31.3751C155.397 30.4066 155.105 29.6495 154.524 29.1035C153.944 28.5401 153.178 28.2583 152.227 28.2583C151.523 28.2583 150.888 28.4432 150.325 28.813C149.761 29.1652 149.357 29.6495 149.11 30.2657V32.5109C149.357 33.1273 149.761 33.6203 150.325 33.9901C150.888 34.3423 151.523 34.5183 152.227 34.5183Z" fill="white"/>
<path d="M167.109 38.1371C166.088 38.1371 165.023 38.0315 163.913 37.8201C162.804 37.6265 161.922 37.3447 161.272 36.9749V33.5675C161.993 33.9901 162.856 34.3423 163.86 34.6241C164.881 34.8881 165.814 35.0202 166.66 35.0202C167.276 35.0202 167.725 34.9761 168.006 34.8881C168.289 34.8001 168.429 34.6241 168.429 34.3599C168.429 34.1485 168.333 33.9812 168.14 33.858C167.964 33.7172 167.628 33.5762 167.135 33.4354C166.66 33.277 166.106 33.1097 165.471 32.9335C164.397 32.6165 163.553 32.2908 162.936 31.9562C162.319 31.6216 161.862 31.199 161.561 30.6883C161.263 30.1777 161.113 29.535 161.113 28.7602C161.113 27.3866 161.65 26.3653 162.724 25.6961C163.816 25.0093 165.304 24.666 167.188 24.666C168.104 24.666 169.064 24.7629 170.067 24.9565C171.089 25.1503 171.854 25.4056 172.366 25.7226V29.0772C171.838 28.725 171.132 28.4343 170.252 28.2055C169.39 27.9765 168.579 27.8622 167.822 27.8622C167.224 27.8622 166.756 27.9237 166.422 28.0469C166.088 28.1527 165.921 28.3463 165.921 28.6281C165.921 28.8923 166.088 29.0948 166.422 29.2356C166.756 29.3764 167.356 29.5526 168.218 29.7638C168.782 29.9048 169.02 29.9663 168.931 29.9487C170.058 30.2481 170.929 30.5827 171.546 30.9525C172.163 31.3223 172.593 31.7626 172.841 32.2732C173.105 32.7662 173.237 33.4002 173.237 34.175C173.237 35.39 172.709 36.3585 171.653 37.0805C170.613 37.7849 169.098 38.1371 167.109 38.1371Z" fill="white"/>
<path d="M180.174 38.1374C178.432 38.1374 177.12 37.6531 176.24 36.6847C175.377 35.7161 174.945 34.4395 174.945 32.8547V25.0625H179.594V32.3263C179.594 33.7879 180.254 34.5187 181.575 34.5187C182.174 34.5187 182.72 34.3779 183.213 34.0961C183.705 33.8143 184.111 33.4005 184.427 32.8547V25.0625H189.076V37.7412H184.587V36.3677C184.041 36.9487 183.38 37.389 182.605 37.6883C181.831 37.9877 181.02 38.1374 180.174 38.1374Z" fill="white"/>
<path d="M191.457 25.0621H195.763V26.4357C196.291 25.8723 196.899 25.4408 197.585 25.1414C198.272 24.8244 199.003 24.666 199.778 24.666C200.729 24.666 201.486 24.8068 202.05 25.0886C202.631 25.3704 203.097 25.793 203.449 26.3565C203.977 25.8282 204.621 25.4144 205.378 25.1151C206.135 24.8157 206.902 24.666 207.675 24.666C209.348 24.666 210.537 25.0975 211.242 25.9603C211.946 26.8056 212.298 28.0293 212.298 29.6317V37.7408H207.86V30.2922C207.86 29.5878 207.728 29.0772 207.464 28.7602C207.2 28.4432 206.76 28.2848 206.144 28.2848C205.351 28.2848 204.708 28.5664 204.215 29.13C204.233 29.4292 204.242 29.8872 204.242 30.5034V37.7408H199.804V30.1073C199.804 29.4557 199.69 28.989 199.461 28.7074C199.232 28.4256 198.826 28.2848 198.247 28.2848C197.347 28.2848 196.574 28.7865 195.921 29.7903V37.7408H191.457V25.0621Z" fill="white"/>
</svg>
