<svg width="295" height="59" viewBox="0 0 295 59" fill="none" xmlns="http://www.w3.org/2000/svg">
<path d="M41.8181 48.8306L2.33861 21.5977C-1.66215 18.8381 -0.302154 13.0922 4.6867 11.741L46.6463 0.352723C47.5351 0.0320001 48.4876 -0.0721106 49.4248 0.0490339C50.3619 0.170178 51.2566 0.513083 52.0347 1.04929C52.8127 1.58549 53.4517 2.29953 53.8985 3.13215C54.3453 3.96476 54.5871 4.89194 54.6038 5.83672L52.1171 44.4557C51.8222 49.0397 45.8188 51.5902 41.8181 48.8306Z" fill="#E9327C"/>
<path d="M29.297 55.554L6.03848 10.069C5.50682 9.02841 5.27286 7.86122 5.36241 6.69614C5.45196 5.53105 5.86153 4.41333 6.54596 3.46623C7.2304 2.51913 8.16309 1.77946 9.24121 1.32877C10.3193 0.878085 11.501 0.7339 12.6558 0.912114L55.7597 7.56464C56.7521 7.71782 57.694 8.10436 58.5078 8.69249C59.3217 9.28062 59.9844 10.0535 60.4413 10.9477C60.8983 11.8418 61.1365 12.8316 61.1363 13.8358C61.1362 14.8399 60.8977 15.8297 60.4405 16.7237L40.5841 55.5562C40.0509 56.5938 39.242 57.4642 38.2462 58.072C37.2505 58.6797 36.1064 59.0011 34.9399 59.0008C33.7733 59.0006 32.6294 58.6788 31.6339 58.0707C30.6384 57.4626 29.8298 56.5918 29.297 55.554V55.554Z" fill="#1DACE3"/>
<path d="M54.4972 7.3691L33.0102 4.05273L6.62891 11.2158L17.159 31.816L41.8171 48.8313C42.3611 49.2025 42.9595 49.4868 43.5908 49.6742L52.9568 31.3583L54.4972 7.3691Z" fill="#3A68B8"/>
<path d="M163.336 12.6847C163.336 11.886 163.573 11.1052 164.016 10.4412C164.46 9.7771 165.091 9.25951 165.829 8.95387C166.567 8.64823 167.379 8.56827 168.162 8.72408C168.945 8.87989 169.665 9.26449 170.23 9.82924C170.794 10.394 171.179 11.1135 171.335 11.8969C171.491 12.6802 171.411 13.4921 171.105 14.23C170.799 14.9679 170.282 15.5986 169.618 16.0423C168.954 16.486 168.173 16.7228 167.374 16.7228C166.306 16.7119 165.286 16.283 164.531 15.528C163.776 14.7731 163.347 13.7523 163.336 12.6847V12.6847ZM164.009 18.6968H170.741V41.1301H164.009V18.6968Z" fill="white"/>
<path d="M199.812 29.913C199.891 31.3958 199.675 32.8795 199.178 34.2786C198.68 35.6778 197.912 36.9648 196.915 38.0657C195.919 39.1666 194.715 40.0597 193.372 40.6935C192.029 41.3274 190.574 41.6895 189.091 41.7591C187.843 41.827 186.596 41.6166 185.44 41.1431C184.284 40.6696 183.247 39.9449 182.405 39.0215V50.1039H175.676V18.6964H182.405V20.8046C183.247 19.8815 184.284 19.1573 185.44 18.6842C186.596 18.2111 187.843 18.001 189.091 18.0692C190.574 18.1385 192.029 18.5004 193.372 19.134C194.714 19.7676 195.919 20.6605 196.915 21.7612C197.911 22.8619 198.68 24.1488 199.178 25.5478C199.675 26.9468 199.891 28.4304 199.812 29.913ZM193.083 29.913C193.056 28.8627 192.721 27.8435 192.118 26.983C191.515 26.1225 190.672 25.4589 189.694 25.0752C188.716 24.6915 187.646 24.6048 186.619 24.826C185.592 25.0472 184.653 25.5664 183.92 26.3186C183.186 27.0708 182.691 28.0227 182.496 29.0551C182.3 30.0874 182.414 31.1544 182.822 32.1225C183.23 33.0906 183.915 33.9168 184.791 34.4977C185.666 35.0786 186.693 35.3883 187.744 35.3882C188.466 35.4207 189.186 35.3003 189.857 35.0348C190.529 34.7692 191.137 34.3647 191.641 33.8476C192.145 33.3305 192.534 32.7126 192.783 32.0345C193.031 31.3564 193.134 30.6335 193.083 29.913V29.913Z" fill="white"/>
<path d="M220.584 34.3971C220.584 39.5576 216.097 41.756 211.251 41.756C209.293 41.9331 207.328 41.5188 205.608 40.5667C203.888 39.6145 202.494 38.1683 201.605 36.4151L207.437 33.0965C207.674 33.9069 208.182 34.6113 208.877 35.092C209.571 35.5727 210.409 35.8005 211.251 35.7372C212.866 35.7372 213.672 35.2421 213.672 34.3464C213.672 31.8773 202.635 33.1801 202.635 25.4163C202.635 20.5264 206.762 18.0595 211.438 18.0595C213.192 18.0045 214.929 18.4207 216.467 19.2648C218.006 20.109 219.29 21.3501 220.185 22.8591L214.444 25.9554C214.193 25.3665 213.774 24.8647 213.239 24.5124C212.705 24.1602 212.078 23.9732 211.438 23.9748C210.272 23.9748 209.554 24.415 209.554 25.2314C209.548 27.8061 220.584 26.1007 220.584 34.3971Z" fill="white"/>
<path d="M245.18 18.6973V41.1306H238.45V39.018C237.673 39.9486 236.686 40.6819 235.571 41.1577C234.455 41.6335 233.243 41.8384 232.033 41.7556C227.502 41.7556 223.645 38.525 223.645 32.4667V18.6973H230.374V31.4852C230.317 32.0199 230.378 32.5605 230.552 33.0693C230.725 33.5782 231.008 34.0431 231.379 34.4317C231.751 34.8203 232.203 35.1232 232.703 35.3193C233.204 35.5155 233.741 35.6001 234.278 35.5674C236.745 35.5674 238.459 34.1325 238.459 30.946V18.6973H245.18Z" fill="white"/>
<path d="M283.752 27.3547V41.1307H277.022V27.9401C277.022 25.6977 275.944 24.2606 273.791 24.2606C271.547 24.2606 270.292 25.8319 270.292 28.4793V41.1307H263.561V27.9401C263.561 25.6977 262.485 24.2606 260.33 24.2606C258.088 24.2606 256.831 25.8319 256.831 28.4793V41.1307H250.102V18.6974H256.842V20.7528C257.54 19.8376 258.455 19.1117 259.506 18.6416C260.556 18.1714 261.707 17.972 262.854 18.0614C264.006 18.0051 265.153 18.2481 266.183 18.7669C267.213 19.2856 268.092 20.0623 268.732 21.0213C269.478 20.0179 270.466 19.2201 271.604 18.7024C272.742 18.1848 273.993 17.9642 275.239 18.0614C280.389 18.0702 283.752 21.7475 283.752 27.3547Z" fill="white"/>
<path d="M289.452 18.5573C292.211 18.5573 294.448 16.3208 294.448 13.5619C294.448 10.8029 292.211 8.56641 289.452 8.56641C286.694 8.56641 284.457 10.8029 284.457 13.5619C284.457 16.3208 286.694 18.5573 289.452 18.5573Z" fill="white"/>
<path d="M71.4531 8.37891H78.1849V41.131H71.4531V8.37891ZM81.9964 29.9144C81.989 27.5625 82.6796 25.2612 83.9809 23.3021C85.2822 21.343 87.1355 19.814 89.3063 18.9088C91.477 18.0037 93.8675 17.763 96.1752 18.2173C98.4828 18.6716 100.604 19.8004 102.269 21.4608C103.935 23.1213 105.071 25.2386 105.532 27.5448C105.994 29.851 105.761 32.2423 104.862 34.4159C103.964 36.5895 102.441 38.4476 100.486 39.7551C98.5308 41.0625 96.2318 41.7604 93.8798 41.7604C92.3178 41.7771 90.7681 41.4824 89.3212 40.8935C87.8743 40.3045 86.5593 39.4332 85.453 38.3303C84.3467 37.2275 83.4712 35.9152 82.8777 34.4702C82.2842 33.0252 81.9846 31.4764 81.9964 29.9144V29.9144ZM99.0469 29.9144C99.0205 28.8998 98.6956 27.9156 98.1127 27.0848C97.5299 26.254 96.715 25.6135 95.77 25.2435C94.8251 24.8734 93.7919 24.7901 92.7999 25.0042C91.8079 25.2182 90.901 25.72 90.1926 26.4467C89.4843 27.1735 89.0059 28.093 88.8175 29.0902C88.629 30.0874 88.7387 31.118 89.1329 32.0532C89.5272 32.9884 90.1884 33.7865 91.0339 34.3479C91.8794 34.9092 92.8716 35.2088 93.8864 35.2091C94.5814 35.2289 95.2729 35.1045 95.9174 34.8438C96.5618 34.583 97.1453 34.1916 97.631 33.6941C98.1167 33.1967 98.494 32.604 98.7392 31.9535C98.9844 31.3029 99.0922 30.6086 99.0557 29.9144H99.0469ZM132.604 18.6911V40.0043C132.604 47.5415 126.727 50.7258 120.761 50.7258C118.661 50.8843 116.557 50.4616 114.682 49.504C112.806 48.5463 111.23 47.0908 110.127 45.2968L115.869 41.9761C116.332 42.9123 117.07 43.6848 117.985 44.1901C118.899 44.6955 119.946 44.9096 120.985 44.8039C121.648 44.8945 122.324 44.8349 122.961 44.6297C123.598 44.4245 124.181 44.0788 124.667 43.6181C125.153 43.1574 125.529 42.5936 125.768 41.9681C126.007 41.3426 126.102 40.6715 126.047 40.0043V37.9401C125.258 38.9041 124.255 39.67 123.117 40.1764C121.98 40.6827 120.739 40.9155 119.495 40.8559C116.534 40.7639 113.725 39.5229 111.663 37.3958C109.601 35.2687 108.448 32.4225 108.448 29.4599C108.448 26.4974 109.601 23.6512 111.663 21.524C113.725 19.3969 116.534 18.1559 119.495 18.0639C120.739 18.0044 121.98 18.2371 123.117 18.7435C124.255 19.2499 125.258 20.0158 126.047 20.9798V18.6911H132.604ZM126.055 29.4588C126.1 28.3753 125.819 27.3033 125.249 26.3806C124.679 25.4579 123.847 24.7268 122.858 24.2811C121.869 23.8355 120.77 23.6958 119.701 23.8799C118.633 24.0641 117.644 24.5636 116.861 25.3144C116.079 26.0652 115.539 27.0329 115.31 28.0931C115.082 29.1532 115.176 30.2574 115.581 31.2636C115.985 32.2698 116.681 33.132 117.58 33.7394C118.478 34.3469 119.538 34.6717 120.622 34.6721C121.329 34.7219 122.039 34.623 122.705 34.382C123.372 34.141 123.981 33.7631 124.492 33.2727C125.004 32.7823 125.408 32.1902 125.677 31.5345C125.946 30.8788 126.075 30.174 126.055 29.4654V29.4588ZM136.416 29.899C136.409 27.5471 137.099 25.2458 138.401 23.2867C139.702 21.3276 141.555 19.7986 143.726 18.8934C145.897 17.9883 148.287 17.7476 150.595 18.2019C152.902 18.6562 155.023 19.785 156.689 21.4454C158.355 23.1059 159.49 25.2232 159.952 27.5294C160.413 29.8356 160.18 32.2269 159.282 34.4005C158.384 36.5741 156.86 38.4322 154.905 39.7396C152.95 41.0471 150.651 41.745 148.299 41.745C146.739 41.7617 145.19 41.4675 143.744 40.8795C142.299 40.2915 140.984 39.4215 139.878 38.3203C138.772 37.2191 137.896 35.9087 137.302 34.4655C136.707 33.0223 136.406 31.4752 136.416 29.9144V29.899ZM153.467 29.899C153.441 28.8838 153.116 27.8989 152.533 27.0674C151.95 26.2359 151.135 25.5947 150.189 25.2242C149.244 24.8537 148.21 24.7702 147.217 24.9843C146.225 25.1983 145.317 25.7004 144.608 26.4276C143.9 27.1548 143.421 28.0749 143.233 29.0727C143.044 30.0706 143.154 31.1018 143.549 32.0375C143.943 32.9731 144.605 33.7716 145.451 34.333C146.298 34.8944 147.291 35.1938 148.306 35.1937C148.999 35.2121 149.688 35.0872 150.33 34.8269C150.973 34.5665 151.554 34.1763 152.039 33.6806C152.523 33.185 152.9 32.5946 153.146 31.9466C153.392 31.2985 153.501 30.6066 153.467 29.9144V29.899Z" fill="white"/>
</svg>
