<svg width="45" height="58" viewBox="0 0 45 58" fill="none" xmlns="http://www.w3.org/2000/svg">
<path d="M22.0186 6.09522C21.728 6.09522 21.4476 6.05091 21.1836 5.96875V9.94873H22.8535V5.96875C22.5896 6.05102 22.3091 6.09522 22.0186 6.09522Z" fill="#135693"/>
<path d="M22.0206 6.20715C23.637 6.20715 24.9474 4.89677 24.9474 3.28033C24.9474 1.6639 23.637 0.353516 22.0206 0.353516C20.4041 0.353516 19.0938 1.6639 19.0938 3.28033C19.0938 4.89677 20.4041 6.20715 22.0206 6.20715Z" fill="#6BC1DD"/>
<g opacity="0.15">
<path opacity="0.15" d="M21.5573 3.28033C21.5573 2.10415 22.2515 1.09051 23.2524 0.625267C22.8778 0.451262 22.4608 0.353516 22.0206 0.353516C20.4041 0.353516 19.0938 1.66396 19.0938 3.28033C19.0938 4.8967 20.4041 6.20703 22.0206 6.20703C22.4608 6.20703 22.8778 6.10929 23.2524 5.93528C22.2515 5.47015 21.5573 4.45651 21.5573 3.28033Z" fill="#440075"/>
</g>
<path d="M40.6751 14.5176H38.9492V30.4395H40.6751C41.6213 30.4395 42.3955 29.6654 42.3955 28.7193V16.2378C42.3955 15.2918 41.6213 14.5176 40.6751 14.5176Z" fill="#9EA7AF"/>
<path d="M5.0913 14.5176H3.25149C2.30531 14.5176 1.53125 15.2918 1.53125 16.2378V28.7191C1.53125 29.6653 2.30531 30.4394 3.25149 30.4394H5.09119L5.0913 14.5176Z" fill="#9EA7AF"/>
<path d="M6.26194 51.2708H3.89778C3.09065 51.2708 2.34085 51.0255 1.71875 50.6055V56.2075C1.71875 56.8383 2.23487 57.3544 2.86565 57.3544H6.26194C6.26194 57.3544 6.26194 51.2708 6.26194 51.2708Z" fill="#C5CCD3"/>
<path d="M40.1414 51.2705H37.7773V57.3543H41.1736C41.8044 57.3543 42.3205 56.8382 42.3205 56.2074V50.6055C41.6983 51.0253 40.9485 51.2705 40.1414 51.2705Z" fill="#C5CCD3"/>
<path opacity="0.15" d="M4.12722 56.2076V51.2708H3.89778C3.09065 51.2708 2.34085 51.0255 1.71875 50.6055V56.2075C1.71875 56.8383 2.23487 57.3544 2.86565 57.3544H5.27412C4.64334 57.3545 4.12722 56.8384 4.12722 56.2076Z" fill="#440075"/>
<path d="M6.26354 42.5039H3.89938C1.74585 42.5039 0 44.2498 0 46.4033V47.5502C0 49.7037 1.74596 51.4495 3.89938 51.4495H6.26343L6.26354 42.5039Z" fill="#E6E9ED"/>
<path d="M40.1414 42.502H37.7773V51.4476H40.1414C42.295 51.4476 44.0408 49.7018 44.0408 47.5483V46.4014C44.0408 44.2477 42.2949 42.502 40.1414 42.502Z" fill="#E6E9ED"/>
<g opacity="0.15">
<path opacity="0.15" d="M2.75259 47.5482V46.4013C2.75259 44.2477 4.49843 42.502 6.65196 42.502H3.89938C1.74585 42.502 0 44.2478 0 46.4013V47.5482C0 49.7018 1.74596 51.4475 3.89938 51.4475H6.65196C4.49832 51.4475 2.75259 49.7018 2.75259 47.5482Z" fill="#440075"/>
</g>
<path d="M25.8286 34.8711H18.2148V37.7162H25.8286V34.8711Z" fill="#9EA7AF"/>
<path opacity="0.15" d="M20.9893 34.8711H18.2148V37.7162H20.9893V34.8711Z" fill="#440075"/>
<path d="M30.9765 40.4317V38.5808C30.9765 38.0369 30.5314 37.5918 29.9874 37.5918H13.7196C13.1756 37.5918 12.7305 38.0369 12.7305 38.5808V40.4317H30.9765Z" fill="#C5CCD3"/>
<path opacity="0.15" d="M16.1606 40.4317V38.5808C16.1606 38.0369 16.6057 37.5918 17.1499 37.5918H13.7196C13.1756 37.5918 12.7305 38.0369 12.7305 38.5808V40.4317H16.1606Z" fill="#440075"/>
<path d="M36.1678 40.2363H7.8727C6.92652 40.2363 6.15234 41.0105 6.15234 41.9567V57.3536H37.8882V41.9567C37.8882 41.0105 37.1141 40.2363 36.1678 40.2363Z" fill="#9EA7AF"/>
<g opacity="0.15">
<path opacity="0.15" d="M11.1577 40.2363H7.8727C6.92652 40.2363 6.15234 41.0105 6.15234 41.9567V57.3536H9.4373V41.9567C9.4373 41.0105 10.2115 40.2363 11.1577 40.2363Z" fill="#440075"/>
</g>
<path d="M39.0627 33.2828C39.0627 34.229 38.2885 35.003 37.3424 35.003H6.70071C5.75464 35.003 4.98047 34.229 4.98047 33.2828V11.5581C4.98047 10.612 5.75464 9.83789 6.70071 9.83789H37.3424C38.2885 9.83789 39.0627 10.612 39.0627 11.5581V33.2828Z" fill="#C5CCD3"/>
<g opacity="0.15">
<path opacity="0.15" d="M8.25897 33.2828V11.5581C8.25897 10.612 9.03314 9.83789 9.97932 9.83789H6.70071C5.75464 9.83789 4.98047 10.612 4.98047 11.5581V33.2829C4.98047 34.2291 5.75464 35.0032 6.70071 35.0032H9.97932C9.03314 35.003 8.25897 34.229 8.25897 33.2828Z" fill="#440075"/>
</g>
<path d="M34.9911 22.4535C34.9911 25.7354 32.3307 28.3953 29.0491 28.3953H14.9929C11.7111 28.3953 9.05078 25.7353 9.05078 22.4535C9.05078 19.1718 11.7111 16.5117 14.9929 16.5117H29.0491C32.3307 16.5117 34.9911 19.1718 34.9911 22.4535Z" fill="#135693"/>
<g opacity="0.15">
<path opacity="0.15" d="M12.3872 22.4535C12.3872 19.1718 15.0475 16.5117 18.3293 16.5117H14.9929C11.7111 16.5117 9.05078 19.1719 9.05078 22.4535C9.05078 25.7354 11.7111 28.3953 14.9929 28.3953H18.3293C15.0475 28.3953 12.3872 25.7353 12.3872 22.4535Z" fill="#440075"/>
</g>
<path d="M14.4003 24.774C15.6764 24.774 16.7109 23.7355 16.7109 22.4544C16.7109 21.1733 15.6764 20.1348 14.4003 20.1348C13.1243 20.1348 12.0898 21.1733 12.0898 22.4544C12.0898 23.7355 13.1243 24.774 14.4003 24.774Z" fill="#6BC1DD"/>
<path d="M29.6894 24.774C30.9655 24.774 31.9999 23.7355 31.9999 22.4544C31.9999 21.1733 30.9655 20.1348 29.6894 20.1348C28.4134 20.1348 27.3789 21.1733 27.3789 22.4544C27.3789 23.7355 28.4134 24.774 29.6894 24.774Z" fill="#6BC1DD"/>
<path d="M32.2699 57.3543V47.3559C32.2699 46.7251 31.7538 46.209 31.123 46.209H12.9164C12.2856 46.209 11.7695 46.7251 11.7695 47.3559V57.3543H32.2699Z" fill="#135693"/>
<path d="M24.0857 57.354V54.1293C24.0857 53.94 23.9309 53.7852 23.7417 53.7852H20.301C20.1119 53.7852 19.957 53.94 19.957 54.1293V57.354H24.0857Z" fill="#FFC502"/>
<path d="M17.2032 49.7988H14.5654C14.1042 49.7988 13.7305 49.4251 13.7305 48.9639C13.7305 48.5026 14.1042 48.1289 14.5654 48.1289H17.2032C17.6645 48.1289 18.0382 48.5026 18.0382 48.9639C18.0382 49.425 17.6645 49.7988 17.2032 49.7988Z" fill="#C5CCD3"/>
<path d="M16.0564 51.8379H14.5654C14.1042 51.8379 13.7305 51.4642 13.7305 51.0029C13.7305 50.5417 14.1042 50.168 14.5654 50.168H16.0564C16.5177 50.168 16.8914 50.5417 16.8914 51.0029C16.8914 51.4642 16.5176 51.8379 16.0564 51.8379Z" fill="#C5CCD3"/>
<path d="M17.2032 53.875H14.5654C14.1042 53.875 13.7305 53.5012 13.7305 53.04C13.7305 52.5788 14.1042 52.2051 14.5654 52.2051H17.2032C17.6645 52.2051 18.0382 52.5788 18.0382 53.04C18.0382 53.5013 17.6645 53.875 17.2032 53.875Z" fill="#C5CCD3"/>
<path d="M15.7123 55.9141H14.5654C14.1042 55.9141 13.7305 55.5403 13.7305 55.0791C13.7305 54.618 14.1042 54.2441 14.5654 54.2441H15.7123C16.1736 54.2441 16.5473 54.618 16.5473 55.0791C16.5473 55.5403 16.1735 55.9141 15.7123 55.9141Z" fill="#C5CCD3"/>
<path d="M29.098 55.0735H27.062C26.5789 55.0735 26.1875 54.682 26.1875 54.1988C26.1875 53.7157 26.579 53.3242 27.062 53.3242H29.098C29.581 53.3242 29.9727 53.7158 29.9727 54.1988C29.9727 54.6821 29.581 55.0735 29.098 55.0735Z" fill="#E6E9ED"/>
<path d="M28.0791 52.043C29.0936 52.043 29.916 51.2206 29.916 50.2061C29.916 49.1916 29.0936 48.3691 28.0791 48.3691C27.0646 48.3691 26.2422 49.1916 26.2422 50.2061C26.2422 51.2206 27.0646 52.043 28.0791 52.043Z" fill="#5DC647"/>
<path d="M24.1367 51.1671C24.1367 51.3611 23.9781 51.5196 23.7843 51.5196H20.2587C20.0649 51.5196 19.9062 51.3611 19.9062 51.1671V49.2452C19.9062 49.0512 20.0649 48.8926 20.2587 48.8926H23.7843C23.9781 48.8926 24.1367 49.0512 24.1367 49.2452V51.1671Z" fill="#6BC1DD"/>
</svg>
