<svg width="168" height="24" viewBox="0 0 168 24" fill="none" xmlns="http://www.w3.org/2000/svg">
<g id="Facebook Logo" clip-path="url(#clip0_409_1174)">
<g id="Group">
<path id="Vector" d="M10.7371 22.9884H4.43774V11.9879H0.146484V8.40635H4.43757V5.85782C4.43757 2.83781 6.33553 0.671875 12.6179 0.671875C13.9466 0.671875 16.0326 0.859484 16.0326 0.859484V4.18515H13.8416C11.6091 4.18515 10.7375 4.66085 10.7375 5.97599V8.40635H15.949L15.4849 11.9879H10.7373L10.7371 22.9884ZM25.1912 8.12014C25.0994 8.12014 25.005 8.12248 24.9115 8.12412C19.0704 8.12412 16.3979 11.202 16.3979 15.5711C16.3979 21.075 19.8645 23.2778 24.9572 23.2778C27.8709 23.2778 29.7852 22.4187 30.9488 20.8155V22.99H36.9404V8.40788H30.9488V10.6504C29.9987 9.20762 28.0309 8.13724 25.1912 8.12014ZM26.7147 11.5658C29.168 11.5658 30.6405 12.7646 30.6405 14.8036L30.6462 16.8861C30.6462 18.2604 29.43 19.8682 26.7147 19.8682C22.5403 19.8682 22.6518 16.7107 22.6518 15.659C22.6518 12.1215 24.8759 11.5658 26.7147 11.5658ZM39.3601 15.6997C39.3601 13.9277 39.2391 8.12963 50.0226 8.12963C54.3513 8.12963 56.1588 9.09379 56.1588 9.09379L54.7061 12.2502C54.7061 12.2502 52.9009 11.5539 50.5487 11.5539C47.536 11.5539 45.6137 12.7773 45.6137 14.9299L45.617 16.4734C45.617 18.5418 47.4718 19.9225 50.5549 19.9225C52.6978 19.9225 54.6728 19.2196 54.6728 19.2196L56.1219 22.3101C56.1219 22.3101 54.4692 23.2804 50.0529 23.2804C39.7852 23.2804 39.3603 18.0784 39.3603 15.6997H39.3601ZM91.2898 8.12412C97.1311 8.12412 99.8457 11.202 99.8457 15.5711C99.8457 21.075 96.379 23.2778 91.2863 23.2778C88.3726 23.2778 86.2187 22.4188 85.0551 20.8155V22.99L79.1389 22.9883V1.11525L85.4204 0.731484V10.4528C86.327 8.75206 89.3064 8.12412 91.29 8.12412H91.2898ZM89.5288 11.5658C87.0755 11.5658 85.4204 12.7646 85.4204 14.8036L85.4146 16.8861C85.4109 18.2604 86.5607 19.8682 89.5288 19.8682C93.7032 19.8682 93.5917 16.7107 93.5917 15.659C93.5917 12.1215 91.3677 11.5658 89.5288 11.5658ZM67.0577 8.13618C60.4325 8.13618 56.9349 10.6666 56.9349 15.1633V15.9988C56.9349 21.8352 61.8467 23.3378 67.7025 23.3378C73.3944 23.3378 75.9708 22.2226 75.9708 22.2226L74.7953 19.2527C74.7953 19.2527 71.7648 20.1559 68.4557 20.1559C65.0252 20.1559 63.5499 19.5434 63.1717 17.234H76.473V14.8515C76.473 9.97363 72.5475 8.13607 67.0576 8.13607L67.0577 8.13618ZM67.2174 11.1101C69.5107 11.1101 70.9968 12.0952 70.9152 14.3799H63.1833C63.3173 11.9753 64.9199 11.1102 67.2174 11.1102V11.1101ZM112.371 8.11616C105.567 8.11616 101.985 10.8019 101.985 15.615C101.985 22.2188 108.16 23.2818 112.382 23.2818C118.564 23.2818 122.676 20.9505 122.676 15.675C122.676 10.1841 118.052 8.11616 112.371 8.11616V8.11616ZM112.285 11.5778C115.277 11.5778 116.462 13.1462 116.462 14.9316V16.4665C116.462 18.6293 114.804 19.8802 112.274 19.8802C109.908 19.8802 108.245 18.7101 108.245 16.4665V14.9316C108.245 12.5388 110.224 11.5778 112.285 11.5778V11.5778ZM135.19 8.11616C128.386 8.11616 124.805 10.8019 124.805 15.615C124.805 22.2188 130.979 23.2818 135.201 23.2818C141.383 23.2818 145.495 20.9505 145.495 15.675C145.495 10.1841 140.871 8.11616 135.19 8.11616V8.11616ZM135.104 11.5778C138.096 11.5778 139.281 13.1462 139.281 14.9316V16.4665C139.281 18.6293 137.623 19.8802 135.093 19.8802C132.727 19.8802 131.064 18.7101 131.064 16.4665V14.9316C131.064 12.5388 133.043 11.5778 135.104 11.5778V11.5778ZM147.869 22.9884V1.11525L154.169 0.731484V15.3923L160.419 8.40635H167.072L160.552 15.6417L167.323 22.9884H160.651L154.169 15.8549V22.9884H147.869Z" fill="white" fill-opacity="0.6"/>
</g>
</g>
<defs>
<clipPath id="clip0_409_1174">
<rect width="167.344" height="22.783" fill="white" transform="translate(0.0625 0.613281)"/>
</clipPath>
</defs>
</svg>
