<svg width="168" height="33" viewBox="0 0 168 33" fill="none" xmlns="http://www.w3.org/2000/svg">
<g id="Forbes.com Logo">
<path id="Vector" d="M95.2057 11.3454C95.2057 7.94076 95.2894 4.77095 95.5404 1.83594L82.7386 3.53824V4.36005L83.9937 4.47745C84.9141 4.53615 85.4998 4.77095 85.8345 5.12315C86.1691 5.53405 86.4202 6.12105 86.5875 7.00156C86.7548 8.70386 86.9222 12.5781 86.8385 18.6829C86.8385 24.729 86.7548 28.5445 86.5875 30.012C91.1895 30.7164 94.7873 31.0099 97.4648 31.0099C102.485 31.0099 106.418 30.012 109.263 27.9575C112.107 25.9617 113.614 23.1441 113.614 19.6808C113.614 16.9219 112.526 14.6326 110.35 12.8129C108.175 10.9932 105.414 10.1127 102.15 10.1127C99.975 10.1127 97.7159 10.5236 95.2057 11.3454V11.3454ZM95.4567 29.425C95.2894 27.5466 95.122 21.9114 95.122 12.6955C95.8751 12.5194 96.8791 12.402 98.1342 12.402C100.142 12.402 101.732 13.1064 102.904 14.5739C104.075 16.0414 104.661 17.8024 104.661 20.033C104.661 22.7919 103.991 25.0225 102.652 26.9009C101.314 28.7206 99.6403 29.6598 97.5485 29.6598C96.8791 29.5424 96.2098 29.4837 95.4567 29.425V29.425ZM34.7109 2.42294H1.24219V3.59694L2.9993 3.71434C4.33805 3.89044 5.25844 4.24265 5.84414 4.77095C6.42984 5.35795 6.76453 6.29715 6.8482 7.58856C7.51758 13.9282 7.51758 19.8569 6.8482 25.316C6.68086 26.6074 6.34617 27.5466 5.84414 28.1336C5.25844 28.7206 4.33805 29.0728 2.9993 29.1902L1.24219 29.3663V30.5403H22.8295V29.3663L20.5704 29.2489C19.2316 29.1315 18.3113 28.7206 17.7255 28.1923C17.1398 27.6053 16.8052 26.6661 16.7215 25.3747C16.4705 23.0267 16.3031 20.3265 16.3031 17.3328L20.8214 17.3915C23.2479 17.4502 24.9213 18.7416 25.758 21.3244H27.4315V11.7563H25.758C24.9213 14.2804 23.3316 15.5718 20.8214 15.6305L16.3031 15.6892C16.3031 10.4062 16.4705 6.64935 16.7215 4.36005H23.3316C28.0172 4.36005 31.1967 6.47325 33.0375 10.6997L35.0456 10.2888L34.7109 2.42294ZM30.7784 20.5026C30.7784 23.555 32.0334 26.0791 34.4599 28.0749C36.8864 30.0707 40.4843 31.0099 45.0026 31.0099C49.5209 31.0099 53.2024 30.012 55.8799 27.9575C58.5574 25.9617 59.8125 23.4376 59.8125 20.3852C59.8125 17.3328 58.5574 14.8087 56.1309 12.8129C53.7045 10.8171 50.1066 9.87787 45.5883 9.87787C41.07 9.87787 37.3884 10.8758 34.7109 12.9303C32.0334 14.9261 30.7784 17.4502 30.7784 20.5026V20.5026ZM49.4372 13.8108C50.4412 15.5131 50.8596 17.7437 50.8596 20.4439C50.8596 26.6661 49.0188 29.7185 45.4209 29.7185C43.5802 29.7185 42.1577 28.838 41.1537 27.077C40.1496 25.316 39.7312 23.0854 39.7312 20.4439C39.7312 14.2804 41.572 11.228 45.1699 11.228C47.0107 11.1693 48.4331 12.0498 49.4372 13.8108V13.8108ZM120.14 28.0749C122.901 30.012 126.415 31.0099 130.599 31.0099C133.193 31.0099 135.452 30.6577 137.46 29.8946C139.468 29.1902 141.058 28.3097 142.146 27.2531L141.309 26.5487C139.468 27.5466 137.376 28.0162 134.95 28.0162C131.603 28.0162 129.009 27.2531 127.252 25.6682C125.411 24.0833 124.575 22.0875 124.742 19.5047H142.648C142.648 16.6871 141.644 14.3978 139.552 12.5781C137.46 10.8171 134.531 9.93657 130.766 9.93657C126.081 9.93657 122.483 10.9932 119.889 13.0477C117.295 15.1022 116.04 17.6263 116.04 20.62C116.04 23.6724 117.379 26.1378 120.14 28.0749V28.0749ZM126.332 13.3412C127.252 11.9324 128.423 11.228 130.013 11.228C132.523 11.228 133.778 13.4586 133.778 17.9785L124.909 18.0959C124.993 16.3349 125.411 14.75 126.332 13.3412ZM165.155 10.9932C162.896 10.2888 160.051 9.87787 156.621 9.87787C153.107 9.87787 150.345 10.5236 148.254 11.7563C146.162 12.989 145.074 14.5152 145.074 16.3349C145.074 17.9198 145.744 19.1525 146.999 20.033C148.254 20.9135 150.262 21.6766 152.856 22.3223C155.198 22.9093 156.872 23.4963 157.709 24.0246C158.545 24.6116 159.047 25.2573 159.047 26.1378C159.047 26.9596 158.629 27.7227 157.709 28.3097C156.872 28.9554 155.7 29.2489 154.194 29.2489C150.513 29.2489 147.752 27.3705 145.827 23.6137L144.405 23.9072L144.739 29.7772C147.752 30.599 151.099 31.0099 154.78 31.0099C158.629 31.0099 161.557 30.4229 163.733 29.1902C165.908 28.0162 166.996 26.3139 166.996 24.2007C166.996 22.7919 166.494 21.6179 165.406 20.7374C164.319 19.8569 162.562 19.0938 160.051 18.3894C157.29 17.685 155.366 17.0393 154.362 16.4523C153.358 15.8653 152.856 15.1609 152.856 14.2804C152.856 13.3999 153.19 12.6955 153.943 12.1085C154.696 11.5215 155.617 11.2867 156.788 11.2867C160.135 11.2867 162.562 12.989 164.068 16.3349L165.49 16.0414L165.155 10.9932ZM84.663 10.4649C83.4916 10.054 82.2366 9.87787 80.8141 9.87787C79.3917 9.87787 77.9693 10.2888 76.3795 11.1106C74.7898 11.9324 73.6184 13.0477 72.698 14.5739L72.7816 9.87787L60.0635 11.6389V12.4607L61.3186 12.5194C62.9084 12.6368 63.8287 13.5173 63.9961 15.1022C64.4981 18.7416 64.4981 22.6158 63.9961 26.7248C63.8287 28.3097 62.9084 29.1315 61.3186 29.3076L60.0635 29.425V30.5403H77.802V29.425L75.5428 29.3076C73.953 29.1902 73.0327 28.3097 72.8653 26.7248C72.3633 23.3202 72.2796 19.6808 72.698 15.924C73.2 15.337 74.2877 14.9848 75.9612 14.8674C77.6346 14.75 79.5591 15.1022 81.5672 15.924L84.663 10.4649V10.4649Z" fill="white" fill-opacity="0.6"/>
</g>
</svg>
