<svg width="168" height="34" viewBox="0 0 168 34" fill="none" xmlns="http://www.w3.org/2000/svg">
<g id="Github Logo" clip-path="url(#clip0_409_1179)">
<g id="Group">
<path id="Vector" d="M32.4457 14.6106H18.3716C18.0085 14.6106 17.7138 14.8229 17.7138 15.0841V20.0353C17.7138 20.2965 18.0085 20.509 18.3716 20.509H23.8619V26.6604C23.8619 26.6604 22.6291 26.9627 19.2208 26.9627C15.1997 26.9627 9.58243 25.9056 9.58243 17.0181C9.58243 8.12858 15.4316 6.95899 20.923 6.95899C25.6765 6.95899 27.7243 7.56122 29.0272 7.8513C29.4367 7.94163 29.8154 7.64829 29.8154 7.38682L31.3855 2.60306C31.3855 2.48086 31.3279 2.33356 31.134 2.23344C30.605 1.96193 27.3766 0.662109 19.2208 0.662109C9.82516 0.662109 0.1875 3.53829 0.1875 17.3646C0.1875 31.1914 11.2219 33.2518 20.5202 33.2518C28.2192 33.2518 32.8896 30.8846 32.8896 30.8846C33.0821 30.808 33.1031 30.6146 33.1031 30.5257V15.0841C33.1031 14.8229 32.8087 14.6106 32.4457 14.6106ZM104.939 2.39278C104.939 2.12931 104.649 1.91677 104.286 1.91677H96.3615C95.9995 1.91677 95.7051 2.12931 95.7051 2.39278C95.7051 2.39404 95.7072 13.4119 95.7072 13.4119H83.3549V2.39278C83.3549 2.12931 83.0634 1.91677 82.701 1.91677H74.7767C74.4161 1.91677 74.1221 2.12931 74.1221 2.39278V32.2293C74.1221 32.4925 74.4161 32.7068 74.7767 32.7068H82.701C83.0634 32.7068 83.3549 32.4925 83.3549 32.2293V19.4672H95.7072C95.7072 19.4672 95.6856 32.2283 95.6856 32.2293C95.6856 32.4925 95.9796 32.7068 96.3419 32.7068H104.285C104.648 32.7068 104.939 32.4925 104.939 32.2293V2.39278ZM47.3742 6.38184C47.3742 4.32872 45.0864 2.66956 42.264 2.66956C39.4444 2.66956 37.1548 4.32872 37.1548 6.38184C37.1548 8.43271 39.4444 10.0964 42.264 10.0964C45.0864 10.0964 47.3742 8.43271 47.3742 6.38184ZM46.7454 25.951V12.1784C46.7454 11.9169 46.4521 11.7031 46.0898 11.7031H38.1903C37.8279 11.7031 37.5036 11.9721 37.5036 12.2336V31.9656C37.5036 32.5455 38.0058 32.7179 38.6558 32.7179H45.7731C46.5539 32.7179 46.7454 32.4421 46.7454 31.9563V25.951ZM135.227 11.7031H127.363C127.002 11.7031 126.709 11.9169 126.709 12.1801V26.8099C126.709 26.8099 124.711 27.8616 121.875 27.8616C119.04 27.8616 118.287 26.9359 118.287 24.9382V12.1801C118.287 11.9169 117.994 11.7031 117.633 11.7031H109.652C109.292 11.7031 108.997 11.9169 108.997 12.1801V25.9043C108.997 31.8378 113.593 33.2895 119.916 33.2895C125.103 33.2895 129.285 31.2276 129.285 31.2276C129.285 31.2276 129.484 32.3141 129.574 32.4431C129.665 32.5716 129.899 32.7013 130.153 32.7013L135.23 32.6852C135.59 32.6852 135.885 32.4709 135.885 32.209L135.883 12.1801C135.883 11.9169 135.589 11.7031 135.227 11.7031ZM153.345 27.8729C150.618 27.8132 148.768 26.9226 148.768 26.9226V17.474C148.768 17.474 150.593 16.669 152.832 16.525C155.664 16.3426 158.393 16.9581 158.393 21.8186C158.393 26.9442 157.161 27.9557 153.345 27.8729ZM156.447 11.0622C151.981 11.0622 148.943 12.496 148.943 12.496V2.39278C148.943 2.12931 148.65 1.91677 148.289 1.91677H140.342C139.98 1.91677 139.687 2.12931 139.687 2.39278V32.2293C139.687 32.4925 139.98 32.7068 140.343 32.7068H145.857C146.105 32.7068 146.293 32.6147 146.432 32.4534C146.569 32.293 146.766 31.0778 146.766 31.0778C146.766 31.0778 150.016 33.2935 156.168 33.2935C163.39 33.2935 167.531 30.6577 167.531 21.4608C167.531 12.2639 160.917 11.0622 156.447 11.0622ZM69.5532 11.6519H63.6088C63.6088 11.6519 63.5997 6.00269 63.5997 6.00143C63.5997 5.78764 63.4466 5.68074 63.1031 5.68074H55.0024C54.6875 5.68074 54.5183 5.78036 54.5183 5.99817V11.8373C54.5183 11.8373 50.4589 12.5425 50.1844 12.5994C49.911 12.6564 49.7098 12.8378 49.7098 13.0541V16.7235C49.7098 16.9875 50.0027 17.2003 50.3651 17.2003H54.5183V26.0275C54.5183 32.5841 60.9102 33.2283 65.2235 33.2283C67.1943 33.2283 69.5518 32.7728 69.941 32.6694C70.1764 32.6072 70.3131 32.4318 70.3131 32.2416L70.3197 28.2051C70.3197 27.9419 70.0108 27.7288 69.6627 27.7288C69.3164 27.7288 68.4302 27.8302 67.5179 27.8302C64.5982 27.8302 63.6088 26.8533 63.6088 25.5889C63.6088 24.3255 63.6084 17.2003 63.6084 17.2003H69.5532C69.9155 17.2003 70.2088 16.9875 70.2088 16.7235V12.1274C70.2088 11.8642 69.9155 11.6519 69.5532 11.6519Z" fill="white" fill-opacity="0.6"/>
</g>
</g>
<defs>
<clipPath id="clip0_409_1179">
<rect width="167.344" height="32.6887" fill="white" transform="translate(0.1875 0.662109)"/>
</clipPath>
</defs>
</svg>
