<svg width="168" height="40" viewBox="0 0 168 40" fill="none" xmlns="http://www.w3.org/2000/svg">
<g id="Google Logo" clip-path="url(#clip0_409_1166)">
<g id="Group">
<path id="Vector" d="M162.756 24.2987L167.399 26.4761C165.892 28.0375 162.288 30.7162 156.058 30.7162C148.321 30.7162 142.559 26.5047 142.559 21.1472C142.559 15.4459 148.382 11.5781 155.406 11.5781C162.471 11.5781 165.933 15.5318 167.053 17.6662L167.663 18.7549L149.461 24.0551C150.845 25.9747 153.004 26.9488 156.058 26.9488C159.112 26.9488 161.229 25.8887 162.756 24.2987ZM148.484 20.8464L160.639 17.2938C159.967 16.1048 157.972 15.2596 155.589 15.2596C152.556 15.2596 148.341 17.1505 148.484 20.8464Z" fill="white" fill-opacity="0.6"/>
<path id="Vector_2" d="M133.783 1.82227H139.647V29.8418H133.783V1.82227Z" fill="white" fill-opacity="0.6"/>
<path id="Vector_3" d="M124.54 12.3217H130.2V29.3397C130.2 36.4019 124.275 39.3099 117.271 39.3099C110.674 39.3099 106.704 36.1871 105.218 33.6515L110.41 32.1331C111.346 33.6945 113.606 35.5424 117.271 35.5424C121.771 35.5424 124.54 33.5799 124.54 29.9127V28.5375H124.337C122.993 29.6835 120.427 30.7149 117.17 30.7149C110.369 30.7149 104.139 26.5464 104.139 21.1745C104.139 15.774 110.369 11.5625 117.17 11.5625C120.407 11.5625 122.993 12.5796 124.337 13.6969H124.54V12.3217ZM124.947 21.1745C124.947 17.7938 121.751 15.33 117.679 15.33C113.566 15.33 110.104 17.7938 110.104 21.1745C110.104 24.5122 113.566 26.9332 117.679 26.9332C121.751 26.9475 124.947 24.5122 124.947 21.1745Z" fill="white" fill-opacity="0.6"/>
<path id="Vector_4" d="M71.948 21.1029C71.948 26.618 65.8398 30.672 58.3471 30.672C50.8543 30.672 44.7461 26.6037 44.7461 21.1029C44.7461 15.5592 50.8543 11.5195 58.3471 11.5195C65.8398 11.5195 71.948 15.5592 71.948 21.1029ZM66.0027 21.1029C66.0027 17.6649 62.4599 15.3013 58.3471 15.3013C54.2342 15.3013 50.6914 17.6649 50.6914 21.1029C50.6914 24.5122 54.2342 26.9045 58.3471 26.9045C62.4599 26.9045 66.0027 24.5122 66.0027 21.1029Z" fill="white" fill-opacity="0.6"/>
<path id="Vector_5" d="M101.655 21.1472C101.655 26.6623 95.5468 30.7162 88.0541 30.7162C80.5613 30.7162 74.4531 26.6623 74.4531 21.1472C74.4531 15.6034 80.5613 11.5781 88.0541 11.5781C95.5468 11.5781 101.655 15.5891 101.655 21.1472ZM95.6894 21.1472C95.6894 17.7092 92.1466 15.3456 88.0337 15.3456C83.9209 15.3456 80.3781 17.7092 80.3781 21.1472C80.3781 24.5565 83.9209 26.9488 88.0337 26.9488C92.167 26.9488 95.6894 24.5422 95.6894 21.1472Z" fill="white" fill-opacity="0.6"/>
<path id="Vector_6" d="M22.3904 26.5186C13.8593 26.5186 7.18097 21.6768 7.18097 15.6746C7.18097 9.67248 13.8593 4.83065 22.3904 4.83065C26.992 4.83065 30.3515 6.10557 32.8355 7.73861L36.928 4.8593C33.4667 2.52434 28.8448 0.748047 22.3904 0.748047C10.7034 0.748047 0.869141 7.45212 0.869141 15.6746C0.869141 23.8971 10.7034 30.6012 22.3904 30.6012C28.7023 30.6012 33.4667 29.1401 37.1927 26.4183C41.0205 23.7252 42.2014 19.9435 42.2014 16.8779C42.2014 15.9182 42.0385 14.9297 41.8553 14.1992H22.3904V18.1815H36.2561C35.8489 20.674 34.729 22.3787 33.0798 23.539C31.0845 24.9572 27.9286 26.5186 22.3904 26.5186Z" fill="white" fill-opacity="0.6"/>
</g>
</g>
<defs>
<clipPath id="clip0_409_1166">
<rect width="167.344" height="38.6321" fill="white" transform="translate(0.625 0.689453)"/>
</clipPath>
</defs>
</svg>
