<svg width="169" height="26" viewBox="0 0 169 26" fill="none" xmlns="http://www.w3.org/2000/svg">
<g id="Microsoft Logo" clip-path="url(#clip0_409_1182)">
<path id="Vector" d="M59.9132 14.8872L58.9158 16.8453H58.8327C58.6664 16.4038 58.3617 15.7319 57.863 14.9256L52.5157 5.61505H47.2793V20.4543H50.7425V11.2974C50.7425 10.7215 50.7425 10.0688 50.7148 9.26248C50.6871 8.85934 50.6317 8.55219 50.604 8.32182H50.6871C50.8534 8.89774 51.0473 9.32007 51.1858 9.58883L57.6136 20.4159H60.0517L66.4241 9.49284C66.5626 9.24328 66.7011 8.74416 66.8397 8.32182H66.9228C66.8397 9.41605 66.7843 10.3951 66.7566 10.9902V20.3967H70.4414V5.57665H65.399L59.9132 14.8872V14.8872ZM73.9324 9.7616H77.5342V20.3967H73.9324V9.7616ZM75.761 5.2695C75.1514 5.2695 74.6527 5.42308 74.2372 5.69183C73.8216 5.96059 73.5999 6.30614 73.5999 6.72847C73.5999 7.13161 73.8216 7.47716 74.2372 7.74591C74.6527 8.01467 75.1514 8.14905 75.761 8.14905C76.3705 8.14905 76.8969 7.99548 77.2848 7.74591C77.7004 7.47716 77.922 7.13161 77.922 6.72847C77.922 6.32534 77.7004 5.97979 77.2848 5.69183C76.9246 5.42308 76.3982 5.2695 75.761 5.2695V5.2695ZM90.3066 9.66562C89.6416 9.56963 88.949 9.51204 88.2841 9.51204C86.6494 9.51204 85.1533 9.7616 83.9065 10.2607C82.6598 10.7598 81.6623 11.4509 81.0251 12.3148C80.3602 13.1979 80.0277 14.2153 80.0277 15.3863C80.0277 16.4038 80.3602 17.306 80.9974 18.1315C81.6346 18.9378 82.5212 19.5905 83.7126 20.032C84.8485 20.4735 86.1784 20.7039 87.6745 20.7039C89.3923 20.7039 90.8607 20.4543 92.0244 19.9936L92.0521 19.9744V17.6708L91.9135 17.7476C91.3871 18.0163 90.7776 18.2467 90.1681 18.3811C89.5308 18.5346 88.949 18.6114 88.4503 18.6114C87.0096 18.6114 85.8736 18.3235 85.0702 17.69C84.239 17.0757 83.8234 16.231 83.8234 15.1752C83.8234 14.0809 84.239 13.2171 85.0979 12.5836C85.9568 11.9501 87.0927 11.6237 88.478 11.6237C89.6416 11.6237 90.833 11.8925 91.9135 12.43L92.0521 12.5068V10.0688L92.0244 10.0496C91.5534 9.91518 91.0269 9.7616 90.3066 9.66562V9.66562ZM102.192 9.58883C101.306 9.58883 100.475 9.7808 99.7543 10.1839C99.1448 10.5295 98.7292 11.0286 98.369 11.6237H98.3413V9.7616H94.7395V20.3967H98.3413V14.964C98.3413 14.0425 98.6184 13.2747 99.2279 12.7179C99.8374 12.142 100.613 11.8541 101.555 11.8541C101.888 11.8541 102.22 11.9117 102.636 11.9501C103.024 12.0268 103.301 12.1036 103.495 12.1996L103.633 12.2764V9.7808L103.55 9.7616C103.301 9.64642 102.802 9.58883 102.192 9.58883V9.58883ZM112 9.53124C109.479 9.53124 107.457 10.0496 106.044 11.067C104.603 12.0844 103.91 13.4858 103.91 15.2519C103.91 16.9029 104.631 18.2467 106.016 19.2257C107.401 20.1856 109.285 20.6847 111.64 20.6847C114.106 20.6847 116.073 20.1664 117.486 19.1297C118.927 18.0931 119.619 16.7109 119.619 15.0024C119.619 13.3131 118.955 11.9693 117.597 10.9902C116.295 10.0112 114.383 9.53124 112 9.53124V9.53124ZM114.882 17.7092C114.217 18.3043 113.164 18.5922 111.862 18.5922C110.56 18.5922 109.507 18.3043 108.759 17.6708C108.011 17.0757 107.65 16.2118 107.65 15.1176C107.65 13.9849 108.038 13.1211 108.759 12.5068C109.507 11.8925 110.532 11.5853 111.834 11.5853C113.109 11.5853 114.106 11.8733 114.826 12.4684C115.547 13.0635 115.935 13.9274 115.935 15.06C115.879 16.2118 115.574 17.1141 114.882 17.7092V17.7092ZM127.654 14.1769C126.518 13.8506 125.798 13.601 125.465 13.3898C125.188 13.1979 125.05 12.9291 125.05 12.5836C125.05 12.2956 125.216 12.0077 125.632 11.8157C126.047 11.6237 126.518 11.5277 127.211 11.5277C127.82 11.5277 128.458 11.6045 129.067 11.7197C129.677 11.8349 130.231 12.0077 130.674 12.238L130.813 12.3148V9.97277L130.73 9.95357C130.314 9.83839 129.76 9.72321 129.095 9.62722C128.43 9.55043 127.82 9.51204 127.322 9.51204C125.604 9.51204 124.191 9.8 123.083 10.4335C121.974 11.0286 121.448 11.8349 121.448 12.7755C121.448 13.2747 121.559 13.7162 121.808 14.0809C122.058 14.4457 122.418 14.7912 122.916 15.0792C123.415 15.3479 124.136 15.6551 125.133 15.943C125.964 16.1926 126.601 16.3846 126.989 16.5381C127.377 16.6917 127.626 16.8645 127.82 16.9989C127.959 17.1525 128.042 17.3444 128.042 17.594C128.042 18.3043 127.266 18.6498 125.687 18.6498C125.078 18.6498 124.44 18.573 123.692 18.4003C122.944 18.2275 122.252 17.9779 121.67 17.69L121.531 17.6132V20.0512L121.614 20.0704C122.141 20.2432 122.778 20.3584 123.554 20.4927C124.329 20.5887 125.022 20.6655 125.632 20.6655C127.488 20.6655 129.012 20.3776 130.092 19.7441C131.201 19.1297 131.782 18.3427 131.782 17.3252C131.782 16.6149 131.505 15.9814 130.896 15.5015C130.092 15.0408 129.095 14.5609 127.654 14.1769V14.1769ZM141.285 9.53124C138.764 9.53124 136.742 10.0496 135.329 11.067C133.916 12.0844 133.195 13.4858 133.195 15.2519C133.195 16.9029 133.916 18.2467 135.301 19.2257C136.686 20.1856 138.57 20.6847 140.925 20.6847C143.391 20.6847 145.358 20.1664 146.771 19.1297C148.212 18.0931 148.905 16.7109 148.905 15.0024C148.905 13.3131 148.24 11.9693 146.882 10.9902C145.58 10.0112 143.668 9.53124 141.285 9.53124V9.53124ZM144.139 17.7092C143.474 18.3043 142.421 18.5922 141.119 18.5922C139.789 18.5922 138.764 18.3043 138.016 17.6708C137.268 17.0757 136.908 16.2118 136.908 15.1176C136.908 13.9849 137.296 13.1211 138.016 12.5068C138.764 11.8925 139.789 11.5853 141.092 11.5853C142.338 11.5853 143.363 11.8733 144.084 12.4684C144.804 13.0635 145.192 13.9274 145.192 15.06C145.192 16.2118 144.832 17.1141 144.139 17.7092V17.7092ZM168.16 11.8157V9.7616H164.531V6.61329L164.42 6.63249L160.984 7.34278L160.901 7.36197V9.7616H155.471V8.41781C155.471 7.80351 155.693 7.32358 156.08 7.01643C156.468 6.70928 157.05 6.5557 157.771 6.5557C158.269 6.5557 158.796 6.63249 159.377 6.80526L159.516 6.86285V4.69359L159.433 4.67439C158.934 4.55921 158.269 4.48242 157.41 4.48242C156.33 4.48242 155.388 4.65519 154.529 4.94315C153.67 5.2695 153.033 5.71103 152.562 6.30614C152.091 6.88205 151.841 7.53475 151.841 8.28343V9.7616H149.32V11.7965H151.841V20.3967H155.471V11.8157H160.901V17.2868C160.901 19.5329 162.425 20.6655 165.473 20.6655C165.971 20.6655 166.498 20.6079 166.997 20.5503C167.523 20.4735 167.911 20.3776 168.133 20.3008L168.16 20.2816V18.2275L168.022 18.3043C167.8 18.4003 167.606 18.477 167.274 18.5346C166.997 18.5922 166.747 18.6114 166.553 18.6114C165.833 18.6114 165.334 18.4962 164.974 18.2083C164.642 17.9395 164.475 17.498 164.475 16.8453V11.8157H168.16V11.8157Z" fill="white" fill-opacity="0.6"/>
<path id="Vector_2" d="M0.84375 0.623047H17.8275V12.3908H0.84375V0.623047Z" fill="white" fill-opacity="0.6"/>
<path id="Vector_3" d="M19.6016 0.623047H36.5853V12.3908H19.6016V0.623047Z" fill="white" fill-opacity="0.6"/>
<path id="Vector_4" d="M0.84375 13.6191H17.8275V25.3869H0.84375V13.6191Z" fill="white" fill-opacity="0.6"/>
<path id="Vector_5" d="M19.6016 13.6191H36.5853V25.3869H19.6016V13.6191Z" fill="white" fill-opacity="0.6"/>
</g>
<defs>
<clipPath id="clip0_409_1182">
<rect width="167.344" height="24.7642" fill="white" transform="translate(0.84375 0.623047)"/>
</clipPath>
</defs>
</svg>
